STARTFONT 2.1
COMMENT
COMMENT Converted from OpenType font "Q:\font stuff\winfont\Zenon.ttf" by "otf2bdf 3.0".
COMMENT
FONT -FreeType-Zenon-Medium-R-Normal--159-1600-72-72-P-872-ISO10646-1
SIZE 160 72 72
FONTBOUNDINGBOX 233 193 -28 -37
STARTPROPERTIES 19
FOUNDRY "FreeType"
FAMILY_NAME "Zenon"
WEIGHT_NAME "Medium"
SLANT "R"
SETWIDTH_NAME "Normal"
ADD_STYLE_NAME ""
PIXEL_SIZE 126
POINT_SIZE 1600
RESOLUTION_X 72
RESOLUTION_Y 72
SPACING "P"
AVERAGE_WIDTH 872
CHARSET_REGISTRY "ISO10646"
CHARSET_ENCODING "1"
FONT_ASCENT 155
FONT_DESCENT 33
COPYRIGHT "Copyright © 1986-1995 SWFTE International, Ltd. All rights reserved"
_OTF_FONTFILE "Q:\font stuff\winfont\Zenon.ttf"
_OTF_PSNAME "ZenonRegularSWFTE"
ENDPROPERTIES
CHARS 95
STARTCHAR 0020
ENCODING 32
SWIDTH 300 0
DWIDTH 48 0
BBX 0 0 0 0
BITMAP
ENDCHAR
STARTCHAR 0021
ENCODING 33
SWIDTH 262 0
DWIDTH 42 0
BBX 19 123 15 0
BITMAP
FFFFE0
FFFFE0
FFFFE0
FFFFE0
FFFFE0
FFFFE0
FFFFE0
FFFFE0
FFFFE0
FFFFE0
FFFFE0
FFFFE0
FFFFE0
FFFFE0
FFFFE0
FFFFE0
FFFFE0
FFFFE0
FFFFE0
FFFFE0
FFFFE0
FFFFE0
FFFFE0
FFFFE0
FFFFE0
FFFFE0
FFFFE0
FFFFE0
FFFFE0
FFFFE0
FFFFE0
FFFFE0
FFFFE0
FFFFE0
FFFFE0
FFFFE0
FFFFE0
FFFFE0
FFFFE0
FFFFE0
FFFFE0
FFFFE0
FFFFE0
FFFFE0
FFFFE0
FFFFE0
FFFFE0
FFFFE0
FFFFE0
FFFFE0
FFFFE0
FFFFE0
FFFFE0
FFFFE0
FFFFE0
FFFFE0
FFFFE0
FFFFE0
FFFFE0
FFFFE0
FFFFE0
FFFFE0
FFFFE0
FFFFE0
FFFFE0
FFFFE0
FFFFE0
FFFFE0
FFFFE0
FFFFE0
FFFFE0
FFFFE0
FFFFE0
FFFFE0
FFFFE0
FFFFE0
FFFFE0
FFFFE0
FFFFE0
FFFFE0
FFFFE0
FFFFE0
FFFF80
FFF800
FFC000
FC0000
C00000
000000
000000
000000
000000
000000
000000
000000
000000
01F000
07FC00
0FFE00
1FFF00
3FFF00
3FFF80
7FFF80
7FFFC0
7FFFC0
FFFFC0
FFFFE0
FFFFE0
FFFFE0
FFFFE0
FFFFE0
FFFFE0
FFFFE0
FFFFE0
FFFFC0
7FFFC0
7FFFC0
7FFF80
3FFF80
3FFF00
1FFF00
0FFE00
07FC00
01F000
ENDCHAR
STARTCHAR 0022
ENCODING 34
SWIDTH 425 0
DWIDTH 68 0
BBX 36 38 18 87
BITMAP
FFC0003C00
FFC0003FE0
FFC0003FE0
FFC0003FE0
FFC0003FE0
FFC0003FE0
FFC0003FE0
FFC0003FE0
FFC0003FE0
FFC0003FE0
FFC0003FE0
FFC0003FF0
FFC0003FF0
FFC0003FF0
FFC0003FF0
FFC0003FF0
FFC0003FF0
FFC0003FF0
FFC0003FF0
FFC0003FF0
FFC0003FF0
FFC0003FF0
FFC0003FF0
FFC0003FF0
FFC0003FF0
FFC0003FF0
FFC0003FF0
FFC0003FF0
FFC0003FF0
FFC0003FF0
FFC0003FF0
FFC0003FC0
FF80003F00
FE00003C00
FC00003000
F000000000
C000000000
8000000000
ENDCHAR
STARTCHAR 0023
ENCODING 35
SWIDTH 756 0
DWIDTH 121 0
BBX 106 81 3 34
BITMAP
000000000000FFFE0001FFFC0000
000000000001FFFE0003FFFC0000
000000000001FFFC0003FFF80000
000000000003FFFC0007FFF80000
000000000003FFFC0007FFF00000
000000000007FFF8000FFFF00000
000000000007FFF8000FFFF00000
00000000000FFFF0001FFFE00000
00000000000FFFF0001FFFE00000
00000000001FFFF0001FFFC00000
00000000001FFFE0003FFFC00000
00000000003FFFE0003FFF800000
00000000003FFFC0003FFF800000
00000000007FFFC0007FFF800000
00000000007FFF80007FFF000000
0000000000FFFF8000FFFF000000
0000000000FFFF8001FFFE000000
0000000001FFFF0007FFFFF80000
00001FFFFFFFFFFFFFFFFFFFFFC0
00003FFFFFFFFFFFFFFFFFFFFFC0
00003FFFFFFFFFFFFFFFFFFFFFC0
00007FFFFFFFFFFFFFFFFFFFFF80
00007FFFFFFFFFFFFFFFFFFFFF80
00007FFFFFFFFFFFFFFFFFFFFF00
0000FFFFFFFFFFFFFFFFFFFFFF00
0000FFFFFFFFFFFFFFFFFFFFFF00
0000FFFFFFFFFFFFFFFFFFFFFE00
0001FFFFFFFFFFFFFFFFFFFFFE00
0001FFFFFFFFFFFFFFFFFFFFFE00
0003FFFFFFFFFFFFFFFFFFFFFC00
0003FFFFFFFFFFFFFFFFFFFFFC00
0003FFFFFFFFFFFFFFFFFFFFF800
0007FFFFFFFFFFFFFFFFFFFFF800
0000000FFFFFFFFFFFFF80000000
000000007FFF8000FFFF80000000
000000007FFF0000FFFF00000000
00000000FFFF0001FFFE00000000
00000000FFFE0001FFFE00000000
00000001FFFE0003FFFC00000000
00000001FFFE0003FFFC00000000
00000003FFFC0007FFF800000000
00000007FFFC0007FFF800000000
00000007FFF8000FFFF000000000
0000000FFFF8000FFFF000000000
0000000FFFF8001FFFE000000000
0000001FFFF0001FFFE000000000
0000001FFFF0003FFFC000000000
0000003FFFE0003FFFF000000000
03FFFFFFFFFFFFFFFFFFFFF80000
07FFFFFFFFFFFFFFFFFFFFF80000
07FFFFFFFFFFFFFFFFFFFFF80000
0FFFFFFFFFFFFFFFFFFFFFF00000
0FFFFFFFFFFFFFFFFFFFFFF00000
1FFFFFFFFFFFFFFFFFFFFFE00000
1FFFFFFFFFFFFFFFFFFFFFE00000
1FFFFFFFFFFFFFFFFFFFFFE00000
3FFFFFFFFFFFFFFFFFFFFFC00000
3FFFFFFFFFFFFFFFFFFFFFC00000
7FFFFFFFFFFFFFFFFFFFFF800000
7FFFFFFFFFFFFFFFFFFFFF800000
7FFFFFFFFFFFFFFFFFFFFF000000
FFFFFFFFFFFFFFFFFFFFFF000000
00000FFFF0001FFFF00000000000
00000FFFE0001FFFE00000000000
00001FFFC0003FFFE00000000000
00001FFFC0003FFFC00000000000
00003FFFC0003FFFC00000000000
00003FFFC0007FFF800000000000
00003FFF80007FFF800000000000
00007FFF8000FFFF000000000000
00007FFF8000FFFF000000000000
0000FFFF8001FFFE000000000000
0000FFFF0001FFFE000000000000
0001FFFF0001FFFC000000000000
0001FFFF0003FFFC000000000000
0001FFFE0003FFF8000000000000
0003FFFE0007FFF8000000000000
0003FFFC0007FFF8000000000000
0007FFFC000FFFF0000000000000
0007FFF8000FFFF0000000000000
000FFFF0001FFFE0000000000000
ENDCHAR
STARTCHAR 0024
ENCODING 36
SWIDTH 912 0
DWIDTH 146 0
BBX 136 180 4 -24
BITMAP
000000000000000FFFFE00000000000000
000000000000000FFFFE00000000000000
000000000000000FFFFE00000000000000
000000000000000FFFFE00000000000000
000000000000000FFFFE00000000000000
000000000000000FFFFE00000000000000
000000000000000FFFFE00000000000000
000000000000000FFFFE00000000000000
000000000000000FFFFE00000000000000
000000000000000FFFFE00000000000000
000000000000000FFFFE00000000000000
000000000000000FFFFE00000000000000
000000000000000FFFFE00000000000000
000000000000000FFFFE00000000000000
000000000000000FFFFE00000000000000
000000000000000FFFFE00000000000000
000000000000000FFFFE00000000000000
000000000000000FFFFE00000000000000
000000000000000FFFFE00000000000000
000000000000000FFFFE00000000000000
000000000000000FFFFE00000000000000
000000000000000FFFFE00000000000000
000000000000000FFFFE00000000000000
000000000000000FFFFE00000000000000
000000000000000FFFFE00000000000000
000000000000000FFFFE00000000000000
000000000000000FFFFE00000000000000
000000000000000FFFFE00000000000000
000000000000000FFFFE00000000000000
000000000000000FFFFE00000000000000
000000000000000FFFFE00000000000000
000000000000000FFFFE00000000000000
000000000FFFFFFFFFFE00000000000000
00000007FFFFFFFFFFFFFFFFFFFFFFF800
0000007FFFFFFFFFFFFFFFFFFFFFFFF000
000003FFFFFFFFFFFFFFFFFFFFFFFFE000
00000FFFFFFFFFFFFFFFFFFFFFFFFFC000
00003FFFFFFFFFFFFFFFFFFFFFFFFF8000
0000FFFFFFFFFFFFFFFFFFFFFFFFFF0000
0001FFFFFFFFFFFFFFFFFFFFFFFFFE0000
0007FFFFFFFFFFFFFFFFFFFFFFFFFC0000
000FFFFFFFFFFFFFFFFFFFFFFFFFF80000
001FFFFFFFFFFFFFFFFFFFFFFFFFF00000
001FFFFFFFFFFFFFFFFFFFFFFFFFE00000
003FFFFFFFFFFFFFFFFFFFFFFFFFC00000
007FFFFFFFFFFFFFFFFFFFFFFFFFC00000
007FFFFFFFFFFFFFFFFFFFFFFFFF800000
00FFFFFFFFFFFFFFFFFFFFFFFFFF000000
00FFFFFFFFFFFFFFFFFFFFFFFFFE000000
01FFFFFFFFFFFFFFFFFFFFFFFFFC000000
01FFFFFFFFFFFFFFFFFFFFFFFFF0000000
01FFFFFFE000000FFFFFFFFFFFC0000000
01FFFFFE0000000FFFFF00000000000000
03FFFFF80000000FFFFF00000000000000
03FFFFE00000000FFFFF00000000000000
03FFFFC00000000FFFFF00000000000000
03FFFFC00000000FFFFF00000000000000
03FFFF800000000FFFFF00000000000000
03FFFF800000000FFFFF00000000000000
03FFFF800000000FFFFF00000000000000
03FFFF800000000FFFFF00000000000000
03FFFFC00000000FFFFF00000000000000
03FFFFE00000000FFFFF00000000000000
01FFFFF00000000FFFFF00000000000000
01FFFFF80000000FFFFF00000000000000
01FFFFFE0000000FFFFF00000000000000
00FFFFFF8000000FFFFF00000000000000
00FFFFFFE000000FFFFF00000000000000
007FFFFFF800000FFFFF00000000000000
007FFFFFFE00000FFFFF00000000000000
003FFFFFFF80000FFFFF00000000000000
001FFFFFFFF00007FFFF00000000000000
000FFFFFFFFE0000FFFF00000000000000
000FFFFFFFFF80001FFF00000000000000
0007FFFFFFFFF00007FF00000000000000
0003FFFFFFFFFE0000FF00000000000000
0000FFFFFFFFFFC0001F00000000000000
00007FFFFFFFFFFC000700000000000000
00003FFFFFFFFFFF800000000000000000
00000FFFFFFFFFFFF80000000000000000
000007FFFFFFFFFFFF0000000000000000
000001FFFFFFFFFFFFE000000000000000
0000007FFFFFFFFFFFFC00000000000000
0000001FFFFFFFFFFFFF80000000000000
00000007FFFFFFFFFFFFF0000000000000
00000001FFFFFFFFFFFFFE000000000000
000000003FFFFFFFFFFFFFC00000000000
0000000007FFFFFFFFFFFFF80000000000
0000000000FFFFFFFFFFFFFF0000000000
00000000001FFFFFFFFFFFFFC000000000
000000000003FFFFFFFFFFFFF800000000
0000000000007FFFFFFFFFFFFF00000000
0000000000000FFFFFFFFFFFFFC0000000
00000000000001FFFFFFFFFFFFF0000000
000000000000001FFFFFFFFFFFFC000000
0000000000000003FFFFFFFFFFFE000000
00000000000000007FFFFFFFFFFF800000
00000000000000000FFFFFFFFFFFC00000
000000000000000001FFFFFFFFFFF00000
0000000000000000003FFFFFFFFFF80000
00000000000000000007FFFFFFFFFC0000
000000000000000E0000FFFFFFFFFE0000
000000000000000FE0000FFFFFFFFF0000
000000000000000FFE0001FFFFFFFF8000
000000000000000FFFE0003FFFFFFFC000
000000000000000FFFFE000FFFFFFFE000
000000000000000FFFFE0003FFFFFFF000
000000000000000FFFFE0000FFFFFFF800
000000000000000FFFFE00003FFFFFFC00
000000000000000FFFFE00000FFFFFFE00
000000000000000FFFFE000007FFFFFF00
000000000000000FFFFE000001FFFFFF00
000000000000000FFFFE000000FFFFFF80
000000000000000FFFFE0000003FFFFFC0
000000000000000FFFFE0000001FFFFFE0
000000000000000FFFFE0000000FFFFFE0
000000000000000FFFFE00000007FFFFF0
000000000000000FFFFE00000003FFFFF0
000000000000000FFFFE00000001FFFFF8
000000000000000FFFFE00000000FFFFF8
000000000000000FFFFE00000000FFFFFC
000000000000000FFFFE000000007FFFFC
000000000000000FFFFE000000003FFFFE
000000000000000FFFFE000000003FFFFE
000000000000000FFFFE000000001FFFFE
000000000000000FFFFE000000001FFFFF
000000000000000FFFFE000000000FFFFF
000000000000000FFFFE000000000FFFFF
000000000000000FFFFE000000000FFFFF
000000000000000FFFFE000000000FFFFF
000000000000000FFFFE0000000007FFFF
000000000000000FFFFE0000000007FFFF
000000000000000FFFFE0000000007FFFF
000000000000000FFFFE0000000007FFFF
000000000000000FFFFE0000000007FFFF
000000000000000FFFFE0000000007FFFF
000000000000000FFFFE0000000007FFFF
00003FFFFFFFFFFFFFFFFFFFFFFFFFFFFF
00007FFFFFFFFFFFFFFFFFFFFFFFFFFFFF
0000FFFFFFFFFFFFFFFFFFFFFFFFFFFFFF
0001FFFFFFFFFFFFFFFFFFFFFFFFFFFFFF
0003FFFFFFFFFFFFFFFFFFFFFFFFFFFFFF
0007FFFFFFFFFFFFFFFFFFFFFFFFFFFFFF
000FFFFFFFFFFFFFFFFFFFFFFFFFFFFFFF
001FFFFFFFFFFFFFFFFFFFFFFFFFFFFFFF
003FFFFFFFFFFFFFFFFFFFFFFFFFFFFFFF
007FFFFFFFFFFFFFFFFFFFFFFFFFFFFFFF
00FFFFFFFFFFFFFFFFFFFFFFFFFFFFFFFF
01FFFFFFFFFFFFFFFFFFFFFFFFFFFFFFFF
03FFFFFFFFFFFFFFFFFFFFFFFFFFFFFFFF
07FFFFFFFFFFFFFFFFFFFFFFFFFFFFFFFF
0FFFFFFFFFFFFFFFFFFFFFFFFFFFFFFFFF
1FFFFFFFFFFFFFFFFFFFFFFFFFFFFFFFFF
3FFFFFFFFFFFFFFFFFFFFFFFFFFFFFFFFF
7FFFFFFFFFFFFFFFFFFFFFFFFFFFFFFFFF
FFFFFFFFFFFFFFFFFFFFFFFFFFFFFFFFFF
000000000000000FFFFE00000000000000
000000000000000FFFFE00000000000000
000000000000000FFFFE00000000000000
000000000000000FFFFE00000000000000
000000000000000FFFFE00000000000000
000000000000000FFFFE00000000000000
000000000000000FFFFE00000000000000
000000000000000FFFFE00000000000000
000000000000000FFFFE00000000000000
000000000000000FFFFE00000000000000
000000000000000FFFFE00000000000000
000000000000000FFFFE00000000000000
000000000000000FFFFE00000000000000
000000000000000FFFFE00000000000000
000000000000000FFFFE00000000000000
000000000000000FFFFE00000000000000
000000000000000FFFFE00000000000000
000000000000000FFFFE00000000000000
000000000000000FFFFE00000000000000
000000000000000FFFFE00000000000000
000000000000000FFFFE00000000000000
000000000000000FFFFE00000000000000
000000000000000FFFFE00000000000000
000000000000000FFFFE00000000000000
ENDCHAR
STARTCHAR 0025
ENCODING 37
SWIDTH 656 0
DWIDTH 105 0
BBX 87 129 6 -6
BITMAP
0000000000000000FFFFF0
0000000000000000FFFFF0
0000000000000001FFFFE0
0000000000000001FFFFE0
0000FFE000000003FFFFC0
000FFFFC00000003FFFFC0
003FFFFF00000007FFFF80
00FFFFFFC0000007FFFF80
01FFFFFFE000000FFFFF00
07FFFFFFF800000FFFFF00
0FFFFFFFFC00001FFFFE00
0FFFFFFFFC00001FFFFE00
1FFFFFFFFE00003FFFFC00
3FFFFFFFFF00003FFFFC00
3FFF007FFF00007FFFF800
7FF8000FFF80007FFFF800
7FF00003FF80007FFFF000
7FE00001FF8000FFFFF000
7FC00000FF8000FFFFE000
FFC00000FFC001FFFFE000
FF8000007FC001FFFFC000
FF8000007FC003FFFFC000
FF8000007FC003FFFF8000
FF8000007FC007FFFF8000
FF8000007FC007FFFF8000
FF8000007FC00FFFFF0000
FF8000007FC00FFFFF0000
FF8000007FC01FFFFE0000
FFC00000FFC01FFFFE0000
7FC00000FF803FFFFC0000
7FE00001FF803FFFFC0000
7FF00003FF807FFFF80000
7FF8000FFF807FFFF80000
3FFF003FFF00FFFFF00000
3FFFFFFFFF00FFFFF00000
1FFFFFFFFE01FFFFE00000
0FFFFFFFFC01FFFFE00000
0FFFFFFFFC03FFFFC00000
07FFFFFFF803FFFFC00000
01FFFFFFF007FFFF800000
00FFFFFFC007FFFF800000
003FFFFF800FFFFF000000
000FFFFC000FFFFF000000
0000FFE0000FFFFE000000
00000000001FFFFE000000
00000000001FFFFC000000
00000000003FFFFC000000
00000000003FFFF8000000
00000000007FFFF8000000
00000000007FFFF0000000
0000000000FFFFF0000000
0000000000FFFFE0000000
0000000001FFFFE0000000
0000000001FFFFC0000000
0000000003FFFFC0000000
0000000003FFFF80000000
0000000007FFFF80000000
0000000007FFFF00000000
000000000FFFFF00000000
000000000FFFFE00000000
000000001FFFFE00000000
000000001FFFFC00000000
000000003FFFFC00000000
000000003FFFF800000000
000000007FFFF800000000
000000007FFFF000000000
00000000FFFFF000000000
00000000FFFFE000000000
00000001FFFFE000000000
00000001FFFFC000000000
00000001FFFFC000000000
00000003FFFF8000000000
00000003FFFF8000000000
00000007FFFF8000000000
00000007FFFF0000000000
0000000FFFFF0000000000
0000000FFFFE0000000000
0000001FFFFE0000000000
0000001FFFFC0007FF0000
0000003FFFFC007FFFE000
0000003FFFF801FFFFFC00
0000007FFFF807FFFFFE00
0000007FFFF00FFFFFFF00
000000FFFFF03FFFFFFFC0
000000FFFFE07FFFFFFFC0
000001FFFFE07FFFFFFFE0
000001FFFFC0FFFFFFFFF0
000003FFFFC1FFFFFFFFF0
000003FFFF81FFF803FFF8
000007FFFF81FFE0007FF8
000007FFFF03FF80001FFC
00000FFFFF03FF00000FFC
00000FFFFE03FE000007FC
00001FFFFE07FE000007FC
00001FFFFC07FE000007FE
00001FFFFC07FC000003FE
00003FFFF807FC000003FE
00003FFFF807FC000003FE
00007FFFF007FC000003FE
00007FFFF007FC000003FE
0000FFFFE007FC000003FE
0000FFFFE007FC000003FE
0001FFFFC007FE000007FE
0001FFFFC007FE000007FE
0003FFFF8003FE000007FC
0003FFFF8003FF00000FFC
0007FFFF0003FF80001FFC
0007FFFF0001FFE0007FFC
000FFFFE0001FFF801FFF8
000FFFFE0001FFFFFFFFF8
001FFFFC0000FFFFFFFFF0
001FFFFC00007FFFFFFFE0
003FFFF800003FFFFFFFE0
003FFFF800003FFFFFFFC0
007FFFF000000FFFFFFF80
007FFFF0000007FFFFFE00
00FFFFE0000001FFFFFC00
00FFFFE00000007FFFE000
01FFFFC00000000FFF0000
01FFFFC000000000000000
03FFFF8000000000000000
03FFFF8000000000000000
03FFFF0000000000000000
07FFFF0000000000000000
07FFFE0000000000000000
0FFFE00000000000000000
0FFC000000000000000000
1F80000000000000000000
1800000000000000000000
ENDCHAR
STARTCHAR 0026
ENCODING 38
SWIDTH 656 0
DWIDTH 105 0
BBX 88 123 5 11
BITMAP
000000003FFE0000000000
00000003FFFFE000000000
0000001FFFFFFC00000000
0000007FFFFFFF00000000
000001FFFFFFFFC0000000
000003FFFFFFFFE0000000
00000FFFFFFFFFF8000000
00001FFFFFFFFFFC000000
00003FFFFFFFFFFE000000
0000FFFFFFFFFFFF000000
0001FFFFFFFFFFFF800000
0003FFFFFFFFFFFFC00000
0007FFFFFFFFFFFFE00000
000FFFFFFFFFFFFFF00000
000FFFFFFFFFFFFFF80000
001FFFFFFFFFFFFFFC0000
003FFFFFFFFFFFFFFE0000
003FFFFFFFFFFFFFFE0000
007FFFFFFFFFFFFFFF0000
00FFFFFFF00FFFFFFF8000
00FFFFFF8003FFFFFF8000
01FFFFFF0000FFFFFF8000
01FFFFFC00007FFFFF8000
01FFFFF800001FFFFF8000
03FFFFF800001FFFFF0000
03FFFFF000000FFFFE0000
03FFFFE0000007FFFC0000
03FFFFE0000003FFF80000
07FFFFC0000003FFF00000
07FFFFC0000003FFE00000
07FFFF80000001FFC00000
07FFFF80000001FF800000
07FFFF80000000FF000000
07FFFF80000000FE000000
07FFFF000000007C000000
07FFFF0000000078000000
07FFFF0000000010000000
07FFFF0000000000000000
07FFFF0000000000000000
07FFFF0000000000000000
03FFFF0000000000000000
03FFFF0000000000000000
03FFFF0000000000000000
03FFFF0000000000000000
01FFFF8000000000000000
01FFFF8000000000000000
01FFFF8000000000000000
00FFFF8000000000000000
00FFFFC000000000000000
00FFFFC000000000000000
007FFFE000000000000000
007FFFF000000000000000
003FFFF000000000000000
001FFFF800000000000000
000FFFFC00000000000000
000FFFFE00000000000000
003FFFFF80000000000000
007FFFFFE0000000000000
00FFFFFFFC000000000000
01FFFFFFFF000000000000
03FFFFFFFF000000000000
07FFFFFFFF000000000000
07FFFFFF80000000000000
0FFFFFFE00000000000000
1FFFFFF800000000000000
1FFFFFE000000000000000
1FFFFFC000000000000000
3FFFFF8000000000000000
3FFFFF0000000000000000
3FFFFE001FFFFFFFFFF800
7FFFFE000FFFFFFFFFFC00
7FFFFC000FFFFFFFFFFE00
7FFFFC0007FFFFFFFFFF00
7FFFF80003FFFFFFFFFF80
FFFFF80001FFFFFFFFFFC0
FFFFF00000FFFFFFFFFFE0
FFFFF00000FFFFFFFFFFF0
FFFFF000007FFFFFFFFFF8
FFFFE000003FFFFFFFFFFC
FFFFE000001FFFFFFFFFFE
FFFFE000000FFFFFFFFFFF
FFFFE0000003FFFFF00000
FFFFE000000007FFF00000
FFFFE000000007FFF00000
FFFFE000000007FFF00000
FFFFE000000007FFF00000
FFFFE000000007FFF00000
FFFFE000000007FFF00000
7FFFF000000007FFF00000
7FFFF000000007FFF00000
7FFFF000000007FFF00000
7FFFF800000007FFF00000
7FFFF800000007FFF00000
3FFFF800000007FFF00000
3FFFFC00000007FFF00000
3FFFFE00000007FFF00000
3FFFFE00000007FFF00000
1FFFFF00000007FFF00000
1FFFFF80000007FFF00000
1FFFFFC0000007FFF00000
0FFFFFE0000007FFF00000
0FFFFFF0000007FFF00000
07FFFFFC000007FFF00000
07FFFFFE00000FFFF00000
07FFFFFFC03FFFFFF00000
03FFFFFFFFFFFFFFF00000
03FFFFFFFFFFFFFFF80000
01FFFFFFFFFFFFFFFC0000
01FFFFFFFFFFFFFFFE0000
00FFFFFFFFFFFFFFFF0000
00FFFFFFFFFFFFFFFF8000
007FFFFFFFFFFFFFFFC000
007FFFFFFFFFFFFFFFE000
003FFFFFFFFFFFFFFFF000
001FFFFFFFFFFFFFFFF800
001FFFFFFFFFFFFFFFFC00
000FFFFFFFFFFFFFFFFE00
0007FFFFFFFFFFFFFFFF00
0003FFFFFFFFFFFFFFFF80
0001FFFFFFFFFFFFFFFFC0
00007FFFFFFFFFFFFFFFE0
00003FFFFFFFFFFFFFFFF0
000007FFFFFFFFFFFFFFF8
ENDCHAR
STARTCHAR 0027
ENCODING 39
SWIDTH 206 0
DWIDTH 33 0
BBX 18 40 17 116
BITMAP
FFFFC0
FFFFC0
FFFFC0
FFFFC0
FFFFC0
FFFFC0
FFFFC0
FFFFC0
FFFFC0
FFFFC0
FFFFC0
FFFFC0
FFFFC0
FFFFC0
FFFFC0
FFFFC0
FFFFC0
FFFFC0
FFFFC0
FFFFC0
FFFFC0
FFFFC0
FFFFC0
FFFFC0
FFFFC0
FFFFC0
FFFFC0
FFFFC0
FFFFC0
FFFFC0
FFFFC0
FFFFC0
FFFF80
FFFE00
FFF800
FFE000
FF0000
FC0000
F00000
800000
ENDCHAR
STARTCHAR 0028
ENCODING 40
SWIDTH 400 0
DWIDTH 64 0
BBX 48 138 8 -8
BITMAP
0000007FFFFF
000001FFFFFE
000007FFFFF8
00000FFFFFF0
00001FFFFFE0
00003FFFFF80
00003FFFFF00
00007FFFFE00
0000FFFFFC00
0001FFFFFC00
0003FFFFF800
0003FFFFF000
0007FFFFE000
000FFFFFE000
000FFFFFC000
001FFFFF8000
001FFFFF8000
003FFFFF0000
003FFFFE0000
007FFFFE0000
007FFFFC0000
00FFFFFC0000
00FFFFFC0000
01FFFFF80000
01FFFFF80000
01FFFFF00000
03FFFFF00000
03FFFFF00000
03FFFFE00000
07FFFFE00000
07FFFFC00000
07FFFFC00000
0FFFFFC00000
0FFFFFC00000
0FFFFF800000
0FFFFF800000
1FFFFF800000
1FFFFF800000
1FFFFF000000
1FFFFF000000
1FFFFF000000
3FFFFF000000
3FFFFE000000
3FFFFE000000
3FFFFE000000
3FFFFE000000
3FFFFE000000
7FFFFE000000
7FFFFE000000
7FFFFC000000
7FFFFC000000
7FFFFC000000
7FFFFC000000
7FFFFC000000
7FFFFC000000
7FFFFC000000
7FFFFC000000
FFFFFC000000
FFFFFC000000
FFFFF8000000
FFFFF8000000
FFFFF8000000
FFFFF8000000
FFFFF8000000
FFFFF8000000
FFFFF8000000
FFFFF8000000
FFFFF8000000
FFFFF8000000
FFFFF8000000
FFFFF8000000
FFFFF8000000
FFFFF8000000
FFFFF8000000
FFFFF8000000
FFFFF8000000
FFFFF8000000
FFFFF8000000
FFFFF8000000
FFFFF8000000
FFFFFC000000
7FFFFC000000
7FFFFC000000
7FFFFC000000
7FFFFC000000
7FFFFC000000
7FFFFC000000
7FFFFC000000
7FFFFC000000
7FFFFC000000
7FFFFE000000
7FFFFE000000
3FFFFE000000
3FFFFE000000
3FFFFE000000
3FFFFE000000
3FFFFF000000
3FFFFF000000
1FFFFF000000
1FFFFF000000
1FFFFF800000
1FFFFF800000
1FFFFF800000
0FFFFF800000
0FFFFFC00000
0FFFFFC00000
0FFFFFC00000
07FFFFC00000
07FFFFE00000
07FFFFE00000
03FFFFE00000
03FFFFF00000
03FFFFF00000
01FFFFF80000
01FFFFF80000
01FFFFF80000
00FFFFFC0000
00FFFFFC0000
007FFFFE0000
007FFFFE0000
003FFFFF0000
003FFFFF0000
001FFFFF8000
001FFFFFC000
000FFFFFC000
000FFFFFE000
0007FFFFF000
0003FFFFF000
0003FFFFF800
0001FFFFFC00
0000FFFFFE00
00007FFFFF00
00003FFFFF80
00003FFFFFC0
00001FFFFFE0
000007FFFFF0
000003FFFFFC
000001FFFFFE
ENDCHAR
STARTCHAR 0029
ENCODING 41
SWIDTH 387 0
DWIDTH 62 0
BBX 48 139 7 -6
BITMAP
FFFFFE000000
7FFFFF800000
1FFFFFE00000
0FFFFFF00000
07FFFFF80000
03FFFFFC0000
01FFFFFE0000
00FFFFFE0000
007FFFFF0000
003FFFFF8000
001FFFFF8000
001FFFFFC000
000FFFFFC000
0007FFFFE000
0007FFFFF000
0003FFFFF000
0001FFFFF800
0001FFFFF800
0000FFFFFC00
0000FFFFFC00
00007FFFFE00
00007FFFFE00
00003FFFFE00
00003FFFFF00
00003FFFFF00
00001FFFFF80
00001FFFFF80
00000FFFFFC0
00000FFFFFC0
00000FFFFFC0
000007FFFFE0
000007FFFFE0
000007FFFFE0
000007FFFFF0
000003FFFFF0
000003FFFFF0
000003FFFFF0
000003FFFFF0
000001FFFFF8
000001FFFFF8
000001FFFFF8
000001FFFFF8
000001FFFFF8
000000FFFFFC
000000FFFFFC
000000FFFFFC
000000FFFFFC
000000FFFFFC
000000FFFFFC
0000007FFFFC
0000007FFFFE
0000007FFFFE
0000007FFFFE
0000007FFFFE
0000007FFFFE
0000007FFFFE
0000007FFFFE
0000007FFFFE
0000007FFFFE
0000007FFFFE
0000007FFFFE
0000003FFFFE
0000003FFFFF
0000003FFFFF
0000003FFFFF
0000003FFFFF
0000003FFFFF
0000003FFFFF
0000003FFFFF
0000003FFFFF
0000003FFFFF
0000003FFFFF
0000003FFFFE
0000003FFFFE
0000003FFFFE
0000003FFFFE
0000003FFFFE
0000003FFFFE
0000003FFFFE
0000003FFFFE
0000007FFFFE
0000007FFFFE
0000007FFFFE
0000007FFFFE
0000007FFFFE
0000007FFFFE
0000007FFFFC
0000007FFFFC
0000007FFFFC
0000007FFFFC
0000007FFFFC
000000FFFFFC
000000FFFFF8
000000FFFFF8
000000FFFFF8
000000FFFFF8
000000FFFFF8
000000FFFFF0
000001FFFFF0
000001FFFFF0
000001FFFFF0
000001FFFFE0
000001FFFFE0
000003FFFFE0
000003FFFFE0
000003FFFFC0
000003FFFFC0
000007FFFFC0
000007FFFFC0
000007FFFF80
00000FFFFF80
00000FFFFF80
00000FFFFF00
00001FFFFF00
00001FFFFF00
00003FFFFE00
00003FFFFE00
00003FFFFE00
00007FFFFC00
00007FFFFC00
0000FFFFFC00
0000FFFFF800
0001FFFFF800
0003FFFFF000
0003FFFFF000
0007FFFFF000
0007FFFFE000
000FFFFFE000
001FFFFFC000
003FFFFFC000
007FFFFF8000
00FFFFFF0000
01FFFFFF0000
03FFFFFE0000
07FFFFFC0000
0FFFFFF80000
1FFFFFF00000
7FFFFFE00000
FFFFFF800000
ENDCHAR
STARTCHAR 002A
ENCODING 42
SWIDTH 600 0
DWIDTH 96 0
BBX 76 88 7 35
BITMAP
000000003FE000000000
000000003FE000000000
000000003FE000000000
000000003FE000000000
000000003FE000000000
000000003FE000000000
000000003FE000000000
000000003FE000000000
000000003FE000000000
000000003FE000000000
000000003FE000000000
000000003FE000000000
000000003FE000000000
000000003FE000000000
000000003FE000000000
000000003FE000000180
060000003FE000000780
0F0000003FE000000FC0
0FC000003FE000001FE0
0FE000003FE000007FF0
0FF800003FE00000FFF0
1FFC00003FE00003FFF0
1FFF00003FE00007FFC0
07FF80003FE0001FFF00
03FFE0003FE0003FFE00
01FFF0003FE0007FF800
007FFC003FE001FFF000
003FFE003FE003FFC000
000FFF003FE00FFF8000
0007FFC03FE01FFE0000
0003FFE03FE07FFC0000
0000FFF83FE0FFF00000
00007FFC3FE1FFE00000
00001FFF3FE7FF800000
00000FFFBFEFFF000000
000003FFFFFFFC000000
000001FFFFFFF8000000
0000007FFFFFE0000000
0000003FFFFFC0000000
0000000FFFFF00000000
00000007FFFE00000000
00000003FFFC00000000
00000007FFFF00000000
0000001FFFFFC0000000
0000003FFFFFF0000000
000000FFFFFFFC000000
000003FFFFFFFF000000
000007FFFFFFFF800000
00001FFFDFDFFFE00000
00007FFF1FC7FFF80000
0000FFFE1FC3FFFE0000
0003FFF81FC0FFFF8000
000FFFE01FC03FFFC000
001FFFC01FC01FFFF000
007FFF001FC007FFFC00
00FFFC001FC001FFFF00
03FFF8001FC0007FFFC0
07FFE0001FC0003FFFF0
1FFF80001FC0000FFFF0
3FFF00001FC00003FFF0
7FFC00001FC00001FFF0
FFF000001FC000007FE0
7FE000001FC000001FE0
3F8000001FC000000FE0
3E0000001FC0000003C0
1C0000001FC0000000C0
100000001FC000000000
000000001FC000000000
000000001FC000000000
000000001FC000000000
000000001FC000000000
000000001FC000000000
000000001FC000000000
000000001FC000000000
000000001FC000000000
000000001FC000000000
000000001FC000000000
000000001FC000000000
000000001FC000000000
000000001FC000000000
000000001FC000000000
000000001FC000000000
000000001FC000000000
000000001F8000000000
000000001F0000000000
000000001C0000000000
00000000180000000000
00000000100000000000
ENDCHAR
STARTCHAR 002B
ENCODING 43
SWIDTH 575 0
DWIDTH 92 0
BBX 77 56 3 31
BITMAP
0000003FFFFC00000000
0000003FFFFC00000000
0000001FFFFC00000000
0000001FFFFC00000000
0000001FFFFC00000000
0000001FFFFC00000000
0000001FFFFC00000000
0000001FFFFC00000000
0000001FFFFC00000000
0000001FFFFC00000000
0000001FFFFC00000060
0000001FFFFC000000F0
0000001FFFFC000001F8
0000001FFFFC000003F0
0000001FFFFC00000FE0
0000001FFFFC00003FC0
0000003FFFFC0000FF80
0000003FFFFC0007FF00
0000003FFFFFF7FFFE00
000001FFFFFFFFFFFC00
000007FFFFFFFFFFF800
00000FFFFFFFFFFFF000
00001FFFFFFFFFFFE000
00003FFFFFFFFFFFC000
0000FFFFFFFFFFFF8000
0001FFFFFFFFFFFF0000
0003FFFFFFFFFFFF0000
0007FFFFFFFFFFFE0000
000FFFFFFFFFFFFC0000
001FFFFFFFFFFFF80000
003FFFFFFFFFFFF00000
007FFFFFFFFFFFE00000
00FFFFFFFFFFFFC00000
01FFFFFFFFFFFF800000
03FFFFFFFFFFFF000000
07FFFFFFFFFFFC000000
0FFFFFFFFFFFF8000000
1FFFE03FFFFE00000000
3FFC001FFFFE00000000
7FE0001FFFFE00000000
FF80001FFFFE00000000
7E00001FFFFE00000000
3800001FFFFE00000000
0000001FFFFE00000000
0000001FFFFE00000000
0000001FFFFE00000000
0000001FFFFE00000000
0000001FFFFE00000000
0000001FFFFE00000000
0000001FFFFE00000000
0000001FFFFE00000000
0000001FFFFE00000000
0000001FFFFE00000000
0000001FFFFE00000000
0000001FFFFE00000000
0000001FFFFE00000000
ENDCHAR
STARTCHAR 002C
ENCODING 44
SWIDTH 250 0
DWIDTH 40 0
BBX 17 43 7 -22
BITMAP
FFFF80
FFFF80
FFFF80
FFFF80
FFFF80
FFFF80
FFFF80
FFFF80
FFFF80
FFFF80
FFFF80
FFFF80
FFFF80
FFFF80
FFFF80
FFFF80
FFFF80
FFFF80
FFFF80
FFFF80
FFFF80
FFFF80
FFFF80
FFFF80
FFFF80
FFFF80
FFFF80
FFFF80
FFFF80
FFFF80
FFFF80
FFFF80
FFFF80
FFFF80
FFFF80
FFFF80
FFFF80
FFFF80
FFFF80
FFFC00
FFC000
FC0000
C00000
ENDCHAR
STARTCHAR 002D
ENCODING 45
SWIDTH 568 0
DWIDTH 91 0
BBX 75 35 4 24
BITMAP
00000000000000000040
000000000000000000E0
000000000000000001E0
000000000000000007E0
00000000000000000FC0
00000000000000003F80
0000000000000000FF00
0000000000000003FE00
000000000000001FFE00
000007FFFFFFFFFFFC00
00000FFFFFFFFFFFF800
00001FFFFFFFFFFFF000
00003FFFFFFFFFFFE000
00007FFFFFFFFFFFC000
0000FFFFFFFFFFFF8000
0001FFFFFFFFFFFF0000
0003FFFFFFFFFFFE0000
0007FFFFFFFFFFFC0000
000FFFFFFFFFFFF80000
001FFFFFFFFFFFF00000
003FFFFFFFFFFFE00000
007FFFFFFFFFFFC00000
00FFFFFFFFFFFF800000
01FFFFFFFFFFFF000000
03FFFFFFFFFFFE000000
07FFFFFFFFFFFC000000
0FFFFFFFFFFFF8000000
1FFFFFFFFFFFF0000000
3FFE0000000000000000
7FF00000000000000000
7FC00000000000000000
FF000000000000000000
FC000000000000000000
70000000000000000000
20000000000000000000
ENDCHAR
STARTCHAR 002E
ENCODING 46
SWIDTH 306 0
DWIDTH 49 0
BBX 19 28 15 0
BITMAP
01F000
07FC00
0FFE00
1FFF00
3FFF00
3FFF80
7FFF80
7FFFC0
7FFFC0
FFFFC0
FFFFE0
FFFFE0
FFFFE0
FFFFE0
FFFFE0
FFFFE0
FFFFE0
FFFFE0
FFFFC0
7FFFC0
7FFFC0
7FFF80
3FFF80
3FFF00
1FFF00
0FFE00
07FC00
01F000
ENDCHAR
STARTCHAR 002F
ENCODING 47
SWIDTH 562 0
DWIDTH 90 0
BBX 79 127 9 -4
BITMAP
000000000000007FFFFE
000000000000007FFFFE
00000000000000FFFFFC
00000000000000FFFFFC
00000000000001FFFFF8
00000000000001FFFFF8
00000000000003FFFFF0
00000000000003FFFFF0
00000000000007FFFFE0
00000000000007FFFFE0
0000000000000FFFFFC0
0000000000000FFFFFC0
0000000000000FFFFF80
0000000000001FFFFF80
0000000000001FFFFF00
0000000000003FFFFF00
0000000000003FFFFF00
0000000000007FFFFE00
0000000000007FFFFE00
000000000000FFFFFC00
000000000000FFFFFC00
000000000001FFFFF800
000000000001FFFFF800
000000000001FFFFF000
000000000003FFFFF000
000000000003FFFFE000
000000000007FFFFE000
000000000007FFFFC000
00000000000FFFFFC000
00000000000FFFFFC000
00000000001FFFFF8000
00000000001FFFFF8000
00000000003FFFFF0000
00000000003FFFFF0000
00000000007FFFFE0000
00000000007FFFFE0000
00000000007FFFFC0000
0000000000FFFFFC0000
0000000000FFFFF80000
0000000001FFFFF80000
0000000001FFFFF00000
0000000003FFFFF00000
0000000003FFFFE00000
0000000007FFFFE00000
0000000007FFFFE00000
000000000FFFFFC00000
000000000FFFFFC00000
000000000FFFFF800000
000000001FFFFF800000
000000001FFFFF000000
000000003FFFFF000000
000000003FFFFE000000
000000007FFFFE000000
000000007FFFFC000000
00000000FFFFFC000000
00000000FFFFF8000000
00000001FFFFF8000000
00000001FFFFF0000000
00000001FFFFF0000000
00000003FFFFF0000000
00000003FFFFE0000000
00000007FFFFE0000000
00000007FFFFC0000000
0000000FFFFFC0000000
0000000FFFFF80000000
0000001FFFFF80000000
0000001FFFFF00000000
0000003FFFFF00000000
0000003FFFFE00000000
0000003FFFFE00000000
0000007FFFFC00000000
0000007FFFFC00000000
000000FFFFFC00000000
000000FFFFF800000000
000001FFFFF800000000
000001FFFFF000000000
000003FFFFF000000000
000003FFFFE000000000
000007FFFFE000000000
000007FFFFC000000000
000007FFFFC000000000
00000FFFFF8000000000
00000FFFFF8000000000
00001FFFFF0000000000
00001FFFFF0000000000
00003FFFFE0000000000
00003FFFFE0000000000
00007FFFFE0000000000
00007FFFFC0000000000
0000FFFFFC0000000000
0000FFFFF80000000000
0001FFFFF80000000000
0001FFFFF00000000000
0001FFFFF00000000000
0003FFFFE00000000000
0003FFFFE00000000000
0007FFFFC00000000000
0007FFFFC00000000000
000FFFFF800000000000
000FFFFF800000000000
001FFFFF800000000000
001FFFFF000000000000
003FFFFF000000000000
003FFFFE000000000000
003FFFFE000000000000
007FFFFC000000000000
007FFFFC000000000000
00FFFFF8000000000000
00FFFFF8000000000000
01FFFFF0000000000000
01FFFFF0000000000000
03FFFFE0000000000000
03FFFFE0000000000000
07FFFFC0000000000000
07FFFFC0000000000000
07FFFFC0000000000000
0FFFFF80000000000000
0FFFFF80000000000000
1FFFFF00000000000000
1FFFFF00000000000000
3FFFFE00000000000000
3FFFFE00000000000000
7FFFFC00000000000000
7FFFE000000000000000
FFFC0000000000000000
FF000000000000000000
C0000000000000000000
ENDCHAR
STARTCHAR 0030
ENCODING 48
SWIDTH 718 0
DWIDTH 115 0
BBX 92 123 8 0
BITMAP
0000000001FFFC0000000000
000000003FFFFFF000000000
00000003FFFFFFFE00000000
0000000FFFFFFFFFC0000000
0000007FFFFFFFFFF8000000
000001FFFFFFFFFFFE000000
000007FFFFFFFFFFFF800000
00001FFFFFFFFFFFFFE00000
00003FFFFFFFFFFFFFF00000
0000FFFFFFFFFFFFFFF80000
0001FFFFFFFFFFFFFFFE0000
0007FFFFFFFFFFFFFFFF0000
000FFFFFFFFFFFFFFFFF8000
001FFFFFFFFFFFFFFFFFC000
003FFFFFFFFFFFFFFFFFE000
007FFFFFFFFFFFFFFFFFF000
00FFFFFFFFFFFFFFFFFFF800
01FFFFFFFFFFFFFFFFFFFC00
03FFFFFFFFFFFFFFFFFFFC00
03FFFFFFFF0007FFFFFFFE00
07FFFFFFF000007FFFFFFF00
0FFFFFFF8000000FFFFFFF00
0FFFFFFF00000003FFFFFF80
1FFFFFFC00000001FFFFFF80
1FFFFFF800000000FFFFFFC0
3FFFFFF0000000007FFFFFC0
3FFFFFE0000000003FFFFFC0
3FFFFFC0000000001FFFFFE0
7FFFFF80000000000FFFFFE0
7FFFFF80000000000FFFFFE0
7FFFFF000000000007FFFFE0
7FFFFF000000000007FFFFF0
7FFFFE000000000007FFFFF0
FFFFFE000000000003FFFFF0
FFFFFE000000000003FFFFF0
FFFFFC000000000003FFFFF0
FFFFFC000000000003FFFFF0
FFFFFC000000000003FFFFF0
FFFFFC000000000003FFFFF0
FFFFF8000000000001FFFFF0
FFFFF8000000000001FFFFF0
FFFFF8000000000001FFFFF0
FFFFF8000000000001FFFFF0
FFFFF8000000000001FFFFF0
FFFFF8000000000001FFFFF0
FFFFF8000000000001FFFFF0
FFFFF8000000000001FFFFF0
FFFFF8000000000001FFFFF0
FFFFF8000000000001FFFFF0
FFFFF8000000000001FFFFF0
FFFFF8000000000001FFFFF0
FFFFF8000000000001FFFFF0
FFFFF8000000000001FFFFF0
FFFFF8000000000001FFFFF0
FFFFF8000000000001FFFFF0
FFFFF8000000000001FFFFF0
FFFFF8000000000001FFFFF0
FFFFF8000000000001FFFFF0
FFFFF8000000000001FFFFF0
FFFFF8000000000001FFFFF0
FFFFF8000000000001FFFFF0
FFFFF8000000000001FFFFF0
FFFFF8000000000001FFFFF0
FFFFF8000000000001FFFFF0
FFFFF8000000000001FFFFF0
FFFFF8000000000001FFFFF0
FFFFF8000000000001FFFFF0
FFFFF8000000000001FFFFF0
FFFFF8000000000001FFFFF0
FFFFF8000000000001FFFFF0
FFFFF8000000000001FFFFF0
FFFFF8000000000001FFFFF0
FFFFF8000000000001FFFFF0
FFFFF8000000000001FFFFF0
FFFFF8000000000001FFFFF0
FFFFF8000000000001FFFFF0
FFFFF8000000000001FFFFF0
FFFFF8000000000001FFFFF0
FFFFF8000000000001FFFFF0
FFFFF8000000000001FFFFF0
FFFFF8000000000001FFFFF0
FFFFF8000000000001FFFFF0
FFFFF8000000000001FFFFF0
FFFFFC000000000001FFFFF0
FFFFFC000000000003FFFFF0
FFFFFC000000000003FFFFF0
FFFFFC000000000003FFFFF0
FFFFFC000000000003FFFFF0
FFFFFE000000000007FFFFF0
7FFFFE000000000007FFFFF0
7FFFFE000000000007FFFFE0
7FFFFF00000000000FFFFFE0
7FFFFF00000000000FFFFFE0
7FFFFF80000000001FFFFFE0
7FFFFF80000000001FFFFFC0
3FFFFFC0000000003FFFFFC0
3FFFFFE0000000007FFFFFC0
3FFFFFF000000000FFFFFF80
1FFFFFF800000001FFFFFF80
1FFFFFFC00000003FFFFFF80
0FFFFFFF00000007FFFFFF00
0FFFFFFFC000001FFFFFFF00
07FFFFFFF000007FFFFFFE00
03FFFFFFFF0007FFFFFFFC00
03FFFFFFFFFFFFFFFFFFFC00
01FFFFFFFFFFFFFFFFFFF800
00FFFFFFFFFFFFFFFFFFF000
00FFFFFFFFFFFFFFFFFFE000
007FFFFFFFFFFFFFFFFFE000
003FFFFFFFFFFFFFFFFFC000
001FFFFFFFFFFFFFFFFF8000
000FFFFFFFFFFFFFFFFE0000
0003FFFFFFFFFFFFFFFC0000
0001FFFFFFFFFFFFFFF80000
0000FFFFFFFFFFFFFFE00000
00003FFFFFFFFFFFFFC00000
00000FFFFFFFFFFFFF000000
000003FFFFFFFFFFFC000000
000000FFFFFFFFFFF0000000
0000003FFFFFFFFFC0000000
00000007FFFFFFFE00000000
000000007FFFFFE000000000
0000000001FFFC0000000000
ENDCHAR
STARTCHAR 0031
ENCODING 49
SWIDTH 300 0
DWIDTH 48 0
BBX 35 134 3 -4
BITMAP
0000000020
0000000060
00000000E0
00000001E0
00000003E0
00000007E0
0000000FE0
0000001FE0
0000003FE0
0000007FE0
000000FFE0
000001FFE0
000003FFE0
000007FFE0
00000FFFE0
00001FFFE0
00003FFFE0
00007FFFE0
0000FFFFE0
0001FFFFE0
0003FFFFE0
0007FFFFE0
000FFFFFE0
001FFFFFE0
003FFFFFE0
007FFFFFE0
00FFFFFFE0
01FFFFFFE0
03FFFFFFE0
07FFFFFFE0
0FFFFFFFE0
1FFFFFFFE0
3FFFFFFFE0
7FFFFFFFE0
FFFFFFFFE0
0003FFFFE0
0003FFFFE0
0003FFFFE0
0003FFFFE0
0003FFFFE0
0003FFFFE0
0003FFFFE0
0003FFFFE0
0003FFFFE0
0003FFFFE0
0003FFFFE0
0003FFFFE0
0003FFFFE0
0003FFFFE0
0003FFFFE0
0003FFFFE0
0003FFFFE0
0003FFFFE0
0003FFFFE0
0003FFFFE0
0003FFFFE0
0003FFFFE0
0003FFFFE0
0003FFFFE0
0003FFFFE0
0003FFFFE0
0003FFFFE0
0003FFFFE0
0003FFFFE0
0003FFFFE0
0003FFFFE0
0003FFFFE0
0003FFFFE0
0003FFFFE0
0003FFFFE0
0003FFFFE0
0003FFFFE0
0003FFFFE0
0003FFFFE0
0003FFFFE0
0003FFFFE0
0003FFFFE0
0003FFFFE0
0003FFFFE0
0003FFFFE0
0003FFFFE0
0003FFFFE0
0003FFFFE0
0003FFFFE0
0003FFFFE0
0003FFFFE0
0003FFFFE0
0003FFFFE0
0003FFFFE0
0003FFFFE0
0003FFFFE0
0003FFFFE0
0003FFFFE0
0003FFFFE0
0003FFFFE0
0003FFFFE0
0003FFFFE0
0003FFFFE0
0003FFFFE0
0003FFFFE0
0003FFFFE0
0003FFFFE0
0003FFFFE0
0003FFFFE0
0003FFFFE0
0003FFFFE0
0003FFFFE0
0003FFFFE0
0003FFFFE0
0003FFFFE0
0003FFFFE0
0003FFFFE0
0003FFFFE0
0003FFFFE0
0003FFFFE0
0003FFFFE0
0003FFFFE0
0003FFFFE0
0003FFFFE0
0003FFFFE0
0003FFFFE0
0003FFFFE0
0003FFFFE0
0003FFFFE0
0003FFFFE0
0003FFFFE0
0003FFFFE0
0003FFFFE0
0003FFFFE0
0003FFFF80
0003FFF800
0003FF8000
0003F00000
0003000000
ENDCHAR
STARTCHAR 0032
ENCODING 50
SWIDTH 681 0
DWIDTH 109 0
BBX 104 123 5 0
BITMAP
00000000000FFFE00000000000
0000000003FFFFFF8000000000
000000001FFFFFFFF000000000
00000000FFFFFFFFFE00000000
00000003FFFFFFFFFF80000000
0000000FFFFFFFFFFFE0000000
0000003FFFFFFFFFFFF8000000
000000FFFFFFFFFFFFFE000000
000001FFFFFFFFFFFFFF000000
000003FFFFFFFFFFFFFFC00000
00000FFFFFFFFFFFFFFFE00000
00001FFFFFFFFFFFFFFFF00000
00003FFFFFFFFFFFFFFFF80000
00007FFFFFFFFFFFFFFFFC0000
0000FFFFFFFFFFFFFFFFFE0000
0001FFFFFFFFFFFFFFFFFF0000
0003FFFFFFFFFFFFFFFFFF8000
0003FFFFFFFFFFFFFFFFFFC000
0007FFFFFFFFFFFFFFFFFFE000
000FFFFFFFFE001FFFFFFFE000
000FFFFFFFE00000FFFFFFF000
000FFFFFFF8000001FFFFFF000
0003FFFFFE00000007FFFFF800
0001FFFFF800000003FFFFF800
0000FFFFF000000000FFFFFC00
00003FFFC0000000007FFFFC00
00001FFF80000000003FFFFC00
000007FF00000000001FFFFE00
000003FF00000000001FFFFE00
000001FE00000000000FFFFE00
0000007C00000000000FFFFE00
00000038000000000007FFFF00
00000018000000000007FFFF00
00000000000000000007FFFF00
00000000000000000007FFFF00
00000000000000000007FFFF00
00000000000000000007FFFF00
00000000000000000007FFFF00
00000000000000000007FFFF00
00000000000000000007FFFF00
00000000000000000007FFFF00
0000000000000000000FFFFF00
0000000000000000000FFFFF00
0000000000000000000FFFFF00
0000000000000000001FFFFE00
0000000000000000001FFFFE00
0000000000000000003FFFFE00
0000000000000000007FFFFE00
0000000000000000007FFFFC00
000000000000000000FFFFFC00
000000000000000001FFFFFC00
000000000000000003FFFFF800
000000000000000007FFFFF800
00000000000000000FFFFFF000
00000000000000001FFFFFF000
00000000000000003FFFFFE000
00000000000000007FFFFFC000
0000000000000000FFFFFFC000
0000000000000001FFFFFF8000
0000000000000003FFFFFF0000
0000000000000007FFFFFE0000
000000000000000FFFFFFE0000
000000000000001FFFFFFC0000
000000000000003FFFFFF80000
000000000000007FFFFFF00000
00000000000000FFFFFFE00000
00000000000001FFFFFFC00000
00000000000003FFFFFF800000
00000000000007FFFFFE000000
0000000000000FFFFFFC000000
0000000000001FFFFFF8000000
0000000000003FFFFFF0000000
0000000000007FFFFFE0000000
000000000000FFFFFFC0000000
000000000001FFFFFF80000000
000000000003FFFFFF00000000
000000000007FFFFFE00000000
00000000000FFFFFFC00000000
00000000001FFFFFF000000000
00000000003FFFFFE000000000
00000000007FFFFFC000000000
0000000000FFFFFF8000000000
0000000001FFFFFF0000000000
0000000003FFFFFE0000000000
0000000007FFFFFC0000000000
000000000FFFFFF80000000000
000000001FFFFFF00000000000
000000003FFFFFE00000000000
000000007FFFFFC00000000000
00000000FFFFFF800000000000
00000001FFFFFF000000000000
00000003FFFFFE000000000000
00000007FFFFFC000000000000
0000000FFFFFF8000000000000
0000001FFFFFF0000000000000
0000003FFFFFE0000000000000
0000007FFFFFC0000000000000
000000FFFFFF80000000000000
000001FFFFFF00000000000000
000003FFFFFF00000000000000
000007FFFFFE00000000000000
00000FFFFFFC00000000000000
00001FFFFFF800000000000000
00003FFFFFF000000000000000
00007FFFFFFFFFFFFFFFFFFFFF
0000FFFFFFFFFFFFFFFFFFFFFE
0001FFFFFFFFFFFFFFFFFFFFFC
0003FFFFFFFFFFFFFFFFFFFFF8
0007FFFFFFFFFFFFFFFFFFFFF0
0007FFFFFFFFFFFFFFFFFFFFE0
000FFFFFFFFFFFFFFFFFFFFFC0
001FFFFFFFFFFFFFFFFFFFFF80
003FFFFFFFFFFFFFFFFFFFFF00
007FFFFFFFFFFFFFFFFFFFFE00
00FFFFFFFFFFFFFFFFFFFFFC00
01FFFFFFFFFFFFFFFFFFFFF800
03FFFFFFFFFFFFFFFFFFFFF000
07FFFFFFFFFFFFFFFFFFFFE000
0FFFFFFFFFFFFFFFFFFFFFC000
1FFFFFFFFFFFFFFFFFFFFF8000
3FFFFFFFFFFFFFFFFFFFFF0000
7FFFFFFFFFFFFFFFFFFFFE0000
FFFFFFFFFFFFFFFFFFFFFC0000
ENDCHAR
STARTCHAR 0033
ENCODING 51
SWIDTH 656 0
DWIDTH 105 0
BBX 86 123 5 -1
BITMAP
0000000001FFE000000000
000000003FFFFF00000000
00000000FFFFFFE0000000
00000007FFFFFFF8000000
0000001FFFFFFFFE000000
0000003FFFFFFFFF000000
000000FFFFFFFFFFC00000
000001FFFFFFFFFFE00000
000003FFFFFFFFFFF00000
000007FFFFFFFFFFFC0000
00000FFFFFFFFFFFFE0000
00001FFFFFFFFFFFFF0000
00003FFFFFFFFFFFFF8000
00007FFFFFFFFFFFFF8000
0000FFFFFFFFFFFFFFC000
0000FFFFFFFFFFFFFFE000
0001FFFFFFFFFFFFFFF000
0003FFFFFFFFFFFFFFF000
0003FFFFFFFFFFFFFFF800
0007FFFFFF803FFFFFFC00
000FFFFFFC000FFFFFFC00
000FFFFFF00003FFFFFC00
001FFFFFE00001FFFFFE00
000FFFFFC00000FFFFFE00
0007FFFF8000007FFFFF00
0003FFFF0000003FFFFF00
0000FFFF0000001FFFFF00
00007FFE0000001FFFFF00
00003FFE0000000FFFFF80
00001FFC0000000FFFFF80
00000FFC00000007FFFF80
000007FC00000007FFFF80
000003F800000007FFFF80
000001F800000007FFFF80
000000F000000003FFFF80
0000006000000003FFFF80
0000000000000003FFFF80
0000000000000003FFFF80
0000000000000003FFFF80
0000000000000003FFFF00
0000000000000003FFFF00
0000000000000003FFFF00
0000000000000003FFFF00
0000000000000007FFFE00
0000000000000007FFFE00
0000000000000007FFFE00
000000000000000FFFFC00
000000000000000FFFFC00
000000000000001FFFFC00
000000000000001FFFF800
000000000000003FFFF800
000000000000007FFFF000
000000000000007FFFE000
00000000000000FFFFC000
00000000000003FFFFC000
00000000000007FFFFE000
0000000000001FFFFFF000
000000000000FFFFFFFC00
000000000003FFFFFFFE00
000000000003FFFFFFFE00
000000000003FFFFFFFF00
0000000000003FFFFFFF80
00000000000003FFFFFFC0
00000000000000FFFFFFC0
000000000000003FFFFFE0
000000000000001FFFFFE0
0000000000000007FFFFF0
0000000000000003FFFFF0
0000000000000001FFFFF0
0000000000000001FFFFF8
0000000000000000FFFFF8
00000000000000007FFFF8
00000000000000007FFFF8
00000000000000007FFFF8
00000000000000003FFFFC
00000000000000003FFFFC
00000000000000003FFFFC
00000000000000001FFFFC
00000000000000001FFFFC
00000000000000001FFFFC
00000000000000001FFFFC
00000000000000001FFFFC
00000000000000001FFFFC
00000000000000001FFFFC
00000000000000001FFFFC
00000000000000001FFFFC
00000000000000001FFFFC
00000000000000003FFFFC
00000000000000003FFFF8
00000000000000003FFFF8
00000000000000003FFFF8
00000000000000007FFFF8
00000000000000007FFFF8
0000000000000000FFFFF0
0000000000000000FFFFF0
0000000000000001FFFFF0
0000000000000001FFFFE0
0000000000000003FFFFE0
0000000000000007FFFFE0
000000000000000FFFFFE0
000000000000001FFFFFC0
000000000000003FFFFFC0
00000000000000FFFFFF80
00000000000003FFFFFF80
00003FFFFFFFFFFFFFFF80
00007FFFFFFFFFFFFFFF00
0000FFFFFFFFFFFFFFFF00
0001FFFFFFFFFFFFFFFE00
0003FFFFFFFFFFFFFFFE00
0007FFFFFFFFFFFFFFFC00
000FFFFFFFFFFFFFFFFC00
001FFFFFFFFFFFFFFFF800
003FFFFFFFFFFFFFFFF800
007FFFFFFFFFFFFFFFF000
00FFFFFFFFFFFFFFFFE000
01FFFFFFFFFFFFFFFFC000
03FFFFFFFFFFFFFFFFC000
07FFFFFFFFFFFFFFFF8000
0FFFFFFFFFFFFFFFFF0000
1FFFFFFFFFFFFFFFFC0000
3FFFFFFFFFFFFFFFF80000
7FFFFFFFFFFFFFFFE00000
FFFFFFFFFFFFFFFF000000
ENDCHAR
STARTCHAR 0034
ENCODING 52
SWIDTH 750 0
DWIDTH 120 0
BBX 101 127 6 -4
BITMAP
000000000000001FFFFFF00000
000000000000001FFFFFE00000
000000000000003FFFFFE00000
000000000000007FFFFFC00000
00000000000000FFFFFF800000
00000000000000FFFFFF000000
00000000000001FFFFFF000000
00000000000003FFFFFE000000
00000000000003FFFFFC000000
00000000000007FFFFF8000000
0000000000000FFFFFF8000000
0000000000001FFFFFF0000000
0000000000001FFFFFE0000000
0000000000003FFFFFC0000000
0000000000007FFFFFC0000000
0000000000007FFFFF80000000
000000000000FFFFFF08000000
000000000001FFFFFE18000000
000000000003FFFFFE38000000
000000000003FFFFFC38000000
000000000007FFFFF878000000
00000000000FFFFFF8F8000000
00000000001FFFFFF1F8000000
00000000001FFFFFE3F8000000
00000000003FFFFFC3F8000000
00000000007FFFFFC7F8000000
00000000007FFFFF8FF8000000
0000000000FFFFFF1FF8000000
0000000001FFFFFE3FF8000000
0000000003FFFFFE7FF8000000
0000000003FFFFFC7FF8000000
0000000007FFFFF8FFF8000000
000000000FFFFFF1FFF8000000
000000000FFFFFF3FFF8000000
000000001FFFFFE7FFF8000000
000000003FFFFFC7FFF8000000
000000007FFFFF8FFFF8000000
000000007FFFFF9FFFF8000000
00000000FFFFFF3FFFF8000000
00000001FFFFFE3FFFF8000000
00000001FFFFFE3FFFF8000000
00000003FFFFFC3FFFF8000000
00000007FFFFF83FFFF8000000
0000000FFFFFF03FFFF8000000
0000000FFFFFF03FFFF8000000
0000001FFFFFE03FFFF8000000
0000003FFFFFC03FFFF8000000
0000007FFFFF803FFFF8000000
0000007FFFFF803FFFF8000000
000000FFFFFF003FFFF8000000
000001FFFFFE003FFFF8000000
000001FFFFFC003FFFF8000000
000003FFFFFC003FFFF8000000
000007FFFFF8003FFFF8000000
00000FFFFFF0003FFFF8000000
00000FFFFFE0003FFFF8000000
00001FFFFFE0003FFFF8000000
00003FFFFFC0003FFFF8000000
00003FFFFF80003FFFF8000000
00007FFFFF80003FFFF8000000
0000FFFFFF00003FFFF8000000
0001FFFFFE00003FFFF8000000
0001FFFFFC00003FFFF8000000
0003FFFFFC00003FFFF8000000
0007FFFFF800003FFFF8000000
0007FFFFF000003FFFF8000000
000FFFFFE000003FFFF8000000
001FFFFFE000003FFFF8000000
003FFFFFC000003FFFF8000000
003FFFFF8000003FFFF8000000
007FFFFF0000003FFFF8000000
00FFFFFF0000003FFFF8000000
01FFFFFE0000003FFFF8000000
01FFFFFC0000003FFFF8000000
03FFFFF80000003FFFF8000000
07FFFFF80000003FFFF8000000
07FFFFF00000003FFFF8000000
0FFFFFE00000003FFFF8000000
1FFFFFE00000003FFFF8000000
3FFFFFC00000003FFFF8000000
3FFFFF800000003FFFF8000000
7FFFFF000000003FFFF8000000
FFFFFF000000003FFFF8000000
FFFFFFFFFFFFFFFFFFFFFFFFF8
7FFFFFFFFFFFFFFFFFFFFFFFF0
3FFFFFFFFFFFFFFFFFFFFFFFE0
1FFFFFFFFFFFFFFFFFFFFFFFC0
0FFFFFFFFFFFFFFFFFFFFFFF80
0FFFFFFFFFFFFFFFFFFFFFFF00
07FFFFFFFFFFFFFFFFFFFFFE00
03FFFFFFFFFFFFFFFFFFFFFC00
01FFFFFFFFFFFFFFFFFFFFF800
00FFFFFFFFFFFFFFFFFFFFF000
007FFFFFFFFFFFFFFFFFFFE000
007FFFFFFFFFFFFFFFFFFFC000
003FFFFFFFFFFFFFFFFFFF8000
001FFFFFFFFFFFFFFFFFFF0000
000FFFFFFFFFFFFFFFFFFE0000
0007FFFFFFFFFFFFFFFFFC0000
0003FFFFFFFFFFFFFFFFF80000
0001FFFFFFFFFFFFFFFFE00000
0000FFFFFFFFFFFFFFFC000000
000000000000003FFFFC000000
000000000000003FFFFC000000
000000000000003FFFFC000000
000000000000003FFFFC000000
000000000000003FFFF8000000
000000000000003FFFF8000000
000000000000003FFFF8000000
000000000000003FFFF8000000
000000000000003FFFF8000000
000000000000003FFFF8000000
000000000000003FFFF8000000
000000000000003FFFF8000000
000000000000003FFFF8000000
000000000000003FFFF8000000
000000000000003FFFF8000000
000000000000003FFFF8000000
000000000000003FFFF8000000
000000000000003FFFF8000000
000000000000003FFFF8000000
000000000000003FFFF8000000
000000000000003FFFF0000000
000000000000003FFF00000000
000000000000003FF000000000
000000000000003F0000000000
00000000000000300000000000
ENDCHAR
STARTCHAR 0035
ENCODING 53
SWIDTH 606 0
DWIDTH 97 0
BBX 96 123 1 -1
BITMAP
00007FFFFFFFFFFFFFFFFFFF
00007FFFFFFFFFFFFFFFFFFE
00007FFFFFFFFFFFFFFFFFFC
00007FFFFFFFFFFFFFFFFFF8
00007FFFFFFFFFFFFFFFFFF0
00007FFFFFFFFFFFFFFFFFE0
00007FFFFFFFFFFFFFFFFFC0
00007FFFFFFFFFFFFFFFFF80
00007FFFFFFFFFFFFFFFFF00
00007FFFFFFFFFFFFFFFFE00
00007FFFFFFFFFFFFFFFFC00
00007FFFFFFFFFFFFFFFF800
00007FFFFFFFFFFFFFFFF000
00007FFFFFFFFFFFFFFFE000
00007FFFFFFFFFFFFFFFC000
00007FFFFFFFFFFFFFFF8000
00007FFFFFFFFFFFFFFF0000
00007FFFFFFFFFFFFFFE0000
00007FFFFFFFFFFFFFFC0000
00007FFFF000000000000000
00007FFFF000000000000000
00007FFFF000000000000000
00007FFFF000000000000000
00007FFFF000000000000000
00007FFFF000000000000000
00007FFFF000000000000000
00007FFFF000000000000000
00007FFFF000000000000000
00007FFFF000000000000000
00007FFFF000000000000000
00007FFFF000000000000000
00007FFFF000000000000000
00007FFFF000000000000000
00007FFFF000000000000000
00007FFFF000000000000000
00007FFFF000000000000000
00007FFFFFFF000000000000
00007FFFFFFFFC0000000000
00007FFFFFFFFF8000000000
00007FFFFFFFFFF000000000
00007FFFFFFFFFFE00000000
00007FFFFFFFFFFF80000000
00007FFFFFFFFFFFE0000000
00007FFFFFFFFFFFF0000000
00007FFFFFFFFFFFFC000000
00007FFFFFFFFFFFFE000000
00007FFFFFFFFFFFFF800000
00007FFFFFFFFFFFFFC00000
00007FFFFFFFFFFFFFE00000
00007FFFFFFFFFFFFFF00000
00007FFFFFFFFFFFFFF80000
00007FFFFFFFFFFFFFFC0000
00007FFFFFFFFFFFFFFE0000
00007FFFFFFFFFFFFFFF0000
00007FFFFFFFFFFFFFFF8000
00000000000007FFFFFF8000
00000000000000FFFFFFC000
000000000000003FFFFFE000
000000000000001FFFFFE000
0000000000000007FFFFF000
0000000000000003FFFFF000
0000000000000001FFFFF800
0000000000000000FFFFF800
0000000000000000FFFFFC00
00000000000000007FFFFC00
00000000000000003FFFFE00
00000000000000003FFFFE00
00000000000000001FFFFE00
00000000000000001FFFFE00
00000000000000000FFFFF00
00000000000000000FFFFF00
000000000000000007FFFF00
000000000000000007FFFF00
000000000000000007FFFF00
000000000000000007FFFF80
000000000000000003FFFF80
000000000000000003FFFF80
000000000000000003FFFF80
000000000000000003FFFF80
000000000000000003FFFF80
000000000000000003FFFF80
000000000000000003FFFF80
000000000000000003FFFF80
000000000000000007FFFF80
000000000000000007FFFF00
000000000000000007FFFF00
000000000000000007FFFF00
00000000000000000FFFFF00
00000000000000000FFFFF00
00000000000000000FFFFF00
00000000000000000FFFFE00
00000000000000001FFFFE00
00000000000000001FFFFE00
00000000000000001FFFFC00
00000000000000003FFFFC00
00000000000000003FFFFC00
00000000000000007FFFFC00
00000000000000007FFFF800
0000000000000000FFFFF800
0000000000000000FFFFF000
0000000000000001FFFFF000
0000000000000003FFFFF000
0000000000000007FFFFE000
000000000000001FFFFFE000
00003FFFFFFFFFFFFFFFC000
00007FFFFFFFFFFFFFFFC000
0000FFFFFFFFFFFFFFFF8000
0001FFFFFFFFFFFFFFFF8000
0003FFFFFFFFFFFFFFFF0000
0007FFFFFFFFFFFFFFFF0000
000FFFFFFFFFFFFFFFFE0000
001FFFFFFFFFFFFFFFFE0000
003FFFFFFFFFFFFFFFFC0000
007FFFFFFFFFFFFFFFF80000
00FFFFFFFFFFFFFFFFF80000
01FFFFFFFFFFFFFFFFF00000
03FFFFFFFFFFFFFFFFE00000
07FFFFFFFFFFFFFFFFC00000
0FFFFFFFFFFFFFFFFF800000
1FFFFFFFFFFFFFFFFF000000
3FFFFFFFFFFFFFFFFC000000
7FFFFFFFFFFFFFFFF0000000
FFFFFFFFFFFFFFFFC0000000
ENDCHAR
STARTCHAR 0036
ENCODING 54
SWIDTH 681 0
DWIDTH 109 0
BBX 87 123 9 0
BITMAP
000000000003FFFFFC0000
000000000007FFFFF80000
00000000000FFFFFF00000
00000000001FFFFFE00000
00000000001FFFFFC00000
00000000003FFFFFC00000
00000000007FFFFF800000
0000000000FFFFFF000000
0000000000FFFFFE000000
0000000001FFFFFC000000
0000000003FFFFF8000000
0000000007FFFFF0000000
0000000007FFFFF0000000
000000000FFFFFE0000000
000000001FFFFFC0000000
000000001FFFFF80000000
000000003FFFFF80000000
000000007FFFFF00000000
00000000FFFFFE00000000
00000000FFFFFC00000000
00000001FFFFFC00000000
00000003FFFFF800000000
00000003FFFFF000000000
00000007FFFFE000000000
0000000FFFFFE000000000
0000000FFFFFC000000000
0000001FFFFF8000000000
0000003FFFFF0000000000
0000003FFFFF0000000000
0000007FFFFE0000000000
000000FFFFFC0000000000
000000FFFFFC0000000000
000001FFFFF80000000000
000003FFFFF00000000000
000003FFFFE00000000000
000007FFFFE00000000000
00000FFFFFC00000000000
00000FFFFF800000000000
00001FFFFF800000000000
00003FFFFF000000000000
00003FFFFE000000000000
00007FFFFE0FFE00000000
00007FFFFC1FFFE0000000
0000FFFFF83FFFF8000000
0001FFFFF83FFFFE000000
0001FFFFF07FFFFF800000
0003FFFFE07FFFFFE00000
0003FFFFE0FFFFFFF00000
0007FFFFC1FFFFFFFC0000
0007FFFF81FFFFFFFE0000
000FFFFF83FFFFFFFF0000
001FFFFF07FFFFFFFF8000
001FFFFF07FFFFFFFFC000
003FFFFE0FFFFFFFFFE000
003FFFFC0FFFFFFFFFF000
007FFFFC1FFFFFFFFFF800
007FFFF83FFFFFFFFFFC00
00FFFFF83FFFFFFFFFFC00
00FFFFF07FFFFFFFFFFE00
01FFFFE001FFFFFFFFFF00
01FFFFE000007FFFFFFF80
03FFFFC0000001FFFFFF80
03FFFFC00000001FFFFFC0
07FFFF8000000007FFFFC0
07FFFF8000000003FFFFE0
0FFFFF0000000001FFFFE0
0FFFFF0000000000FFFFF0
0FFFFE00000000007FFFF0
1FFFFE00000000007FFFF8
1FFFFC00000000003FFFF8
1FFFFC00000000003FFFF8
3FFFFC00000000001FFFFC
3FFFF800000000001FFFFC
3FFFF800000000001FFFFC
7FFFF000000000001FFFFC
7FFFF000000000000FFFFC
7FFFF000000000000FFFFE
7FFFF000000000000FFFFE
FFFFE000000000000FFFFE
FFFFE000000000000FFFFE
FFFFE000000000000FFFFE
FFFFE000000000000FFFFE
FFFFE000000000000FFFFE
FFFFE000000000000FFFFE
FFFFE000000000000FFFFE
FFFFE000000000000FFFFE
FFFFE000000000001FFFFE
FFFFF000000000001FFFFE
FFFFF000000000001FFFFC
7FFFF000000000003FFFFC
7FFFF800000000003FFFFC
7FFFF800000000007FFFFC
7FFFFC00000000007FFFFC
3FFFFC0000000000FFFFF8
3FFFFE0000000001FFFFF8
3FFFFF0000000001FFFFF8
1FFFFF8000000003FFFFF0
1FFFFFC000000007FFFFF0
0FFFFFE00000001FFFFFE0
0FFFFFF00000003FFFFFE0
07FFFFFC000000FFFFFFC0
07FFFFFE000003FFFFFFC0
03FFFFFFC0000FFFFFFF80
01FFFFFFF800FFFFFFFF00
00FFFFFFFFFFFFFFFFFE00
00FFFFFFFFFFFFFFFFFE00
007FFFFFFFFFFFFFFFFC00
003FFFFFFFFFFFFFFFF800
001FFFFFFFFFFFFFFFF000
000FFFFFFFFFFFFFFFE000
0007FFFFFFFFFFFFFFC000
0003FFFFFFFFFFFFFF8000
0001FFFFFFFFFFFFFF0000
00007FFFFFFFFFFFFC0000
00003FFFFFFFFFFFF80000
00001FFFFFFFFFFFF00000
000007FFFFFFFFFFC00000
000001FFFFFFFFFF000000
0000007FFFFFFFFE000000
0000001FFFFFFFF0000000
00000007FFFFFFC0000000
00000000FFFFFE00000000
0000000007FFC000000000
ENDCHAR
STARTCHAR 0037
ENCODING 55
SWIDTH 600 0
DWIDTH 96 0
BBX 83 129 11 -6
BITMAP
00003FFFFFFFFFFFFFFFE0
00007FFFFFFFFFFFFFFFC0
0000FFFFFFFFFFFFFFFFC0
0001FFFFFFFFFFFFFFFF80
0003FFFFFFFFFFFFFFFF80
0007FFFFFFFFFFFFFFFF00
001FFFFFFFFFFFFFFFFF00
003FFFFFFFFFFFFFFFFF00
007FFFFFFFFFFFFFFFFE00
00FFFFFFFFFFFFFFFFFE00
00FFFFFFFFFFFFFFFFFC00
01FFFFFFFFFFFFFFFFFC00
03FFFFFFFFFFFFFFFFF800
07FFFFFFFFFFFFFFFFF800
0FFFFFFFFFFFFFFFFFF000
1FFFFFFFFFFFFFFFFFF000
3FFFFFFFFFFFFFFFFFE000
7FFFFFFFFFFFFFFFFFE000
FFFFFFFFFFFFFFFFFFE000
00000000000007FFFFC000
00000000000007FFFFC000
0000000000000FFFFF8000
0000000000000FFFFF8000
0000000000001FFFFF0000
0000000000001FFFFF0000
0000000000003FFFFE0000
0000000000003FFFFE0000
0000000000007FFFFC0000
0000000000007FFFFC0000
000000000000FFFFF80000
000000000000FFFFF80000
000000000001FFFFF80000
000000000001FFFFF00000
000000000001FFFFF00000
000000000003FFFFE00000
000000000003FFFFE00000
000000000007FFFFC00000
000000000007FFFFC00000
00000000000FFFFF800000
00000000000FFFFF800000
00000000001FFFFF000000
00000000001FFFFF000000
00000000003FFFFE000000
00000000003FFFFE000000
00000000007FFFFE000000
00000000007FFFFC000000
00000000007FFFFC000000
0000000000FFFFF8000000
0000000000FFFFF8000000
0000000001FFFFF0000000
0000000001FFFFF0000000
0000000003FFFFE0000000
0000000003FFFFE0000000
0000000007FFFFC0000000
0000000007FFFFC0000000
000000000FFFFF80000000
000000000FFFFF80000000
000000001FFFFF00000000
000000001FFFFF00000000
000000003FFFFF00000000
000000003FFFFE00000000
000000003FFFFE00000000
000000007FFFFC00000000
000000007FFFFC00000000
00000000FFFFF800000000
00000000FFFFF800000000
00000001FFFFF000000000
00000001FFFFF000000000
00000003FFFFE000000000
00000003FFFFE000000000
00000007FFFFC000000000
00000007FFFFC000000000
0000000FFFFFC000000000
0000000FFFFF8000000000
0000001FFFFF8000000000
0000001FFFFF0000000000
0000001FFFFF0000000000
0000003FFFFE0000000000
0000003FFFFE0000000000
0000007FFFFC0000000000
0000007FFFFC0000000000
000000FFFFF80000000000
000000FFFFF80000000000
000001FFFFF00000000000
000001FFFFF00000000000
000003FFFFE00000000000
000003FFFFE00000000000
000007FFFFE00000000000
000007FFFFC00000000000
000007FFFFC00000000000
00000FFFFF800000000000
00000FFFFF800000000000
00001FFFFF000000000000
00001FFFFF000000000000
00003FFFFE000000000000
00003FFFFE000000000000
00007FFFFC000000000000
00007FFFFC000000000000
0000FFFFF8000000000000
0000FFFFF8000000000000
0001FFFFF0000000000000
0001FFFFF0000000000000
0003FFFFF0000000000000
0003FFFFE0000000000000
0003FFFFE0000000000000
0007FFFFC0000000000000
0007FFFFC0000000000000
000FFFFF80000000000000
000FFFFF80000000000000
001FFFFF00000000000000
001FFFFF00000000000000
003FFFFE00000000000000
003FFFFE00000000000000
007FFFFC00000000000000
007FFFFC00000000000000
00FFFFF800000000000000
00FFFFF800000000000000
00FFFFF000000000000000
01FFFFF000000000000000
01FFFFF000000000000000
03FFFFE000000000000000
03FFFFE000000000000000
07FFFFC000000000000000
07FFFFC000000000000000
0FFFFF0000000000000000
0FFFF00000000000000000
1FFE000000000000000000
1FC0000000000000000000
3800000000000000000000
ENDCHAR
STARTCHAR 0038
ENCODING 56
SWIDTH 662 0
DWIDTH 106 0
BBX 83 123 8 0
BITMAP
000000001FFF0000000000
00000003FFFFF000000000
0000001FFFFFFE00000000
0000007FFFFFFFC0000000
000001FFFFFFFFF0000000
000007FFFFFFFFFC000000
00001FFFFFFFFFFE000000
00003FFFFFFFFFFF800000
00007FFFFFFFFFFFC00000
0000FFFFFFFFFFFFF00000
0001FFFFFFFFFFFFF80000
0003FFFFFFFFFFFFFC0000
0007FFFFFFFFFFFFFE0000
000FFFFFFFFFFFFFFF0000
001FFFFFFFFFFFFFFF8000
003FFFFFFFFFFFFFFF8000
003FFFFFFFFFFFFFFFC000
007FFFFFFFFFFFFFFFE000
00FFFFFFFFFFFFFFFFE000
00FFFFFFF807FFFFFFF000
01FFFFFFC000FFFFFFF000
01FFFFFF00003FFFFFF800
01FFFFFE00000FFFFFF800
03FFFFFC000007FFFFFC00
03FFFFF8000003FFFFFC00
03FFFFF0000001FFFFFC00
03FFFFF0000000FFFFFC00
07FFFFE0000000FFFFFE00
07FFFFE00000007FFFFE00
07FFFFE00000007FFFFE00
07FFFFC00000003FFFFE00
07FFFFC00000003FFFFE00
07FFFFC00000003FFFFE00
07FFFFC00000003FFFFE00
07FFFFC00000003FFFFE00
07FFFFC00000003FFFFE00
07FFFFC00000003FFFFE00
07FFFFC00000003FFFFE00
07FFFFE00000007FFFFC00
07FFFFE00000007FFFFC00
03FFFFE0000000FFFFFC00
03FFFFF0000000FFFFFC00
03FFFFF0000001FFFFFC00
03FFFFF8000003FFFFF800
01FFFFFC000007FFFFF800
01FFFFFE00000FFFFFF800
01FFFFFF80003FFFFFF000
00FFFFFFC000FFFFFFF000
00FFFFFFF807FFFFFFF000
00FFFFFFFFFFFFFFFFE000
007FFFFFFFFFFFFFFFC000
003FFFFFFFFFFFFFFFC000
003FFFFFFFFFFFFFFF8000
001FFFFFFFFFFFFFFF0000
0007FFFFFFFFFFFFFE0000
0007FFFFFFFFFFFFFE0000
000FFFFFFFFFFFFFFF0000
001FFFFFFFFFFFFFFF8000
003FFFFFFFFFFFFFFFC000
007FFFFFFFFFFFFFFFE000
00FFFFFFFFFFFFFFFFF000
01FFFFFFFFFFFFFFFFF800
03FFFFFFFFFFFFFFFFFC00
03FFFFFFFFFFFFFFFFFC00
07FFFFFFFFFFFFFFFFFE00
0FFFFFFFFFFFFFFFFFFF00
0FFFFFFFFFFFFFFFFFFF00
1FFFFFFFFFFFFFFFFFFF00
1FFFFFFFF801FFFFFFFF80
1FFFFFFF80003FFFFFFF80
3FFFFFFE00000FFFFFFF80
3FFFFFF8000003FFFFFFC0
3FFFFFF0000001FFFFFFC0
7FFFFFE00000007FFFFFC0
7FFFFFC00000003FFFFFC0
7FFFFF800000003FFFFFC0
7FFFFF000000001FFFFFE0
7FFFFE000000000FFFFFE0
FFFFFE000000000FFFFFE0
FFFFFC0000000007FFFFE0
FFFFFC0000000007FFFFE0
FFFFFC0000000007FFFFE0
FFFFF80000000003FFFFE0
FFFFF80000000003FFFFE0
FFFFF80000000003FFFFE0
FFFFF80000000003FFFFE0
FFFFF80000000003FFFFE0
FFFFF80000000003FFFFE0
FFFFF80000000003FFFFE0
FFFFF80000000003FFFFE0
FFFFFC0000000007FFFFE0
FFFFFC0000000007FFFFE0
FFFFFC0000000007FFFFC0
7FFFFE000000000FFFFFC0
7FFFFE000000000FFFFFC0
7FFFFF000000001FFFFFC0
7FFFFF800000003FFFFFC0
7FFFFFC00000007FFFFF80
3FFFFFE0000000FFFFFF80
3FFFFFF0000001FFFFFF80
3FFFFFFC000003FFFFFF80
1FFFFFFF00000FFFFFFF00
1FFFFFFFC0003FFFFFFF00
0FFFFFFFF801FFFFFFFE00
0FFFFFFFFFFFFFFFFFFE00
07FFFFFFFFFFFFFFFFFC00
07FFFFFFFFFFFFFFFFFC00
03FFFFFFFFFFFFFFFFF800
01FFFFFFFFFFFFFFFFF000
01FFFFFFFFFFFFFFFFF000
00FFFFFFFFFFFFFFFFE000
007FFFFFFFFFFFFFFFC000
003FFFFFFFFFFFFFFF8000
001FFFFFFFFFFFFFFF0000
0007FFFFFFFFFFFFFE0000
0003FFFFFFFFFFFFF80000
0001FFFFFFFFFFFFF00000
00007FFFFFFFFFFFC00000
00001FFFFFFFFFFF000000
000007FFFFFFFFFC000000
000000FFFFFFFFF0000000
0000000FFFFFFF00000000
000000007FFFC000000000
ENDCHAR
STARTCHAR 0039
ENCODING 57
SWIDTH 693 0
DWIDTH 111 0
BBX 88 128 10 -5
BITMAP
0000000007FFE000000000
000000007FFFFE00000000
00000007FFFFFFE0000000
0000001FFFFFFFF8000000
0000007FFFFFFFFE000000
000001FFFFFFFFFF800000
000007FFFFFFFFFFE00000
00001FFFFFFFFFFFF80000
00003FFFFFFFFFFFFC0000
00007FFFFFFFFFFFFE0000
0001FFFFFFFFFFFFFF8000
0003FFFFFFFFFFFFFFC000
0007FFFFFFFFFFFFFFE000
000FFFFFFFFFFFFFFFF000
001FFFFFFFFFFFFFFFF800
003FFFFFFFFFFFFFFFFC00
007FFFFFFFFFFFFFFFFE00
00FFFFFFFFFFFFFFFFFF00
01FFFFFFFFFFFFFFFFFF00
01FFFFFFFE003FFFFFFF80
03FFFFFFF00003FFFFFFC0
07FFFFFF800000FFFFFFE0
07FFFFFE0000003FFFFFE0
0FFFFFFC0000000FFFFFF0
0FFFFFF000000007FFFFF0
1FFFFFE000000003FFFFF8
1FFFFFC000000001FFFFF8
3FFFFF8000000000FFFFFC
3FFFFF00000000007FFFFC
3FFFFE00000000003FFFFC
7FFFFC00000000003FFFFE
7FFFFC00000000001FFFFE
7FFFF800000000001FFFFE
7FFFF800000000000FFFFE
FFFFF000000000000FFFFE
FFFFF000000000000FFFFF
FFFFF0000000000007FFFF
FFFFE0000000000007FFFF
FFFFE0000000000007FFFF
FFFFE0000000000007FFFF
FFFFE0000000000007FFFF
FFFFE0000000000007FFFF
FFFFE0000000000007FFFF
FFFFE0000000000007FFFF
FFFFE0000000000007FFFF
FFFFE000000000000FFFFF
FFFFE000000000000FFFFF
7FFFF000000000000FFFFE
7FFFF000000000000FFFFE
7FFFF000000000001FFFFE
7FFFF800000000001FFFFE
7FFFF800000000003FFFFE
3FFFF800000000003FFFFC
3FFFFC00000000003FFFFC
1FFFFE00000000007FFFFC
1FFFFF00000000007FFFFC
1FFFFF8000000000FFFFF8
0FFFFFC000000000FFFFF8
0FFFFFE000000001FFFFF8
07FFFFF800000001FFFFF0
03FFFFFE00000001FFFFF0
03FFFFFFC0000003FFFFF0
01FFFFFFFC000003FFFFE0
00FFFFFFFFFF8007FFFFE0
007FFFFFFFFFFFCFFFFFC0
007FFFFFFFFFFFCFFFFFC0
003FFFFFFFFFFF9FFFFFC0
001FFFFFFFFFFF9FFFFF80
000FFFFFFFFFFF3FFFFF80
0007FFFFFFFFFE3FFFFF00
0001FFFFFFFFFE7FFFFF00
0000FFFFFFFFFC7FFFFE00
00007FFFFFFFF8FFFFFE00
00003FFFFFFFF8FFFFFC00
00000FFFFFFFF1FFFFFC00
000003FFFFFFF3FFFFF800
000001FFFFFFE3FFFFF000
0000007FFFFFC7FFFFF000
0000000FFFFFC7FFFFE000
00000003FFFF8FFFFFE000
000000003FFF1FFFFFC000
0000000001FF1FFFFF8000
0000000000003FFFFF8000
0000000000003FFFFF0000
0000000000007FFFFF0000
000000000000FFFFFE0000
000000000000FFFFFC0000
000000000001FFFFFC0000
000000000003FFFFF80000
000000000003FFFFF00000
000000000007FFFFF00000
00000000000FFFFFE00000
00000000000FFFFFC00000
00000000001FFFFF800000
00000000001FFFFF800000
00000000003FFFFF000000
00000000007FFFFE000000
00000000007FFFFC000000
0000000000FFFFFC000000
0000000001FFFFF8000000
0000000001FFFFF0000000
0000000003FFFFE0000000
0000000007FFFFE0000000
000000000FFFFFC0000000
000000000FFFFF80000000
000000001FFFFF00000000
000000003FFFFE00000000
000000003FFFFC00000000
000000007FFFFC00000000
00000000FFFFF800000000
00000000FFFFF000000000
00000001FFFFE000000000
00000003FFFFC000000000
00000007FFFF8000000000
00000007FFFF0000000000
0000000FFFFE0000000000
0000001FFFFC0000000000
0000003FFFF80000000000
0000007FFFF00000000000
000000FFFFE00000000000
000000FFFFC00000000000
000001FFFF800000000000
000003FFFF000000000000
000007FFFC000000000000
00000FFFC0000000000000
00001FF800000000000000
00003F0000000000000000
0000C00000000000000000
ENDCHAR
STARTCHAR 003A
ENCODING 58
SWIDTH 300 0
DWIDTH 48 0
BBX 19 84 15 0
BITMAP
01F000
07FC00
0FFE00
1FFF00
1FFF00
3FFF80
3FFF80
7FFFC0
7FFFC0
7FFFC0
FFFFC0
FFFFE0
FFFFE0
FFFFE0
FFFFE0
FFFFE0
FFFFE0
FFFFE0
FFFFC0
7FFFC0
7FFFC0
7FFF80
3FFF80
3FFF00
1FFF00
0FFE00
07FC00
01F000
000000
000000
000000
000000
000000
000000
000000
000000
000000
000000
000000
000000
000000
000000
000000
000000
000000
000000
000000
000000
000000
000000
000000
000000
000000
000000
000000
000000
01F000
07FC00
0FFE00
1FFF00
3FFF00
3FFF80
7FFF80
7FFFC0
7FFFC0
FFFFC0
FFFFE0
FFFFE0
FFFFE0
FFFFE0
FFFFE0
FFFFE0
FFFFE0
FFFFE0
FFFFC0
7FFFC0
7FFFC0
7FFF80
3FFF80
3FFF00
1FFF00
0FFE00
07FC00
01F000
ENDCHAR
STARTCHAR 003B
ENCODING 59
SWIDTH 300 0
DWIDTH 48 0
BBX 19 98 14 -19
BITMAP
01F000
07FC00
0FFE00
1FFF00
1FFF00
3FFF80
3FFF80
7FFFC0
7FFFC0
7FFFC0
FFFFE0
FFFFE0
FFFFE0
FFFFE0
FFFFE0
FFFFE0
FFFFE0
FFFFE0
FFFFE0
7FFFC0
7FFFC0
7FFF80
3FFF80
3FFF00
1FFF00
0FFE00
07FC00
01F000
000000
000000
000000
000000
000000
000000
000000
000000
000000
000000
000000
000000
000000
000000
000000
000000
000000
000000
000000
000000
000000
000000
000000
000000
000000
000000
000000
000000
000000
000000
000000
000000
FFFC00
FFFC00
FFFC00
FFFC00
FFFC00
FFFC00
FFFC00
FFFC00
FFFC00
FFFC00
FFFC00
FFFC00
FFFC00
FFFC00
FFFC00
FFFC00
FFFC00
FFFC00
FFFC00
FFFC00
FFFC00
FFFC00
FFFC00
FFFC00
FFFC00
FFFC00
FFFC00
FFFC00
FFFC00
FFFC00
FFFC00
FFFC00
FFFC00
FFF800
FFC000
FE0000
F00000
800000
ENDCHAR
STARTCHAR 003C
ENCODING 60
SWIDTH 481 0
DWIDTH 77 0
BBX 69 85 7 19
BITMAP
00000000001FFFFFF8
00000000003FFFFFF0
00000000007FFFFFE0
0000000000FFFFFFC0
0000000001FFFFFF80
0000000003FFFFFF00
0000000007FFFFFE00
000000000FFFFFFC00
000000001FFFFFF800
000000003FFFFFF000
000000007FFFFFE000
00000000FFFFFFC000
00000001FFFFFF8000
00000003FFFFFF0000
00000007FFFFFE0000
0000000FFFFFFC0000
0000001FFFFFF80000
0000003FFFFFF00000
0000007FFFFFE00000
000001FFFFFFC00000
000003FFFFFF800000
000007FFFFFF000000
00000FFFFFFE000000
00001FFFFFFC000000
00003FFFFFF8000000
00007FFFFFF0000000
0000FFFFFFE0000000
0001FFFFFFC0000000
0003FFFFFF80000000
0007FFFFFF00000000
000FFFFFFE00000000
001FFFFFFC00000000
003FFFFFF800000000
007FFFFFF000000000
00FFFFFFE000000000
01FFFFFFC000000000
03FFFFFF8000000000
07FFFFFF0000000000
0FFFFFFE0000000000
1FFFFFFC0000000000
3FFFFFF80000000000
FFFFFFF00000000000
FFFFFFE00000000000
7FFFFFE00000000000
3FFFFFF00000000000
1FFFFFF80000000000
0FFFFFFC0000000000
07FFFFFE0000000000
03FFFFFF0000000000
01FFFFFF8000000000
00FFFFFFC000000000
007FFFFFE000000000
003FFFFFF000000000
001FFFFFF800000000
000FFFFFFC00000000
0007FFFFFE00000000
0003FFFFFF00000000
0001FFFFFF80000000
0000FFFFFFC0000000
00007FFFFFE0000000
00003FFFFFF0000000
00001FFFFFF8000000
00000FFFFFFC000000
000003FFFFFE000000
000001FFFFFF000000
000000FFFFFF800000
0000007FFFFFC00000
0000003FFFFFE00000
0000001FFFFFF00000
0000000FFFFFF80000
00000007FFFFFC0000
00000003FFFFFE0000
00000001FFFFFF0000
00000000FFFFFF8000
000000007FFFFFC000
000000003FFFFFE000
000000001FFFFFF000
000000000FFFFFF800
0000000007FFFFFC00
0000000003FFFFFE00
0000000001FFFFFF00
0000000000FFFFFF80
00000000007FFFFFC0
00000000003FFFFFE0
00000000001FFFFFF0
ENDCHAR
STARTCHAR 003D
ENCODING 61
SWIDTH 568 0
DWIDTH 91 0
BBX 71 62 7 31
BITMAP
000000000000000002
00000000000000000C
000000000000000078
0000000000000003F0
000000000000001FE0
00000000000001FFC0
00003FFFFFFFFFFF80
00007FFFFFFFFFFF00
0000FFFFFFFFFFFE00
0001FFFFFFFFFFFC00
0003FFFFFFFFFFF800
0007FFFFFFFFFFF000
000FFFFFFFFFFFE000
001FFFFFFFFFFFC000
003FFFFFFFFFFF8000
007FFFFFFFFFFF0000
00FFFFFFFFFFFE0000
01FFFFFFFFFFFC0000
03FFFFFFFFFFF80000
07FFFFFFFFFFF00000
0FFFFFFFFFFFE00000
1FFFFFFFFFFFC00000
3FFFFFFFFFFF800000
7FFFFFFFFFFF000000
FFFFFFFFFFFE000000
000000000000000000
000000000000000000
000000000000000000
000000000000000000
000000000000000000
000000000000000000
000000000000000000
000000000000000000
000000000000000000
000000000000000000
000000000000000000
000000000000000000
000000000000000000
000000000000000006
00000000000000001C
0000000000000001F8
000000000000000FF0
00000000000000FFE0
00003FFFFFFFFFFFC0
00007FFFFFFFFFFF80
0000FFFFFFFFFFFF00
0001FFFFFFFFFFFE00
0003FFFFFFFFFFFC00
0007FFFFFFFFFFF800
000FFFFFFFFFFFF000
001FFFFFFFFFFFE000
003FFFFFFFFFFFC000
007FFFFFFFFFFF8000
00FFFFFFFFFFFF0000
01FFFFFFFFFFFE0000
03FFFFFFFFFFFC0000
07FFFFFFFFFFF80000
0FFFFFFFFFFFF00000
1FFFFFFFFFFFE00000
3FFFFFFFFFFFC00000
7FFFFFFFFFFF800000
FFFFFFFFFFFF000000
ENDCHAR
STARTCHAR 003E
ENCODING 62
SWIDTH 543 0
DWIDTH 87 0
BBX 68 85 7 19
BITMAP
FFFFFF800000000000
7FFFFFC00000000000
3FFFFFE00000000000
1FFFFFF00000000000
0FFFFFF80000000000
07FFFFFC0000000000
03FFFFFE0000000000
01FFFFFF0000000000
00FFFFFF8000000000
007FFFFFC000000000
003FFFFFE000000000
001FFFFFF000000000
000FFFFFF800000000
0007FFFFFE00000000
0003FFFFFF00000000
0001FFFFFF80000000
0000FFFFFFC0000000
00007FFFFFE0000000
00003FFFFFF0000000
00001FFFFFF8000000
00000FFFFFFC000000
000007FFFFFE000000
000003FFFFFF000000
000001FFFFFF800000
000000FFFFFFC00000
0000007FFFFFE00000
0000003FFFFFF00000
0000001FFFFFF80000
0000000FFFFFFE0000
00000007FFFFFF0000
00000003FFFFFF8000
00000001FFFFFFC000
00000000FFFFFFE000
000000007FFFFFF000
000000003FFFFFF800
000000001FFFFFFC00
000000000FFFFFFE00
0000000007FFFFFF00
0000000003FFFFFF80
0000000001FFFFFFC0
0000000000FFFFFFE0
00000000007FFFFFF0
00000000003FFFFFF0
00000000007FFFFFE0
0000000000FFFFFFC0
0000000001FFFFFF80
0000000003FFFFFE00
0000000007FFFFFC00
000000000FFFFFF800
000000001FFFFFF000
000000003FFFFFE000
000000007FFFFFC000
00000000FFFFFF8000
00000001FFFFFF0000
00000003FFFFFE0000
00000007FFFFFC0000
0000000FFFFFF80000
0000001FFFFFF00000
0000003FFFFFE00000
0000007FFFFFC00000
000000FFFFFF800000
000001FFFFFF000000
000003FFFFFE000000
000007FFFFFC000000
00000FFFFFF8000000
00001FFFFFF0000000
00003FFFFFE0000000
00007FFFFFC0000000
0000FFFFFF80000000
0001FFFFFF00000000
0003FFFFFE00000000
0007FFFFFC00000000
000FFFFFF800000000
001FFFFFF000000000
003FFFFFE000000000
007FFFFFC000000000
00FFFFFF8000000000
01FFFFFF0000000000
03FFFFFE0000000000
07FFFFFC0000000000
0FFFFFF80000000000
1FFFFFF00000000000
3FFFFFE00000000000
7FFFFFC00000000000
FFFFFF800000000000
ENDCHAR
STARTCHAR 003F
ENCODING 63
SWIDTH 437 0
DWIDTH 70 0
BBX 64 147 6 -24
BITMAP
000003FFFE000000
00003FFFFFFC0000
0000FFFFFFFFC000
0003FFFFFFFFF000
000FFFFFFFFFFC00
001FFFFFFFFFFF00
003FFFFFFFFFFF80
00FFFFFFFFFFFFE0
01FFFFFFFFFFFFF0
03FFFFFFFFFFFFF0
03FFFFFFFFFFFFF8
07FFFFFFFFFFFFFC
0FFFFFFFFFFFFFFC
1FFFFFFFFFFFFFFE
1FFFFFFFFFFFFFFE
3FFFFFFFFFFFFFFE
3FFFFFFFFFFFFFFF
3FFFFFC0001FFFFF
7FFFF000000FFFFF
7FFF8000000FFFFF
7FFC00000007FFFF
7FF000000007FFFF
7FC000000007FFFF
FF0000000007FFFF
FE0000000007FFFF
F80000000007FFFF
F00000000007FFFF
E00000000007FFFF
400000000007FFFF
000000000007FFFF
000000000007FFFE
000000000007FFFE
000000000007FFFE
00000000000FFFFE
00000000000FFFFC
00000000000FFFFC
00000000001FFFFC
00000000001FFFF8
00000000003FFFF8
00000000003FFFF0
00000000007FFFF0
0000000000FFFFE0
0000000001FFFFE0
0000000003FFFFC0
0000000007FFFFC0
000000000FFFFF80
000000001FFFFF80
000000007FFFFF00
00000000FFFFFE00
00000003FFFFFE00
0000000FFFFFFC00
0000003FFFFFF800
000000FFFFFFF800
000003FFFFFFF000
000007FFFFFFE000
000007FFFFFFC000
000007FFFFFF8000
000007FFFFFF0000
000007FFFFFE0000
000007FFFFFC0000
000007FFFFF80000
000007FFFFF00000
000007FFFFE00000
000007FFFFC00000
000007FFFF800000
000007FFFF000000
000007FFFE000000
000007FFF8000000
000007FFF0000000
000007FFF0000000
000007FFF0000000
000007FFF0000000
000007FFF0000000
000007FFF0000000
000007FFF0000000
000007FFF0000000
000007FFF0000000
000007FFF0000000
000007FFF0000000
000007FFF0000000
000007FFF0000000
000007FFF0000000
000007FFF0000000
000007FFF0000000
000007FFF0000000
000007FFF0000000
000007FFF0000000
000007FFF0000000
000007FFF0000000
000007FFF0000000
000007FFF0000000
000007FFF0000000
000007FFF0000000
000007FFF0000000
000007FFF0000000
000007FFF0000000
000007FFF0000000
000007FFF0000000
000007FFF0000000
000007FFF0000000
000007FFF0000000
000007FFF0000000
000007FFF0000000
000007FFC0000000
000007FE00000000
000007F800000000
000007C000000000
0000060000000000
0000000000000000
0000000000000000
0000000000000000
0000000000000000
0000000000000000
0000000000000000
0000000000000000
0000000000000000
0000000000000000
0000000000000000
0000000000000000
0000000F80000000
0000003FE0000000
0000007FF0000000
000000FFF8000000
000000FFF8000000
000001FFFC000000
000001FFFC000000
000001FFFE000000
000003FFFE000000
000003FFFF000000
000003FFFF000000
000003FFFF000000
000007FFFF000000
000007FFFF000000
000007FFFF000000
000007FFFF000000
000003FFFF000000
000003FFFF000000
000003FFFF000000
000003FFFE000000
000003FFFE000000
000001FFFC000000
000001FFFC000000
000000FFF8000000
000000FFF0000000
0000007FE0000000
0000003FC0000000
0000000F80000000
ENDCHAR
STARTCHAR 0040
ENCODING 64
SWIDTH 868 0
DWIDTH 139 0
BBX 117 123 8 0
BITMAP
00000000000007FFF0000000000000
000000000001FFFFFFC00000000000
00000000001FFFFFFFF80000000000
0000000000FFFFFFFFFF0000000000
0000000007FFFFFFFFFFE000000000
000000001FFFFFFFFFFFF800000000
000000007FFFFFFFFFFFFC00000000
00000001FFFFFFFFFFFFFF00000000
00000007FFFFFFFFFFFFFFC0000000
0000000FFFFFFFFFFFFFFFE0000000
0000003FFFFFFFFFFFFFFFF8000000
0000007FFFFFFFFFFFFFFFFC000000
000000FFFFFFFFFFFFFFFFFE000000
000003FFFFFFFFFFFFFFFFFF000000
000007FFFFFFFC001FFFFFFF800000
00000FFFFFFF800001FFFFFFC00000
00001FFFFFFC0000003FFFFFE00000
00003FFFFFE000000007FFFFF00000
00007FFFFF8000000003FFFFF80000
0000FFFFFF0000000000FFFFFC0000
0001FFFFFC00000000003FFFFE0000
0003FFFFF000000000001FFFFF0000
0007FFFFE0000000000007FFFF0000
0007FFFFC0000000000003FFFF8000
000FFFFF80000000000001FFFFC000
001FFFFE00000000000000FFFFE000
003FFFFC000000000000007FFFE000
003FFFF8000000000000003FFFF000
007FFFF0000000000000001FFFF800
007FFFE0000000000000000FFFF800
00FFFFE00000000000000007FFFC00
01FFFFC00000000000000007FFFC00
01FFFF800000FFFFFF800003FFFE00
03FFFF000001FFFFFFE00001FFFE00
03FFFF000003FFFFFFF00001FFFF00
07FFFE000007FFFFFFF00000FFFF00
07FFFC00000FFFFFFFF800007FFF80
0FFFFC00001FFFFFFFFC00007FFF80
0FFFF800007FFFFFFFFC00003FFFC0
0FFFF00000FFFFFFFFFE00003FFFC0
1FFFF00001FFFFFFFFFE00001FFFC0
1FFFE00003FFFFFFFFFF00001FFFE0
1FFFE00007FFFFFFFFFF00000FFFE0
3FFFE0000FFFFFFFFFFF80000FFFE0
3FFFC0001FFFFFFFFFFF80000FFFE0
3FFFC0003FFFFFFFFFFFC00007FFF0
3FFF80007FE00003FFFFC00007FFF0
7FFF8000C00000007FFFC00007FFF0
7FFF8000000000003FFFE00007FFF0
7FFF0000000000001FFFE00003FFF0
7FFF0000000000001FFFE00003FFF8
7FFF0000000000000FFFE00003FFF8
7FFF0000000000000FFFE00003FFF8
FFFF0000000000000FFFE00003FFF8
FFFE000003FFFFFF8FFFE00003FFF8
FFFE000007FFFFFF8FFFE00001FFF8
FFFE00001FFFFFFF8FFFE00001FFF8
FFFE00003FFFFFFF0FFFE00001FFF8
FFFE00003FFFFFFF0FFFE00001FFF8
FFFE00007FFFFFFF0FFFE00001FFF8
FFFE0000FFFFFFFF0FFFE00001FFF8
FFFE0000FFFFFFFF0FFFE00001FFF8
FFFE0001FFFFFFFF8FFFE00001FFF8
FFFE0001FFFFFFFF8FFFE00003FFF8
FFFE0001FFFFFFFF8FFFE00003FFF8
FFFE0003FFFFFFFF8FFFE00003FFF8
FFFE0003FFFFFFFF8FFFE00003FFF8
FFFE0003FFFF80000FFFE00003FFF8
FFFF0007FFFC00000FFFE00007FFF8
FFFF0007FFF800000FFFE00007FFF0
7FFF0007FFF000000FFFE0000FFFF0
7FFF0007FFF000000FFFE0000FFFF0
7FFF0007FFF000000FFFE0001FFFF0
7FFF8007FFF000000FFFE0003FFFE0
7FFF8007FFF800000FFFE0007FFFE0
7FFF8007FFF800000FFFE001FFFFC0
3FFF8007FFFC00000FFFE00FFFFFC0
3FFFC003FFFFFFFFFFFFFFFFFFFF80
3FFFC003FFFFFFFFFFFFFFFFFFFF80
1FFFE003FFFFFFFFFFFFFFFFFFFF00
1FFFE001FFFFFFFFFFFFFFFFFFFE00
1FFFF001FFFFFFFFFFFFFFFFFFFC00
0FFFF000FFFFFFFFFFFFFFFFFFF800
0FFFF8007FFFFFFFFFFFFFFFFFF000
0FFFF8003FFFFFFFFFFFFFFFFFC000
07FFFC001FFFFFFFFFFFFFFFFF8000
07FFFC0007FFFFFFFFFFFFFFFE0000
03FFFE0003FFFFFFFFFFFFFFF80000
03FFFF00007FFFFFFFFFFFFFC00000
01FFFF80000FFFFFFFFFFFFE000000
01FFFF8000007FFFFFFFFF80000000
00FFFFC00000000000000000000000
00FFFFE00000000000000000000000
007FFFF00000000000000000000000
003FFFF80000000000000000000000
003FFFFC0000000000000000000000
001FFFFE0000000000000000000000
000FFFFF0000000000000000000000
000FFFFFC000000000000000000000
0007FFFFE000000000000000000000
0003FFFFF000000000000000180000
0001FFFFFC000000000000003C0000
0000FFFFFE000000000000007E0000
00007FFFFF80000000000001FF0000
00003FFFFFE000000000000FFF8000
00001FFFFFFC00000000007FFFC000
00000FFFFFFF0000000003FFFFE000
000007FFFFFFF0000000FFFFFFF000
000003FFFFFFFF80007FFFFFFFF800
000001FFFFFFFFFFFFFFFFFFFFF800
0000007FFFFFFFFFFFFFFFFFFFFC00
0000003FFFFFFFFFFFFFFFFFFFF800
0000001FFFFFFFFFFFFFFFFFFFE000
00000007FFFFFFFFFFFFFFFFFF8000
00000003FFFFFFFFFFFFFFFFFF0000
00000000FFFFFFFFFFFFFFFFFC0000
000000003FFFFFFFFFFFFFFFF00000
000000000FFFFFFFFFFFFFFF800000
0000000001FFFFFFFFFFFFFE000000
00000000007FFFFFFFFFFFE0000000
00000000000FFFFFFFFFFF00000000
000000000000FFFFFFFFE000000000
00000000000001FFFFE00000000000
ENDCHAR
STARTCHAR 0041
ENCODING 65
SWIDTH 937 0
DWIDTH 150 0
BBX 151 128 -11 -5
BITMAP
0000000000000000000C000000000000000000
0000000000000000001C000000000000000000
0000000000000000001E000000000000000000
0000000000000000003F000000000000000000
0000000000000000003F000000000000000000
0000000000000000007F800000000000000000
000000000000000000FF800000000000000000
000000000000000000FFC00000000000000000
000000000000000001FFE00000000000000000
000000000000000001FFE00000000000000000
000000000000000003FFF00000000000000000
000000000000000007FFF00000000000000000
000000000000000007FFF80000000000000000
00000000000000000FFFFC0000000000000000
00000000000000000FFFFC0000000000000000
00000000000000001FFFFE0000000000000000
00000000000000003FFFFF0000000000000000
00000000000000003FFFFF0000000000000000
00000000000000007FFFFF8000000000000000
00000000000000007FFFFF8000000000000000
0000000000000000FFFFFFC000000000000000
0000000000000000FFFFFFE000000000000000
0000000000000001FFFFFFE000000000000000
0000000000000003FFFFFFF000000000000000
0000000000000003FFFFFFF000000000000000
0000000000000007FFFFFFF800000000000000
0000000000000007FFFFFFFC00000000000000
000000000000000FFFFFFFFC00000000000000
000000000000001FFFFFFFFE00000000000000
000000000000001FFFFFFFFE00000000000000
000000000000003FFFFFFFFF00000000000000
000000000000003FFFFFFFFF80000000000000
000000000000007FFFFFFFFF80000000000000
00000000000000FFFFFFFFFFC0000000000000
00000000000000FFFFFFFFFFC0000000000000
00000000000001FFFFFFFFFFE0000000000000
00000000000001FFFFF7FFFFF0000000000000
00000000000003FFFFF3FFFFF0000000000000
00000000000007FFFFE1FFFFF8000000000000
00000000000007FFFFE1FFFFF8000000000000
0000000000000FFFFFC0FFFFFC000000000000
0000000000000FFFFF80FFFFFE000000000000
0000000000001FFFFF807FFFFE000000000000
0000000000003FFFFF003FFFFF000000000000
0000000000003FFFFF003FFFFF000000000000
0000000000007FFFFE001FFFFF800000000000
0000000000007FFFFE001FFFFFC00000000000
000000000000FFFFFC000FFFFFC00000000000
000000000001FFFFF80007FFFFE00000000000
000000000001FFFFF80007FFFFE00000000000
000000000003FFFFF00003FFFFF00000000000
000000000003FFFFF00003FFFFF80000000000
000000000007FFFFE00001FFFFF80000000000
00000000000FFFFFE00000FFFFFC0000000000
00000000000FFFFFC00000FFFFFC0000000000
00000000001FFFFF8000007FFFFE0000000000
00000000001FFFFF803FFFFFFFFF0000000000
00000000003FFFFF3FFFFFFFFFFF0000000000
00000000007FFFFF7FFFFFFFFFFF8000000000
00000000007FFFFE7FFFFFFFFFFF8000000000
0000000000FFFFFEFFFFFFFFFFFFC000000000
0000000000FFFFFDFFFFFFFFFFFFE000000000
0000000001FFFFF9FFFFFFFFFFFFE000000000
0000000003FFFFFBFFFFFFFFFFFFF000000000
0000000003FFFFF3FFFFFFFFFFFFF000000000
0000000007FFFFF7FFFFFFFFFFFFF800000000
0000000007FFFFEFFFFFFFFFFFFFFC00000000
000000000FFFFFEFFFFFFFFFFFFFFC00000000
000000001FFFFFDFFFFFFFFFFFFFFE00000000
000000001FFFFF9FFFFFFFFFFFFFFE00000000
000000003FFFFFBFFFFFFFFFFFFFFF00000000
000000003FFFFF7FFFFFFFFFFFFFFF80000000
000000007FFFFF7FFFFFFFFFFFFFFF80000000
00000000FFFFFEFFFFFFFFFFFFFFFFC0000000
00000000FFFFFEFFFFFFFFFFFFFFFFC0000000
00000001FFFFFC000000000007FFFFE0000000
00000001FFFFF8000000000003FFFFF0000000
00000003FFFFF8000000000003FFFFF0000000
00000003FFFFF0000000000001FFFFF8000000
00000007FFFFF0000000000001FFFFF8000000
0000000FFFFFE0000000000000FFFFFC000000
0000000FFFFFE00000000000007FFFFE000000
0000001FFFFFC00000000000007FFFFE000000
0000001FFFFFC00000000000003FFFFF000000
0000003FFFFF800000000000001FFFFF800000
0000007FFFFF000000000000001FFFFF800000
0000007FFFFF000000000000000FFFFFC00000
000000FFFFFE000000000000000FFFFFC00000
000000FFFFFE0000000000000007FFFFE00000
000001FFFFFC0000000000000003FFFFF00000
000003FFFFF80000000000000003FFFFF00000
000003FFFFF80000000000000001FFFFF80000
000007FFFFF00000000000000000FFFFF80000
000007FFFFF00000000000000000FFFFFC0000
00000FFFFFE000000000000000007FFFFE0000
00001FFFFFC000000000000000007FFFFE0000
00001FFFFFC000000000000000003FFFFF0000
00003FFFFF8000000000000000001FFFFF0000
00003FFFFF0000000000000000001FFFFF8000
00007FFFFF0000000000000000000FFFFFC000
0000FFFFFE00000000000000000007FFFFC000
0000FFFFFE00000000000000000007FFFFE000
0001FFFFFC00000000000000000003FFFFE000
0001FFFFF800000000000000000003FFFFF000
0003FFFFF800000000000000000001FFFFF800
0007FFFFF000000000000000000000FFFFF800
0007FFFFE000000000000000000000FFFFFC00
000FFFFFE0000000000000000000007FFFFC00
000FFFFFC0000000000000000000003FFFFE00
001FFFFF80000000000000000000003FFFFF00
003FFFFF00000000000000000000001FFFFF00
003FFFFF00000000000000000000001FFFFF80
007FFFFE00000000000000000000000FFFFF80
007FFFFC000000000000000000000007FFFFC0
00FFFFF8000000000000000000000007FFFFE0
01FFFFF8000000000000000000000003FFFFE0
01FFFFF0000000000000000000000001FFFFF0
03FFFFE0000000000000000000000001FFFFF0
03FFFFC0000000000000000000000000FFFFF8
07FFFFC0000000000000000000000000FFFFFC
0FFFFF800000000000000000000000007FFFFC
0FFFFF000000000000000000000000003FFFFE
1FFFFE000000000000000000000000003FFFFE
1FFFFC000000000000000000000000001FFFF0
3FFFF0000000000000000000000000000FFF00
7FFF80000000000000000000000000000FF800
7FC00000000000000000000000000000078000
C0000000000000000000000000000000040000
ENDCHAR
STARTCHAR 0042
ENCODING 66
SWIDTH 712 0
DWIDTH 114 0
BBX 98 123 2 2
BITMAP
FFFFFFFFFFFFFFE00000000000
FFFFFFFFFFFFFFFE0000000000
FFFFFFFFFFFFFFFFC000000000
FFFFFFFFFFFFFFFFF000000000
FFFFFFFFFFFFFFFFFC00000000
FFFFFFFFFFFFFFFFFF00000000
FFFFFFFFFFFFFFFFFFC0000000
FFFFFFFFFFFFFFFFFFF0000000
FFFFFFFFFFFFFFFFFFFC000000
FFFFFFFFFFFFFFFFFFFE000000
FFFFFFFFFFFFFFFFFFFF800000
FFFFFFFFFFFFFFFFFFFFC00000
FFFFFFFFFFFFFFFFFFFFE00000
FFFFFFFFFFFFFFFFFFFFF00000
FFFFFFFFFFFFFFFFFFFFF80000
FFFFFFFFFFFFFFFFFFFFFC0000
FFFFFFFFFFFFFFFFFFFFFC0000
FFFFFFFFFFFFFFFFFFFFFE0000
FFFFFFFFFFFFFFFFFFFFFE0000
FFFFE000000000FFFFFFFF0000
FFFFE0000000001FFFFFFF0000
FFFFE00000000007FFFFFF0000
FFFFE00000000001FFFFFF0000
FFFFE00000000000FFFFFF0000
FFFFE000000000007FFFFE0000
FFFFE000000000003FFFFE0000
FFFFE000000000003FFFFE0000
FFFFE000000000003FFFFC0000
FFFFE000000000007FFFF80000
FFFFE000000000007FFFF80000
FFFFE00000000000FFFFF00000
FFFFE00000000001FFFFE00000
FFFFE00000000001FFFFC00000
FFFFE00000000003FFFF800000
FFFFE00000000007FFFF000000
FFFFE0000000000FFFFE000000
FFFFE0000000001FFFFC000000
FFFFE0000000003FFFF8000000
FFFFE0000000007FFFF0000000
FFFFE000000000FFFFE0000000
FFFFE000000001FFFFC0000000
FFFFE000000003FFFF80000000
FFFFE000000007FFFE00000000
FFFFE000000007FFFC00000000
FFFFE00000000FFFF800000000
FFFFE00000001FFFF000000000
FFFFE00000007FFFE000000000
FFFFE0000000FFFFC000000000
FFFFE0000001FFFF8000000000
FFFFE0000003FFFFF800000000
FFFFE0000007FFFFFFC0000000
FFFFE000000FFFFFFFF8000000
FFFFE000001FFFFFFFFF000000
FFFFE000003FFFFFFFFFC00000
FFFFE000007FFFFFFFFFF00000
FFFFE00000FFFFFFFFFFF80000
FFFFE00001FFFFFFFFFFFC0000
FFFFE00003FFFFFFFFFFFF0000
FFFFE00007FFFFFFFFFFFF8000
FFFFE0000FFFFFFFFFFFFFC000
FFFFE0001FFFFFFFFFFFFFC000
FFFFE0003FFFFFFFFFFFFFE000
FFFFE00000000000FFFFFFF000
FFFFE000000000001FFFFFF800
FFFFE0000000000007FFFFF800
FFFFE0000000000003FFFFFC00
FFFFE0000000000001FFFFFC00
FFFFE0000000000000FFFFFE00
FFFFE00000000000007FFFFE00
FFFFE00000000000003FFFFF00
FFFFE00000000000001FFFFF00
FFFFE00000000000001FFFFF00
FFFFE00000000000000FFFFF80
FFFFE00000000000000FFFFF80
FFFFE000000000000007FFFF80
FFFFE000000000000007FFFF80
FFFFE000000000000007FFFF80
FFFFE000000000000003FFFFC0
FFFFE000000000000003FFFFC0
FFFFE000000000000003FFFFC0
FFFFE000000000000001FFFFC0
FFFFE000000000000001FFFFC0
FFFFE000000000000001FFFFC0
FFFFE000000000000001FFFFC0
FFFFE000000000000001FFFFC0
FFFFE000000000000001FFFFC0
FFFFE000000000000001FFFFC0
FFFFE000000000000001FFFFC0
FFFFE000000000000001FFFFC0
FFFFE000000000000003FFFF80
FFFFE000000000000003FFFF80
FFFFE000000000000003FFFF80
FFFFE000000000000007FFFF80
FFFFE000000000000007FFFF80
FFFFE00000000000000FFFFF00
FFFFE00000000000001FFFFF00
FFFFE00000000000001FFFFE00
FFFFE00000000000003FFFFE00
FFFFE00000000000007FFFFE00
FFFFE0000000000000FFFFFC00
FFFFE0000000000003FFFFFC00
FFFFE0000000000007FFFFF800
FFFFE000000000001FFFFFF000
FFFFE00000000000FFFFFFF000
FFFFFFFFFFFFFFFFFFFFFFE000
FFFFFFFFFFFFFFFFFFFFFFE000
FFFFFFFFFFFFFFFFFFFFFFC000
FFFFFFFFFFFFFFFFFFFFFF8000
FFFFFFFFFFFFFFFFFFFFFF0000
FFFFFFFFFFFFFFFFFFFFFE0000
FFFFFFFFFFFFFFFFFFFFFE0000
FFFFFFFFFFFFFFFFFFFFFC0000
FFFFFFFFFFFFFFFFFFFFF80000
FFFFFFFFFFFFFFFFFFFFF00000
FFFFFFFFFFFFFFFFFFFFE00000
FFFFFFFFFFFFFFFFFFFFC00000
FFFFFFFFFFFFFFFFFFFF000000
FFFFFFFFFFFFFFFFFFFE000000
FFFFFFFFFFFFFFFFFFF8000000
FFFFFFFFFFFFFFFFFFF0000000
FFFFFFFFFFFFFFFFFFC0000000
FFFFFFFFFFFFFFFFFE00000000
FFFFFFFFFFFFFFFFE000000000
ENDCHAR
STARTCHAR 0043
ENCODING 67
SWIDTH 787 0
DWIDTH 126 0
BBX 130 123 3 0
BITMAP
0000000000FFFFFFFFFFFFFFFFFFFFFFC0
000000001FFFFFFFFFFFFFFFFFFFFFFF80
000000007FFFFFFFFFFFFFFFFFFFFFFF00
00000003FFFFFFFFFFFFFFFFFFFFFFFE00
0000000FFFFFFFFFFFFFFFFFFFFFFFFC00
0000001FFFFFFFFFFFFFFFFFFFFFFFF800
0000007FFFFFFFFFFFFFFFFFFFFFFFF000
000000FFFFFFFFFFFFFFFFFFFFFFFFE000
000001FFFFFFFFFFFFFFFFFFFFFFFFC000
000003FFFFFFFFFFFFFFFFFFFFFFFF8000
000007FFFFFFFFFFFFFFFFFFFFFFFE0000
00000FFFFFFFFFFFFFFFFFFFFFFFFC0000
00001FFFFFFFFFFFFFFFFFFFFFFFF80000
00003FFFFFFFFFFFFFFFFFFFFFFFF00000
00007FFFFFFFFFFFFFFFFFFFFFFFE00000
0000FFFFFFFFFFFFFFFFFFFFFFFFC00000
0001FFFFFFFFFFFFFFFFFFFFFFFF800000
0001FFFFFFFFFFFFFFFFFFFFFFFE000000
0003FFFFFFFFFFFFFFFFFFFFFFFC000000
0007FFFFFFFE0000000000000000000000
0007FFFFFFE00000000000000000000000
000FFFFFFF800000000000000000000000
000FFFFFFE000000000000000000000000
001FFFFFFC000000000000000000000000
003FFFFFF8000000000000000000000000
003FFFFFF0000000000000000000000000
007FFFFFE0000000000000000000000000
007FFFFFC0000000000000000000000000
00FFFFFF80000000000000000000000000
00FFFFFF00000000000000000000000000
01FFFFFE00000000000000000000000000
01FFFFFE00000000000000000000000000
03FFFFFC00000000000000000000000000
03FFFFF800000000000000000000000000
03FFFFF800000000000000000000000000
07FFFFF000000000000000000000000000
07FFFFF000000000000000000000000000
0FFFFFE000000000000000000000000000
0FFFFFE000000000000000000000000000
0FFFFFC000000000000000000000000000
1FFFFFC000000000000000000000000000
1FFFFFC000000000000000000000000000
1FFFFF8000000000000000000000000000
1FFFFF8000000000000000000000000000
3FFFFF0000000000000000000000000000
3FFFFF0000000000000000000000000000
3FFFFF0000000000000000000000000000
3FFFFE0000000000000000000000000000
7FFFFE0000000000000000000000000000
7FFFFE0000000000000000000000000000
7FFFFE0000000000000000000000000000
7FFFFC0000000000000000000000000000
7FFFFC0000000000000000000000000000
7FFFFC0000000000000000000000000000
7FFFFC0000000000000000000000000000
FFFFFC0000000000000000000000000000
FFFFF80000000000000000000000000000
FFFFF80000000000000000000000000000
FFFFF80000000000000000000000000000
FFFFF80000000000000000000000000000
FFFFF80000000000000000000000000000
FFFFF80000000000000000000000000000
FFFFF80000000000000000000000000000
FFFFF80000000000000000000000000000
FFFFF80000000000000000000000000000
FFFFF80000000000000000000000000000
7FFFF80000000000000000000000000000
7FFFFC0000000000000000000000000000
7FFFFC0000000000000000000000000000
7FFFFC0000000000000000000000000000
7FFFFC0000000000000000000000000000
7FFFFC0000000000000000000000000000
7FFFFE0000000000000000000000000000
7FFFFE0000000000000000000000000000
7FFFFE0000000000000000000000000000
7FFFFE0000000000000000000000000000
7FFFFF0000000000000000000000000000
7FFFFF0000000000000000000000000000
3FFFFF0000000000000000000000000000
3FFFFF8000000000000000000000000000
3FFFFF8000000000000000000000000000
3FFFFF8000000000000000000000000000
3FFFFFC000000000000000000000000000
1FFFFFC000000000000000000000000000
1FFFFFE000000000000000000000000000
0FFFFFE000000000000000000000000000
0FFFFFF000000000000000000000000000
0FFFFFF000000000000000000000000000
07FFFFF800000000000000000000000000
07FFFFF800000000000000000000000000
03FFFFFC00000000000000000000000000
03FFFFFC00000000000000000000000000
01FFFFFE00000000000000000000000000
01FFFFFF00000000000000000000000000
00FFFFFF80000000000000000000000000
007FFFFF80000000000000000000000000
007FFFFFC0000000000000000000000000
003FFFFFE0000000000000000000000000
003FFFFFF0000000000000000000000000
001FFFFFFC000000000000000000000000
000FFFFFFE000000000000000000000000
0007FFFFFF800000000000000000000000
0007FFFFFFE000000000000000000001C0
0003FFFFFFFC000000000000000000FF80
0001FFFFFFFFFFFFFFFFFFFFFFFFFFFF80
0000FFFFFFFFFFFFFFFFFFFFFFFFFFFF00
00007FFFFFFFFFFFFFFFFFFFFFFFFFFE00
00007FFFFFFFFFFFFFFFFFFFFFFFFFFC00
00003FFFFFFFFFFFFFFFFFFFFFFFFFF800
00001FFFFFFFFFFFFFFFFFFFFFFFFFF000
00000FFFFFFFFFFFFFFFFFFFFFFFFFE000
000007FFFFFFFFFFFFFFFFFFFFFFFFC000
000003FFFFFFFFFFFFFFFFFFFFFFFF8000
000001FFFFFFFFFFFFFFFFFFFFFFFF0000
000000FFFFFFFFFFFFFFFFFFFFFFFE0000
0000003FFFFFFFFFFFFFFFFFFFFFFE0000
0000001FFFFFFFFFFFFFFFFFFFFFFC0000
0000000FFFFFFFFFFFFFFFFFFFFFF80000
00000003FFFFFFFFFFFFFFFFFFFFF00000
00000000FFFFFFFFFFFFFFFFFFFFE00000
000000007FFFFFFFFFFFFFFFFFFFC00000
000000000FFFFFFFFFFFFFFFFFFF800000
0000000001FFFFFFFFFFFFFFFFFF000000
ENDCHAR
STARTCHAR 0044
ENCODING 68
SWIDTH 881 0
DWIDTH 141 0
BBX 125 123 2 1
BITMAP
FFFFFFFFFFFFFFFFFFFF000000000000
FFFFFFFFFFFFFFFFFFFFF00000000000
FFFFFFFFFFFFFFFFFFFFFE0000000000
FFFFFFFFFFFFFFFFFFFFFFC000000000
FFFFFFFFFFFFFFFFFFFFFFF000000000
FFFFFFFFFFFFFFFFFFFFFFFC00000000
FFFFFFFFFFFFFFFFFFFFFFFF00000000
FFFFFFFFFFFFFFFFFFFFFFFF80000000
FFFFFFFFFFFFFFFFFFFFFFFFE0000000
FFFFFFFFFFFFFFFFFFFFFFFFF0000000
FFFFFFFFFFFFFFFFFFFFFFFFF8000000
FFFFFFFFFFFFFFFFFFFFFFFFFC000000
FFFFFFFFFFFFFFFFFFFFFFFFFE000000
FFFFFFFFFFFFFFFFFFFFFFFFFF000000
FFFFFFFFFFFFFFFFFFFFFFFFFF800000
FFFFFFFFFFFFFFFFFFFFFFFFFFC00000
FFFFFFFFFFFFFFFFFFFFFFFFFFE00000
FFFFFFFFFFFFFFFFFFFFFFFFFFF00000
FFFFFFFFFFFFFFFFFFFFFFFFFFF80000
FFFFE00000000000000FFFFFFFFC0000
FFFFE000000000000000FFFFFFFC0000
FFFFE0000000000000003FFFFFFE0000
FFFFE0000000000000000FFFFFFF0000
FFFFE00000000000000003FFFFFF0000
FFFFE00000000000000001FFFFFF8000
FFFFE00000000000000000FFFFFFC000
FFFFE000000000000000003FFFFFC000
FFFFE000000000000000001FFFFFE000
FFFFE000000000000000000FFFFFE000
FFFFE0000000000000000007FFFFF000
FFFFE0000000000000000007FFFFF800
FFFFE0000000000000000003FFFFF800
FFFFE0000000000000000001FFFFFC00
FFFFE0000000000000000000FFFFFC00
FFFFE0000000000000000000FFFFFE00
FFFFE00000000000000000007FFFFE00
FFFFE00000000000000000003FFFFF00
FFFFE00000000000000000003FFFFF00
FFFFE00000000000000000001FFFFF00
FFFFE00000000000000000000FFFFF80
FFFFE00000000000000000000FFFFF80
FFFFE000000000000000000007FFFFC0
FFFFE000000000000000000007FFFFC0
FFFFE000000000000000000003FFFFC0
FFFFE000000000000000000003FFFFC0
FFFFE000000000000000000003FFFFE0
FFFFE000000000000000000001FFFFE0
FFFFE000000000000000000001FFFFE0
FFFFE000000000000000000000FFFFF0
FFFFE000000000000000000000FFFFF0
FFFFE000000000000000000000FFFFF0
FFFFE0000000000000000000007FFFF0
FFFFE0000000000000000000007FFFF0
FFFFE0000000000000000000007FFFF0
FFFFE0000000000000000000007FFFF8
FFFFE0000000000000000000007FFFF8
FFFFE0000000000000000000003FFFF8
FFFFE0000000000000000000003FFFF8
FFFFE0000000000000000000003FFFF8
FFFFE0000000000000000000003FFFF8
FFFFE0000000000000000000003FFFF8
FFFFE0000000000000000000003FFFF8
FFFFE0000000000000000000003FFFF8
FFFFE0000000000000000000003FFFF8
FFFFE0000000000000000000003FFFF8
FFFFE0000000000000000000003FFFF8
FFFFE0000000000000000000003FFFF8
FFFFE0000000000000000000003FFFF8
FFFFE0000000000000000000007FFFF8
FFFFE0000000000000000000007FFFF0
FFFFE0000000000000000000007FFFF0
FFFFE0000000000000000000007FFFF0
FFFFE0000000000000000000007FFFF0
FFFFE000000000000000000000FFFFF0
FFFFE000000000000000000000FFFFF0
FFFFE000000000000000000000FFFFE0
FFFFE000000000000000000001FFFFE0
FFFFE000000000000000000001FFFFE0
FFFFE000000000000000000003FFFFE0
FFFFE000000000000000000003FFFFC0
FFFFE000000000000000000007FFFFC0
FFFFE000000000000000000007FFFFC0
FFFFE00000000000000000000FFFFF80
FFFFE00000000000000000000FFFFF80
FFFFE00000000000000000001FFFFF80
FFFFE00000000000000000001FFFFF00
FFFFE00000000000000000003FFFFF00
FFFFE00000000000000000007FFFFE00
FFFFE00000000000000000007FFFFE00
FFFFE0000000000000000000FFFFFC00
FFFFE0000000000000000001FFFFFC00
FFFFE0000000000000000003FFFFF800
FFFFE0000000000000000007FFFFF800
FFFFE000000000000000000FFFFFF000
FFFFE000000000000000001FFFFFF000
FFFFE000000000000000003FFFFFE000
FFFFE000000000000000007FFFFFE000
FFFFE00000000000000000FFFFFFC000
FFFFE00000000000000001FFFFFF8000
FFFFE00000000000000007FFFFFF8000
FFFFE0000000000000001FFFFFFF0000
FFFFE0000000000000007FFFFFFE0000
FFFFE000000000000001FFFFFFFC0000
FFFFE00000000000001FFFFFFFFC0000
FFFFFFFFFFFFFFFFFFFFFFFFFFF80000
FFFFFFFFFFFFFFFFFFFFFFFFFFF00000
FFFFFFFFFFFFFFFFFFFFFFFFFFE00000
FFFFFFFFFFFFFFFFFFFFFFFFFFC00000
FFFFFFFFFFFFFFFFFFFFFFFFFF800000
FFFFFFFFFFFFFFFFFFFFFFFFFF000000
FFFFFFFFFFFFFFFFFFFFFFFFFE000000
FFFFFFFFFFFFFFFFFFFFFFFFFC000000
FFFFFFFFFFFFFFFFFFFFFFFFF8000000
FFFFFFFFFFFFFFFFFFFFFFFFF0000000
FFFFFFFFFFFFFFFFFFFFFFFFE0000000
FFFFFFFFFFFFFFFFFFFFFFFF80000000
FFFFFFFFFFFFFFFFFFFFFFFF00000000
FFFFFFFFFFFFFFFFFFFFFFFC00000000
FFFFFFFFFFFFFFFFFFFFFFF000000000
FFFFFFFFFFFFFFFFFFFFFFC000000000
FFFFFFFFFFFFFFFFFFFFFF0000000000
FFFFFFFFFFFFFFFFFFFFF80000000000
FFFFFFFFFFFFFFFFFFFF000000000000
ENDCHAR
STARTCHAR 0045
ENCODING 69
SWIDTH 818 0
DWIDTH 131 0
BBX 132 123 2 0
BITMAP
0000000000FFFFFFFFFFFFFFFFFFFFFFC0
000000001FFFFFFFFFFFFFFFFFFFFFFF80
00000000FFFFFFFFFFFFFFFFFFFFFFFF00
00000003FFFFFFFFFFFFFFFFFFFFFFFE00
0000000FFFFFFFFFFFFFFFFFFFFFFFFC00
0000003FFFFFFFFFFFFFFFFFFFFFFFF800
0000007FFFFFFFFFFFFFFFFFFFFFFFF000
000001FFFFFFFFFFFFFFFFFFFFFFFFE000
000003FFFFFFFFFFFFFFFFFFFFFFFFC000
000007FFFFFFFFFFFFFFFFFFFFFFFF8000
00000FFFFFFFFFFFFFFFFFFFFFFFFF0000
00001FFFFFFFFFFFFFFFFFFFFFFFFE0000
00003FFFFFFFFFFFFFFFFFFFFFFFFC0000
00007FFFFFFFFFFFFFFFFFFFFFFFF80000
0000FFFFFFFFFFFFFFFFFFFFFFFFF00000
0001FFFFFFFFFFFFFFFFFFFFFFFFE00000
0001FFFFFFFFFFFFFFFFFFFFFFFFC00000
0003FFFFFFFFFFFFFFFFFFFFFFFF800000
0007FFFFFFFFFFFFFFFFFFFFFFFF000000
000FFFFFFFFF8000000000000000000000
000FFFFFFFFC0000000000000000000000
001FFFFFFFF00000000000000000000000
001FFFFFFFC00000000000000000000000
003FFFFFFF000000000000000000000000
003FFFFFFE000000000000000000000000
007FFFFFFC000000000000000000000000
00FFFFFFF8000000000000000000000000
00FFFFFFE0000000000000000000000000
00FFFFFFC0000000000000000000000000
01FFFFFF80000000000000000000000000
01FFFFFF00000000000000000000000000
03FFFFFE00000000000000000000000000
03FFFFFC00000000000000000000000000
07FFFFFC00000000000000000000000000
07FFFFF800000000000000000000000000
07FFFFF000000000000000000000000000
0FFFFFE000000000000000000000000000
0FFFFFE000000000000000000000000000
0FFFFFC000000000000000000000000000
1FFFFF8000000000000000000000000000
1FFFFF8000000000000000000000000000
1FFFFF0000000000000000000000000000
3FFFFF0000000000000000000000000000
3FFFFF0000000000000000000000000000
3FFFFE0000000000000000000000000000
3FFFFE0000000000000000000000000000
3FFFFE0000000000000000000000000000
7FFFFC0000000000000000000000000000
7FFFFC0000000000000000000000000000
7FFFFC0000000000000000000000000000
7FFFFFFFFFFFFFFFFFFFFFFFFFFFF00000
7FFFFFFFFFFFFFFFFFFFFFFFFFFFE00000
7FFFFFFFFFFFFFFFFFFFFFFFFFFFC00000
7FFFFFFFFFFFFFFFFFFFFFFFFFFF800000
7FFFFFFFFFFFFFFFFFFFFFFFFFFF000000
FFFFFFFFFFFFFFFFFFFFFFFFFFFE000000
FFFFFFFFFFFFFFFFFFFFFFFFFFFC000000
FFFFFFFFFFFFFFFFFFFFFFFFFFF8000000
FFFFFFFFFFFFFFFFFFFFFFFFFFF0000000
FFFFFFFFFFFFFFFFFFFFFFFFFFE0000000
FFFFFFFFFFFFFFFFFFFFFFFFFFC0000000
FFFFFFFFFFFFFFFFFFFFFFFFFF80000000
FFFFFFFFFFFFFFFFFFFFFFFFFF00000000
7FFFFFFFFFFFFFFFFFFFFFFFFE00000000
7FFFFFFFFFFFFFFFFFFFFFFFFC00000000
7FFFFFFFFFFFFFFFFFFFFFFFF800000000
7FFFFFFFFFFFFFFFFFFFFFFFF000000000
7FFFFFFFFFFFFFFFFFFFFFFFE000000000
7FFFFFFFFFFFFFFFFFFFFFFFC000000000
7FFFFFFFFFFFFFFFFFFFFFFF8000000000
7FFFFFFFFFFFFFFFFFFFFFFF0000000000
7FFFFFFFFFFFFFFFFFFFFFFE0000000000
3FFFFC0000000000000000000000000000
3FFFFC0000000000000000000000000000
3FFFFC0000000000000000000000000000
3FFFFC0000000000000000000000000000
3FFFFC0000000000000000000000000000
1FFFFE0000000000000000000000000000
1FFFFE0000000000000000000000000000
1FFFFF0000000000000000000000000000
0FFFFF0000000000000000000000000000
0FFFFF8000000000000000000000000000
0FFFFF8000000000000000000000000000
0FFFFFC000000000000000000000000000
07FFFFC000000000000000000000000000
07FFFFE000000000000000000000000000
03FFFFE000000000000000000000000000
03FFFFF000000000000000000000000000
03FFFFF800000000000000000000000000
01FFFFFC00000000000000000000000000
01FFFFFC00000000000000000000000000
00FFFFFE00000000000000000000000000
00FFFFFF00000000000000000000000000
00FFFFFF80000000000000000000000000
007FFFFFC0000000000000000000000000
007FFFFFE0000000000000000000000000
003FFFFFF0000000000000000000000000
003FFFFFF8000000000000000000000000
001FFFFFFC000000000000000000000000
001FFFFFFE000000000000000000000000
000FFFFFFF800000000000000000000000
0007FFFFFFC00000000000000000000070
0007FFFFFFF800000000000000000003E0
0003FFFFFFFF0000000000000000003FC0
0003FFFFFFFFFFFFFFFFFFFFFFFFFFFF80
0001FFFFFFFFFFFFFFFFFFFFFFFFFFFF00
0000FFFFFFFFFFFFFFFFFFFFFFFFFFFE00
00007FFFFFFFFFFFFFFFFFFFFFFFFFFC00
00007FFFFFFFFFFFFFFFFFFFFFFFFFF800
00003FFFFFFFFFFFFFFFFFFFFFFFFFF000
00001FFFFFFFFFFFFFFFFFFFFFFFFFE000
00000FFFFFFFFFFFFFFFFFFFFFFFFFC000
000007FFFFFFFFFFFFFFFFFFFFFFFF8000
000003FFFFFFFFFFFFFFFFFFFFFFFF0000
000001FFFFFFFFFFFFFFFFFFFFFFFE0000
000000FFFFFFFFFFFFFFFFFFFFFFFC0000
0000007FFFFFFFFFFFFFFFFFFFFFFC0000
0000001FFFFFFFFFFFFFFFFFFFFFF80000
0000000FFFFFFFFFFFFFFFFFFFFFF00000
00000003FFFFFFFFFFFFFFFFFFFFE00000
00000000FFFFFFFFFFFFFFFFFFFFC00000
000000001FFFFFFFFFFFFFFFFFFF800000
0000000001FFFFFFFFFFFFFFFFFF000000
ENDCHAR
STARTCHAR 0046
ENCODING 70
SWIDTH 606 0
DWIDTH 97 0
BBX 103 128 0 -4
BITMAP
FFFFFFFFFFFFFFFFFFFFFFFFFE
FFFFFFFFFFFFFFFFFFFFFFFFFC
FFFFFFFFFFFFFFFFFFFFFFFFF8
FFFFFFFFFFFFFFFFFFFFFFFFF0
FFFFFFFFFFFFFFFFFFFFFFFFE0
FFFFFFFFFFFFFFFFFFFFFFFFC0
FFFFFFFFFFFFFFFFFFFFFFFF80
FFFFFFFFFFFFFFFFFFFFFFFF00
FFFFFFFFFFFFFFFFFFFFFFFE00
FFFFFFFFFFFFFFFFFFFFFFFC00
FFFFFFFFFFFFFFFFFFFFFFF800
FFFFFFFFFFFFFFFFFFFFFFF000
FFFFFFFFFFFFFFFFFFFFFFE000
FFFFFFFFFFFFFFFFFFFFFFC000
FFFFFFFFFFFFFFFFFFFFFF8000
FFFFFFFFFFFFFFFFFFFFFF0000
FFFFFFFFFFFFFFFFFFFFFE0000
FFFFFFFFFFFFFFFFFFFFFC0000
FFFFFFFFFFFFFFFFFFFFF80000
FFFFE000000000000000000000
FFFFE000000000000000000000
FFFFE000000000000000000000
FFFFE000000000000000000000
FFFFE000000000000000000000
FFFFE000000000000000000000
FFFFE000000000000000000000
FFFFE000000000000000000000
FFFFE000000000000000000000
FFFFE000000000000000000000
FFFFE000000000000000000000
FFFFE000000000000000000000
FFFFE000000000000000000000
FFFFE000000000000000000000
FFFFE000000000000000000000
FFFFE000000000000000000000
FFFFE000000000000000000000
FFFFE000000000000000000000
FFFFE000000000000000000000
FFFFE000000000000000000000
FFFFE000000000000000000000
FFFFE000000000000000000000
FFFFE000000000000000000000
FFFFE000000000000000000000
FFFFE000000000000000000000
FFFFE000000000000000000000
FFFFE000000000000000000000
FFFFE000000000000000000000
FFFFE000000000000000000000
FFFFE000000000000000000000
FFFFE000000000000000000000
FFFFFFFFFFFFFFFFFFFE000000
FFFFFFFFFFFFFFFFFFFC000000
FFFFFFFFFFFFFFFFFFF8000000
FFFFFFFFFFFFFFFFFFF0000000
FFFFFFFFFFFFFFFFFFE0000000
FFFFFFFFFFFFFFFFFF80000000
FFFFFFFFFFFFFFFFFF00000000
FFFFFFFFFFFFFFFFFE00000000
FFFFFFFFFFFFFFFFFC00000000
FFFFFFFFFFFFFFFFF800000000
FFFFFFFFFFFFFFFFF000000000
FFFFFFFFFFFFFFFFE000000000
FFFFFFFFFFFFFFFFC000000000
FFFFFFFFFFFFFFFF8000000000
FFFFFFFFFFFFFFFF0000000000
FFFFFFFFFFFFFFFE0000000000
FFFFFFFFFFFFFFFC0000000000
FFFFFFFFFFFFFFF80000000000
FFFFFFFFFFFFFFF00000000000
FFFFE000000000000000000000
FFFFE000000000000000000000
FFFFE000000000000000000000
FFFFE000000000000000000000
FFFFE000000000000000000000
FFFFE000000000000000000000
FFFFE000000000000000000000
FFFFE000000000000000000000
FFFFE000000000000000000000
FFFFE000000000000000000000
FFFFE000000000000000000000
FFFFE000000000000000000000
FFFFE000000000000000000000
FFFFE000000000000000000000
FFFFE000000000000000000000
FFFFE000000000000000000000
FFFFE000000000000000000000
FFFFE000000000000000000000
FFFFE000000000000000000000
FFFFE000000000000000000000
FFFFE000000000000000000000
FFFFE000000000000000000000
FFFFE000000000000000000000
FFFFE000000000000000000000
FFFFE000000000000000000000
FFFFE000000000000000000000
FFFFE000000000000000000000
FFFFE000000000000000000000
FFFFE000000000000000000000
FFFFE000000000000000000000
FFFFE000000000000000000000
FFFFE000000000000000000000
FFFFE000000000000000000000
FFFFE000000000000000000000
FFFFE000000000000000000000
FFFFE000000000000000000000
FFFFE000000000000000000000
FFFFE000000000000000000000
FFFFE000000000000000000000
FFFFE000000000000000000000
FFFFE000000000000000000000
FFFFE000000000000000000000
FFFFE000000000000000000000
FFFFE000000000000000000000
FFFFE000000000000000000000
FFFFE000000000000000000000
FFFFE000000000000000000000
FFFFE000000000000000000000
FFFFE000000000000000000000
FFFFE000000000000000000000
FFFFE000000000000000000000
FFFFE000000000000000000000
FFFFE000000000000000000000
FFFFE000000000000000000000
FFFE0000000000000000000000
FFE00000000000000000000000
FF000000000000000000000000
F8000000000000000000000000
C0000000000000000000000000
ENDCHAR
STARTCHAR 0047
ENCODING 71
SWIDTH 800 0
DWIDTH 128 0
BBX 123 123 2 -1
BITMAP
000000000007FFFFFFFFFFFFFFFFFFE0
0000000000FFFFFFFFFFFFFFFFFFFFC0
0000000007FFFFFFFFFFFFFFFFFFFF80
000000003FFFFFFFFFFFFFFFFFFFFF00
00000000FFFFFFFFFFFFFFFFFFFFFE00
00000001FFFFFFFFFFFFFFFFFFFFFC00
00000007FFFFFFFFFFFFFFFFFFFFF800
0000001FFFFFFFFFFFFFFFFFFFFFF000
0000003FFFFFFFFFFFFFFFFFFFFFE000
0000007FFFFFFFFFFFFFFFFFFFFFC000
000000FFFFFFFFFFFFFFFFFFFFFF8000
000001FFFFFFFFFFFFFFFFFFFFFE0000
000007FFFFFFFFFFFFFFFFFFFFFC0000
00000FFFFFFFFFFFFFFFFFFFFFF80000
00000FFFFFFFFFFFFFFFFFFFFFF00000
00001FFFFFFFFFFFFFFFFFFFFFE00000
00003FFFFFFFFFFFFFFFFFFFFFC00000
00007FFFFFFFFFFFFFFFFFFFFF800000
0000FFFFFFFFFFFFFFFFFFFFFF000000
0001FFFFFFFFFFFFFFF8000000000000
0001FFFFFFFF80000000000000000000
0003FFFFFFFC00000000000000000000
0007FFFFFFE000000000000000000000
0007FFFFFF8000000000000000000000
000FFFFFFE0000000000000000000000
001FFFFFF80000000000000000000000
001FFFFFF00000000000000000000000
003FFFFFE00000000000000000000000
003FFFFFC00000000000000000000000
007FFFFF800000000000000000000000
007FFFFF000000000000000000000000
00FFFFFE000000000000000000000000
01FFFFFC000000000000000000000000
01FFFFF8000000000000000000000000
01FFFFF8000000000000000000000000
03FFFFF0000000000000000000000000
03FFFFF0000000000000000000000000
07FFFFE0000000000000000000000000
07FFFFC0000000000000000000000000
0FFFFFC0000000000000000000000000
0FFFFF80000000000000000000000000
0FFFFF80000000000000000000000000
1FFFFF80000000000000000000000000
1FFFFF00000000000000000000000000
1FFFFF00000000000000000000000000
3FFFFE00000000000000000000000000
3FFFFE00000000000000000000000000
3FFFFE00000000000000000000000000
3FFFFE00000000000000000000000000
7FFFFC00000000001FFFFFFFFFFFFF00
7FFFFC00000000003FFFFFFFFFFFFF00
7FFFFC00000000003FFFFFFFFFFFFF00
7FFFFC00000000007FFFFFFFFFFFFF00
7FFFFC0000000000FFFFFFFFFFFFFF00
FFFFF80000000001FFFFFFFFFFFFFF00
FFFFF80000000003FFFFFFFFFFFFFF00
FFFFF80000000007FFFFFFFFFFFFFF00
FFFFF8000000000FFFFFFFFFFFFFFF00
FFFFF8000000001FFFFFFFFFFFFFFF00
FFFFF8000000003FFFFFFFFFFFFFFF00
FFFFF8000000007FFFFFFFFFFFFFFF00
FFFFF800000000FFFFFFFFFFFFFFFF00
FFFFF800000001FFFFFFFFFFFFFFFF00
FFFFF800000003FFFFFFFFFFFFFFFF00
FFFFF800000007FFFFFFFFFFFFFFFF00
FFFFF80000000FFFFFFFFFFFFFFFFF00
FFFFF80000001FFFFFFFFFFFFFFFFF00
FFFFF80000003FFFFFFFFFFFFFFFFF00
FFFFF800000000000000000007FFFF00
FFFFFC00000000000000000007FFFF00
7FFFFC00000000000000000007FFFF00
7FFFFC00000000000000000007FFFF00
7FFFFC00000000000000000007FFFF00
7FFFFC00000000000000000007FFFF00
7FFFFE00000000000000000007FFFF00
7FFFFE00000000000000000007FFFF00
3FFFFE00000000000000000007FFFF00
3FFFFF00000000000000000007FFFF00
3FFFFF00000000000000000007FFFF00
3FFFFF00000000000000000007FFFF00
1FFFFF80000000000000000007FFFF00
1FFFFF80000000000000000007FFFF00
1FFFFF80000000000000000007FFFF00
0FFFFFC0000000000000000007FFFF00
0FFFFFC0000000000000000007FFFF00
0FFFFFE0000000000000000007FFFF00
07FFFFE0000000000000000007FFFF00
07FFFFF0000000000000000007FFFF00
03FFFFF0000000000000000007FFFF00
03FFFFF8000000000000000007FFFF00
01FFFFF8000000000000000007FFFF00
01FFFFFC000000000000000007FFFF00
00FFFFFE000000000000000007FFFF00
00FFFFFE000000000000000007FFFF00
007FFFFF000000000000000007FFFF00
007FFFFF800000000000000007FFFF00
003FFFFFC00000000000000007FFFF00
001FFFFFE00000000000000007FFFF00
001FFFFFF00000000000000007FFFF00
000FFFFFF80000000000000007FFFF00
0007FFFFFE0000000000000007FFFF00
0007FFFFFF0000000000000007FFFF00
0003FFFFFFC000000000000007FFFF00
0001FFFFFFFC00000000000007FFFF00
0000FFFFFFFFFFFFFFFFFFFFFFFFFF00
00007FFFFFFFFFFFFFFFFFFFFFFFFF00
00003FFFFFFFFFFFFFFFFFFFFFFFFF00
00001FFFFFFFFFFFFFFFFFFFFFFFFF00
00000FFFFFFFFFFFFFFFFFFFFFFFFF00
000007FFFFFFFFFFFFFFFFFFFFFFFF00
000003FFFFFFFFFFFFFFFFFFFFFFFF00
000001FFFFFFFFFFFFFFFFFFFFFFFF00
000000FFFFFFFFFFFFFFFFFFFFFFFF00
0000003FFFFFFFFFFFFFFFFFFFFFFF00
0000001FFFFFFFFFFFFFFFFFFFFFFF00
00000007FFFFFFFFFFFFFFFFFFFFFF00
00000001FFFFFFFFFFFFFFFFFFFFFF00
00000000FFFFFFFFFFFFFFFFFFFFFF00
000000001FFFFFFFFFFFFFFFFFFFFF00
0000000007FFFFFFFFFFFFFFFFFFFF00
0000000001FFFFFFFFFFFFFFFFFFFF00
00000000003FFFFFFFFFFFFFFFFFFF00
000000000007FFFFFFFFFFFFFFFFFF00
ENDCHAR
STARTCHAR 0048
ENCODING 72
SWIDTH 756 0
DWIDTH 121 0
BBX 109 130 3 -6
BITMAP
FFFFF80000000000000000FFFFF8
FFFFF80000000000000000FFFFF8
FFFFF80000000000000000FFFFF8
FFFFF80000000000000000FFFFF8
FFFFF80000000000000000FFFFF8
FFFFF80000000000000000FFFFF8
FFFFF80000000000000000FFFFF8
FFFFF80000000000000000FFFFF8
FFFFF80000000000000000FFFFF8
FFFFF80000000000000000FFFFF8
FFFFF80000000000000000FFFFF8
FFFFF80000000000000000FFFFF8
FFFFF80000000000000000FFFFF8
FFFFF80000000000000000FFFFF8
FFFFF80000000000000000FFFFF8
FFFFF80000000000000000FFFFF8
FFFFF80000000000000000FFFFF8
FFFFF80000000000000000FFFFF8
FFFFF80000000000000000FFFFF8
FFFFF80000000000000000FFFFF8
FFFFF80000000000000000FFFFF8
FFFFF80000000000000000FFFFF8
FFFFF80000000000000000FFFFF8
FFFFF80000000000000000FFFFF8
FFFFF80000000000000000FFFFF8
FFFFF80000000000000000FFFFF8
FFFFF80000000000000000FFFFF8
FFFFF80000000000000000FFFFF8
FFFFF80000000000000000FFFFF8
FFFFF80000000000000000FFFFF8
FFFFF80000000000000000FFFFF8
FFFFF80000000000000000FFFFF8
FFFFF80000000000000000FFFFF8
FFFFF80000000000000000FFFFF8
FFFFF80000000000000000FFFFF8
FFFFF80000000000000000FFFFF8
FFFFF80000000000000000FFFFF8
FFFFF80000000000000000FFFFF8
FFFFF80000000000000000FFFFF8
FFFFF80000000000000000FFFFF8
FFFFF80000000000000000FFFFF8
FFFFF80000000000000000FFFFF8
FFFFF80000000000000000FFFFF8
FFFFF80000000000000000FFFFF8
FFFFF80000000000000000FFFFF8
FFFFF80000000000000000FFFFF8
FFFFF80000000000000000FFFFF8
FFFFF80000000000000000FFFFF8
FFFFF8FFFFFFFFFFFFFFFFFFFFF8
FFFFF8FFFFFFFFFFFFFFFFFFFFF8
FFFFF8FFFFFFFFFFFFFFFFFFFFF8
FFFFF8FFFFFFFFFFFFFFFFFFFFF8
FFFFF8FFFFFFFFFFFFFFFFFFFFF8
FFFFF8FFFFFFFFFFFFFFFFFFFFF8
FFFFF8FFFFFFFFFFFFFFFFFFFFF8
FFFFF8FFFFFFFFFFFFFFFFFFFFF8
FFFFF8FFFFFFFFFFFFFFFFFFFFF8
FFFFF8FFFFFFFFFFFFFFFFFFFFF8
FFFFF8FFFFFFFFFFFFFFFFFFFFF8
FFFFF8FFFFFFFFFFFFFFFFFFFFF8
FFFFF8FFFFFFFFFFFFFFFFFFFFF8
FFFFF8FFFFFFFFFFFFFFFFFFFFF8
FFFFF8FFFFFFFFFFFFFFFFFFFFF8
FFFFF8FFFFFFFFFFFFFFFFFFFFF8
FFFFF8FFFFFFFFFFFFFFFFFFFFF8
FFFFF8FFFFFFFFFFFFFFFFFFFFF8
FFFFF8FFFFFFFFFFFFFFFFFFFFF8
FFFFF80000000000000000FFFFF8
FFFFF80000000000000000FFFFF8
FFFFF80000000000000000FFFFF8
FFFFF80000000000000000FFFFF8
FFFFF80000000000000000FFFFF8
FFFFF80000000000000000FFFFF8
FFFFF80000000000000000FFFFF8
FFFFF80000000000000000FFFFF8
FFFFF80000000000000000FFFFF8
FFFFF80000000000000000FFFFF8
FFFFF80000000000000000FFFFF8
FFFFF80000000000000000FFFFF8
FFFFF80000000000000000FFFFF8
FFFFF80000000000000000FFFFF8
FFFFF80000000000000000FFFFF8
FFFFF80000000000000000FFFFF8
FFFFF80000000000000000FFFFF8
FFFFF80000000000000000FFFFF8
FFFFF80000000000000000FFFFF8
FFFFF80000000000000000FFFFF8
FFFFF80000000000000000FFFFF8
FFFFF80000000000000000FFFFF8
FFFFF80000000000000000FFFFF8
FFFFF80000000000000000FFFFF8
FFFFF80000000000000000FFFFF8
FFFFF80000000000000000FFFFF8
FFFFF80000000000000000FFFFF8
FFFFF80000000000000000FFFFF8
FFFFF80000000000000000FFFFF8
FFFFF80000000000000000FFFFF8
FFFFF80000000000000000FFFFF8
FFFFF80000000000000000FFFFF8
FFFFF80000000000000000FFFFF8
FFFFF80000000000000000FFFFF8
FFFFF80000000000000000FFFFF8
FFFFF80000000000000000FFFFF8
FFFFF80000000000000000FFFFF8
FFFFF80000000000000000FFFFF8
FFFFF80000000000000000FFFFF8
FFFFF80000000000000000FFFFF8
FFFFF80000000000000000FFFFF8
FFFFF80000000000000000FFFFF8
FFFFF80000000000000000FFFFF8
FFFFF80000000000000000FFFFF8
FFFFF80000000000000000FFFFF8
FFFFF80000000000000000FFFFF8
FFFFF80000000000000000FFFFF8
FFFFF80000000000000000FFFFF8
FFFFF80000000000000000FFFFF8
FFFFF80000000000000000FFFFF8
FFFFF80000000000000000FFFFF8
FFFFF80000000000000000FFFFF8
FFFFF80000000000000000FFFFF8
FFFFF80000000000000000FFFFF8
FFFFF80000000000000000FFFFF8
FFFFF80000000000000000FFFFF8
FFFFF80000000000000000FFFFE0
FFFFF80000000000000000FFFE00
FFFFE00000000000000000FFE000
FFFE000000000000000000FE0000
FFE0000000000000000000C00000
FE00000000000000000000000000
C000000000000000000000000000
ENDCHAR
STARTCHAR 0049
ENCODING 73
SWIDTH 218 0
DWIDTH 35 0
BBX 19 127 6 -4
BITMAP
FFFFE0
FFFFE0
FFFFE0
FFFFE0
FFFFE0
FFFFE0
FFFFE0
FFFFE0
FFFFE0
FFFFE0
FFFFE0
FFFFE0
FFFFE0
FFFFE0
FFFFE0
FFFFE0
FFFFE0
FFFFE0
FFFFE0
FFFFE0
FFFFE0
FFFFE0
FFFFE0
FFFFE0
FFFFE0
FFFFE0
FFFFE0
FFFFE0
FFFFE0
FFFFE0
FFFFE0
FFFFE0
FFFFE0
FFFFE0
FFFFE0
FFFFE0
FFFFE0
FFFFE0
FFFFE0
FFFFE0
FFFFE0
FFFFE0
FFFFE0
FFFFE0
FFFFE0
FFFFE0
FFFFE0
FFFFE0
FFFFE0
FFFFE0
FFFFE0
FFFFE0
FFFFE0
FFFFE0
FFFFE0
FFFFE0
FFFFE0
FFFFE0
FFFFE0
FFFFE0
FFFFE0
FFFFE0
FFFFE0
FFFFE0
FFFFE0
FFFFE0
FFFFE0
FFFFE0
FFFFE0
FFFFE0
FFFFE0
FFFFE0
FFFFE0
FFFFE0
FFFFE0
FFFFE0
FFFFE0
FFFFE0
FFFFE0
FFFFE0
FFFFE0
FFFFE0
FFFFE0
FFFFE0
FFFFE0
FFFFE0
FFFFE0
FFFFE0
FFFFE0
FFFFE0
FFFFE0
FFFFE0
FFFFE0
FFFFE0
FFFFE0
FFFFE0
FFFFE0
FFFFE0
FFFFE0
FFFFE0
FFFFE0
FFFFE0
FFFFE0
FFFFE0
FFFFE0
FFFFE0
FFFFE0
FFFFE0
FFFFE0
FFFFE0
FFFFE0
FFFFE0
FFFFE0
FFFFE0
FFFFE0
FFFFE0
FFFFE0
FFFFE0
FFFFE0
FFFFE0
FFFFE0
FFFFE0
FFFF80
FFFC00
FFC000
FC0000
C00000
ENDCHAR
STARTCHAR 004A
ENCODING 74
SWIDTH 575 0
DWIDTH 92 0
BBX 78 123 3 0
BITMAP
000000000000001FFFFC
000000000000001FFFFC
000000000000001FFFFC
000000000000001FFFFC
000000000000001FFFFC
000000000000001FFFFC
000000000000001FFFFC
000000000000001FFFFC
000000000000001FFFFC
000000000000001FFFFC
000000000000001FFFFC
000000000000001FFFFC
000000000000001FFFFC
000000000000001FFFFC
000000000000001FFFFC
000000000000001FFFFC
000000000000001FFFFC
000000000000001FFFFC
000000000000001FFFFC
000000000000001FFFFC
000000000000001FFFFC
000000000000001FFFFC
000000000000001FFFFC
000000000000001FFFFC
000000000000001FFFFC
000000000000001FFFFC
000000000000001FFFFC
000000000000001FFFFC
000000000000001FFFFC
000000000000001FFFFC
000000000000001FFFFC
000000000000001FFFFC
000000000000001FFFFC
000000000000001FFFFC
000000000000001FFFFC
000000000000001FFFFC
000000000000001FFFFC
000000000000001FFFFC
000000000000001FFFFC
000000000000001FFFFC
000000000000001FFFFC
000000000000001FFFFC
000000000000001FFFFC
000000000000001FFFFC
000000000000001FFFFC
000000000000001FFFFC
000000000000001FFFFC
000000000000001FFFFC
000000000000001FFFFC
000000000000001FFFFC
000000000000001FFFFC
000000000000001FFFFC
000000000000001FFFFC
000000000000001FFFFC
000000000000001FFFFC
000000000000001FFFFC
000000000000001FFFFC
000000000000001FFFFC
000000000000001FFFFC
000000000000001FFFFC
000000000000001FFFFC
000000000000001FFFFC
000000000000001FFFFC
000000000000001FFFFC
000000000000001FFFFC
000000000000001FFFFC
000000000000001FFFFC
000000000000001FFFFC
000000000000001FFFFC
000000000000001FFFFC
000000000000001FFFFC
000000000000001FFFFC
000000000000001FFFFC
000000000000001FFFFC
000000000000001FFFFC
000200000000001FFFFC
000600000000001FFFFC
000E00000000001FFFFC
001E00000000001FFFFC
003E00000000001FFFFC
007E00000000001FFFFC
00FE00000000001FFFFC
01FE00000000001FFFFC
03FE00000000001FFFFC
07FE00000000001FFFFC
0FFE00000000001FFFFC
1FFF00000000001FFFFC
3FFF00000000001FFFFC
3FFF00000000001FFFFC
7FFF80000000003FFFFC
FFFF80000000003FFFFC
FFFFC0000000003FFFFC
FFFFC0000000007FFFFC
FFFFE0000000007FFFF8
FFFFE000000000FFFFF8
7FFFF000000001FFFFF8
7FFFF800000001FFFFF8
7FFFFC00000003FFFFF0
7FFFFE00000007FFFFF0
3FFFFF0000000FFFFFF0
3FFFFFC000003FFFFFE0
1FFFFFE000007FFFFFE0
1FFFFFFC0003FFFFFFC0
0FFFFFFF801FFFFFFF80
07FFFFFFFFFFFFFFFF80
07FFFFFFFFFFFFFFFF00
03FFFFFFFFFFFFFFFE00
01FFFFFFFFFFFFFFFC00
00FFFFFFFFFFFFFFFC00
007FFFFFFFFFFFFFF800
003FFFFFFFFFFFFFF000
000FFFFFFFFFFFFFE000
0007FFFFFFFFFFFF8000
0003FFFFFFFFFFFF0000
0000FFFFFFFFFFFE0000
00007FFFFFFFFFFC0000
00001FFFFFFFFFF00000
000007FFFFFFFFE00000
000003FFFFFFFF800000
0000007FFFFFFE000000
0000001FFFFFF0000000
00000003FFFFC0000000
000000003FF800000000
ENDCHAR
STARTCHAR 004B
ENCODING 75
SWIDTH 675 0
DWIDTH 108 0
BBX 99 129 4 -4
BITMAP
FFFFE000000000003FFFFFF000
FFFFE000000000007FFFFFE000
FFFFE00000000000FFFFFFC000
FFFFE00000000001FFFFFF8000
FFFFE00000000003FFFFFF0000
FFFFE00000000007FFFFFE0000
FFFFE0000000001FFFFFFC0000
FFFFE0000000003FFFFFF80000
FFFFE0000000007FFFFFF00000
FFFFE000000000FFFFFFE00000
FFFFE000000001FFFFFFC00000
FFFFE000000003FFFFFF800000
FFFFE000000007FFFFFF000000
FFFFE00000000FFFFFFE000000
FFFFE00000001FFFFFFC000000
FFFFE00000003FFFFFF8000000
FFFFE00000007FFFFFF0000000
FFFFE0000000FFFFFFE0000000
FFFFE0000001FFFFFFC0000000
FFFFE0000003FFFFFF80000000
FFFFE0000007FFFFFF00000000
FFFFE000001FFFFFFC00000000
FFFFE000003FFFFFF800000000
FFFFE000007FFFFFF000000000
FFFFE00000FFFFFFE000000000
FFFFE00001FFFFFFC000000000
FFFFE00003FFFFFF8000000000
FFFFE00007FFFFFF0000000000
FFFFE0000FFFFFFE0000000000
FFFFE0001FFFFFFC0000000000
FFFFE0003FFFFFF80000000000
FFFFE0007FFFFFF00000000000
FFFFE000FFFFFFE00000000000
FFFFE001FFFFFFC00000000000
FFFFE003FFFFFF800000000000
FFFFE007FFFFFF000000000000
FFFFE00FFFFFFE000000000000
FFFFE03FFFFFFC000000000000
FFFFE07FFFFFF8000000000000
FFFFE0FFFFFFF0000000000000
FFFFE1FFFFFFE0000000000000
FFFFE3FFFFFFC0000000000000
FFFFE7FFFFFF80000000000000
FFFFEFFFFFFF00000000000000
FFFFFFFFFFFE00000000000000
FFFFFFFFFFFC00000000000000
FFFFFFFFFFF800000000000000
FFFFFFFFFFFFE0000000000000
FFFFFFFFFFFFFF000000000000
FFFFFFFFFFFFFFE00000000000
FFFFFFFFFFFFFFFC0000000000
FFFFFFFFFFFFFFFF0000000000
FFFFFFFFFFFFFFFFC000000000
FFFFFFFFFFFFFFFFE000000000
FFFFFFFFFFFFFFFFF800000000
FFFFFFFFFFFFFFFFFC00000000
FFFFFFFFFFFFFFFFFE00000000
FFFFFFFFFFFFFFFFFF80000000
FFFFFFFFFFFFFFFFFFC0000000
FFFFFFFFFFFFFFFFFFE0000000
FFFFFFFFFFFFFFFFFFF0000000
FFFFE000FFFFFFFFFFF8000000
FFFFE00001FFFFFFFFFC000000
FFFFE000001FFFFFFFFE000000
FFFFE0000003FFFFFFFF000000
FFFFE0000000FFFFFFFF800000
FFFFE00000001FFFFFFF800000
FFFFE00000000FFFFFFFC00000
FFFFE000000003FFFFFFE00000
FFFFE000000000FFFFFFF00000
FFFFE0000000007FFFFFF00000
FFFFE0000000001FFFFFF80000
FFFFE0000000000FFFFFFC0000
FFFFE00000000007FFFFFC0000
FFFFE00000000003FFFFFE0000
FFFFE00000000001FFFFFE0000
FFFFE00000000000FFFFFF0000
FFFFE000000000007FFFFF8000
FFFFE000000000003FFFFF8000
FFFFE000000000001FFFFFC000
FFFFE000000000000FFFFFC000
FFFFE0000000000007FFFFE000
FFFFE0000000000003FFFFE000
FFFFE0000000000001FFFFF000
FFFFE0000000000001FFFFF000
FFFFE0000000000000FFFFF800
FFFFE00000000000007FFFF800
FFFFE00000000000007FFFF800
FFFFE00000000000003FFFFC00
FFFFE00000000000001FFFFC00
FFFFE00000000000001FFFFE00
FFFFE00000000000000FFFFE00
FFFFE00000000000000FFFFE00
FFFFE000000000000007FFFF00
FFFFE000000000000007FFFF00
FFFFE000000000000007FFFF00
FFFFE000000000000003FFFF00
FFFFE000000000000003FFFF80
FFFFE000000000000001FFFF80
FFFFE000000000000001FFFF80
FFFFE000000000000001FFFF80
FFFFE000000000000001FFFFC0
FFFFE000000000000000FFFFC0
FFFFE000000000000000FFFFC0
FFFFE000000000000000FFFFC0
FFFFE000000000000000FFFFC0
FFFFE000000000000000FFFFE0
FFFFE0000000000000007FFFE0
FFFFE0000000000000007FFFE0
FFFFE0000000000000007FFFE0
FFFFE0000000000000007FFFE0
FFFFE0000000000000007FFFE0
FFFFE0000000000000007FFFE0
FFFFE0000000000000007FFFE0
FFFFE0000000000000007FFFE0
FFFFE0000000000000007FFFE0
FFFFE0000000000000007FFFE0
FFFFE0000000000000007FFFE0
FFFFE0000000000000007FFFE0
FFFFE0000000000000007FFFE0
FFFFE0000000000000007FFFE0
FFFFE0000000000000007FFFE0
FFFFE0000000000000007FFF80
FFFFE0000000000000007FFC00
FFFF8000000000000000FFE000
FFFC0000000000000000FF8000
FFC00000000000000000FC0000
FC000000000000000000E00000
C0000000000000000001800000
ENDCHAR
STARTCHAR 004C
ENCODING 76
SWIDTH 550 0
DWIDTH 88 0
BBX 76 123 4 1
BITMAP
FFFFE000000000000000
FFFFE000000000000000
FFFFE000000000000000
FFFFE000000000000000
FFFFE000000000000000
FFFFE000000000000000
FFFFE000000000000000
FFFFE000000000000000
FFFFE000000000000000
FFFFE000000000000000
FFFFE000000000000000
FFFFE000000000000000
FFFFE000000000000000
FFFFE000000000000000
FFFFE000000000000000
FFFFE000000000000000
FFFFE000000000000000
FFFFE000000000000000
FFFFE000000000000000
FFFFE000000000000000
FFFFE000000000000000
FFFFE000000000000000
FFFFE000000000000000
FFFFE000000000000000
FFFFE000000000000000
FFFFE000000000000000
FFFFE000000000000000
FFFFE000000000000000
FFFFE000000000000000
FFFFE000000000000000
FFFFE000000000000000
FFFFE000000000000000
FFFFE000000000000000
FFFFE000000000000000
FFFFE000000000000000
FFFFE000000000000000
FFFFE000000000000000
FFFFE000000000000000
FFFFE000000000000000
FFFFE000000000000000
FFFFE000000000000000
FFFFE000000000000000
FFFFE000000000000000
FFFFE000000000000000
FFFFE000000000000000
FFFFE000000000000000
FFFFE000000000000000
FFFFE000000000000000
FFFFE000000000000000
FFFFE000000000000000
FFFFE000000000000000
FFFFE000000000000000
FFFFE000000000000000
FFFFE000000000000000
FFFFE000000000000000
FFFFE000000000000000
FFFFE000000000000000
FFFFE000000000000000
FFFFE000000000000000
FFFFE000000000000000
FFFFE000000000000000
FFFFE000000000000000
FFFFE000000000000000
FFFFE000000000000000
FFFFE000000000000000
FFFFE000000000000000
FFFFE000000000000000
FFFFE000000000000000
FFFFE000000000000000
FFFFE000000000000000
FFFFE000000000000000
FFFFE000000000000000
FFFFE000000000000000
FFFFE000000000000000
FFFFE000000000000000
FFFFE000000000000000
FFFFE000000000000000
FFFFE000000000000000
FFFFE000000000000000
FFFFE000000000000000
FFFFE000000000000000
FFFFE000000000000000
FFFFE000000000000000
FFFFE000000000000000
FFFFE000000000000000
FFFFE000000000000000
FFFFE000000000000000
FFFFE000000000000000
FFFFE000000000000000
FFFFE000000000000000
FFFFE000000000000000
FFFFE000000000000000
FFFFE000000000000000
FFFFE000000000000000
FFFFE000000000000000
FFFFE000000000000000
FFFFE000000000000000
FFFFE000000000000000
FFFFE000000000000000
FFFFE000000000000000
FFFFE000000000000000
FFFFE000000000000000
FFFFE000000000000010
FFFFE000000000000FE0
FFFFFFFFFFFFFFFFFFC0
FFFFFFFFFFFFFFFFFF80
FFFFFFFFFFFFFFFFFF00
FFFFFFFFFFFFFFFFFE00
FFFFFFFFFFFFFFFFFC00
FFFFFFFFFFFFFFFFF800
FFFFFFFFFFFFFFFFF000
FFFFFFFFFFFFFFFFE000
FFFFFFFFFFFFFFFFC000
FFFFFFFFFFFFFFFF8000
FFFFFFFFFFFFFFFF0000
FFFFFFFFFFFFFFFE0000
FFFFFFFFFFFFFFFC0000
FFFFFFFFFFFFFFF80000
FFFFFFFFFFFFFFF00000
FFFFFFFFFFFFFFE00000
FFFFFFFFFFFFFFC00000
FFFFFFFFFFFFFF800000
FFFFFFFFFFFFFE000000
ENDCHAR
STARTCHAR 004D
ENCODING 77
SWIDTH 1193 0
DWIDTH 191 0
BBX 174 129 4 -5
BITMAP
00000000000200000000000000000000800000000000
00000000000600000000000000000000C00000000000
00000000000700000000000000000001C00000000000
00000000000700000000000000000001C00000000000
00000000000F80000000000000000003E00000000000
00000000000F80000000000000000003E00000000000
00000000000FC0000000000000000007F00000000000
00000000001FC0000000000000000007F00000000000
00000000001FE000000000000000000FF00000000000
00000000001FE000000000000000000FF80000000000
00000000003FF000000000000000001FF80000000000
00000000003FF000000000000000001FF80000000000
00000000007FF800000000000000003FFC0000000000
00000000007FF800000000000000003FFC0000000000
00000000007FFC00000000000000007FFC0000000000
0000000000FFFC00000000000000007FFE0000000000
0000000000FFFE0000000000000000FFFE0000000000
0000000000FFFE0000000000000000FFFF0000000000
0000000001FFFF0000000000000001FFFF0000000000
0000000001FFFF0000000000000001FFFF0000000000
0000000001FFFF8000000000000003FFFF8000000000
0000000003FFFF8000000000000003FFFF8000000000
0000000003FFFFC000000000000007FFFF8000000000
0000000003FFFFC000000000000007FFFFC000000000
0000000007FFFFE00000000000000FFFFFC000000000
0000000007FFFFE00000000000000FFFFFC000000000
000000000FFFFFF00000000000001FFFFFE000000000
000000000FFFFFF00000000000001FFFFFE000000000
000000000FFFFFF80000000000003FFFFFF000000000
000000001FFFFFF80000000000003FFFFFF000000000
000000001FFFFFF80000000000007FFFFFF000000000
000000001FFFFFFC0000000000007FFFFFF800000000
000000003FFFFFFC000000000000FFFFFFF800000000
000000003FFFFFFE000000000000FFFFFFF800000000
000000003FFFFFFE000000000001FFFFFFFC00000000
000000007FFFFFFF000000000001FFFFFFFC00000000
000000007FFFFFFF000000000003FFFFFFFC00000000
000000007FFFFFFF800000000003FFFFFFFE00000000
00000000FFFFFFFF800000000007FFFFFFFE00000000
00000000FFFFFFFFC00000000007FFFFFFFF00000000
00000001FFFFFFFFC0000000000FFFFFFFFF00000000
00000001FFFFFFFFE0000000000FFFFFFFFF00000000
00000001FFFFFFFFE0000000001FFFFFFFFF80000000
00000003FFFFFFFFF0000000001FFFFFFFFF80000000
00000003FFFFFFFFF0000000003FFFFFFFFF80000000
00000003FFFFFFFFF8000000003FFFFFFFFFC0000000
00000007FFFFFFFFF8000000007FFFFFFFFFC0000000
00000007FFFF7FFFFC000000007FFFFFFFFFC0000000
00000007FFFF7FFFFC00000000FFFFFDFFFFE0000000
0000000FFFFF3FFFFE00000000FFFFFCFFFFE0000000
0000000FFFFE3FFFFE00000001FFFFF8FFFFF0000000
0000000FFFFE1FFFFF00000001FFFFF8FFFFF0000000
0000001FFFFE1FFFFF00000003FFFFF07FFFF0000000
0000001FFFFC0FFFFF80000003FFFFF07FFFF8000000
0000001FFFFC0FFFFF80000007FFFFE07FFFF8000000
0000003FFFF807FFFFC0000007FFFFE03FFFF8000000
0000003FFFF807FFFFC000000FFFFFC03FFFFC000000
0000007FFFF803FFFFE000000FFFFFC03FFFFC000000
0000007FFFF003FFFFE000001FFFFF801FFFFC000000
0000007FFFF001FFFFF000001FFFFF801FFFFE000000
000000FFFFF001FFFFF000003FFFFF001FFFFE000000
000000FFFFE000FFFFF800003FFFFF000FFFFF000000
000000FFFFE000FFFFF800007FFFFE000FFFFF000000
000001FFFFE000FFFFFC00007FFFFE0007FFFF000000
000001FFFFE0007FFFFC0000FFFFFC0007FFFF800000
000001FFFFC0007FFFFE0000FFFFFC0007FFFF800000
000003FFFFC0003FFFFE0001FFFFF80003FFFF800000
000003FFFFC0003FFFFF0001FFFFF80003FFFFC00000
000003FFFF80001FFFFF0003FFFFF00003FFFFC00000
000007FFFF80001FFFFF8003FFFFF00001FFFFE00000
000007FFFF80000FFFFF8007FFFFE00001FFFFE00000
00000FFFFF00000FFFFFC007FFFFE00001FFFFE00000
00000FFFFF000007FFFFC00FFFFFC00000FFFFF00000
00000FFFFF000007FFFFE00FFFFFC00000FFFFF00000
00001FFFFE000003FFFFE01FFFFF800000FFFFF00000
00001FFFFE000003FFFFE01FFFFF8000007FFFF80000
00001FFFFE000001FFFFF03FFFFF0000007FFFF80000
00003FFFFC000001FFFFF03FFFFF0000003FFFF80000
00003FFFFC000000FFFFF87FFFFE0000003FFFFC0000
00003FFFFC000000FFFFF87FFFFE0000003FFFFC0000
00007FFFF80000007FFFFCFFFFFC0000001FFFFE0000
00007FFFF80000007FFFFCFFFFFC0000001FFFFE0000
00007FFFF80000003FFFFFFFFFF80000001FFFFE0000
0000FFFFF00000003FFFFFFFFFF80000000FFFFF0000
0000FFFFF00000001FFFFFFFFFF00000000FFFFF0000
0001FFFFF00000001FFFFFFFFFF00000000FFFFF0000
0001FFFFF00000000FFFFFFFFFE000000007FFFF8000
0001FFFFE00000000FFFFFFFFFE000000007FFFF8000
0003FFFFE000000007FFFFFFFFC000000007FFFF8000
0003FFFFE000000007FFFFFFFFC000000003FFFFC000
0003FFFFC000000003FFFFFFFF8000000003FFFFC000
0007FFFFC000000003FFFFFFFF8000000001FFFFE000
0007FFFFC000000001FFFFFFFF0000000001FFFFE000
0007FFFF8000000001FFFFFFFF0000000001FFFFE000
000FFFFF8000000000FFFFFFFF0000000000FFFFF000
000FFFFF8000000000FFFFFFFE0000000000FFFFF000
000FFFFF00000000007FFFFFFE0000000000FFFFF000
001FFFFF00000000007FFFFFFC00000000007FFFF800
001FFFFE00000000003FFFFFFC00000000007FFFF800
003FFFFE00000000003FFFFFF800000000007FFFF800
003FFFFE00000000001FFFFFF800000000003FFFFC00
003FFFFC00000000001FFFFFF000000000003FFFFC00
007FFFFC00000000000FFFFFF000000000003FFFFE00
007FFFFC00000000000FFFFFE000000000001FFFFE00
007FFFF8000000000007FFFFE000000000001FFFFE00
00FFFFF8000000000007FFFFC000000000001FFFFF00
00FFFFF0000000000003FFFFC000000000000FFFFF00
00FFFFF0000000000003FFFF8000000000000FFFFF00
01FFFFF0000000000003FFFF80000000000007FFFF80
01FFFFE0000000000001FFFF00000000000007FFFF80
01FFFFE0000000000001FFFF00000000000007FFFF80
03FFFFC0000000000000FFFE00000000000003FFFFC0
03FFFFC0000000000000FFFE00000000000003FFFFC0
07FFFF800000000000007FFC00000000000003FFFFE0
07FFFF800000000000007FFC00000000000001FFFFE0
07FFFF000000000000003FF800000000000001FFFFE0
0FFFFF000000000000003FF800000000000001FFFFF0
0FFFFE000000000000001FF000000000000000FFFFF0
0FFFFE000000000000001FF000000000000000FFFFF0
1FFFFC000000000000000FE000000000000000FFFFF8
1FFFFC000000000000000FE0000000000000007FFFF8
1FFFF80000000000000007C0000000000000007FFFF8
3FFFF80000000000000007C0000000000000003FFFFC
3FFFF0000000000000000380000000000000003FFFFC
3FFFE0000000000000000380000000000000003FFFF0
7FFF80000000000000000100000000000000001FFF00
7FFC00000000000000000100000000000000001FF800
7F0000000000000000000000000000000000001F8000
C00000000000000000000000000000000000000C0000
ENDCHAR
STARTCHAR 004E
ENCODING 78
SWIDTH 731 0
DWIDTH 117 0
BBX 106 130 1 -4
BITMAP
FFC0000000000000000000000000
FFF8000000000000000000000000
FFFF000000000000000000000000
FFFFC00000000000000007FFFFC0
FFFFF00000000000000007FFFFC0
FFFFFC0000000000000007FFFFC0
FFFFFF0000000000000007FFFFC0
FFFFFF8000000000000007FFFFC0
FFFFFFE000000000000007FFFFC0
FFFFFFF000000000000007FFFFC0
FFFFFFFC00000000000007FFFFC0
FFFFFFFE00000000000007FFFFC0
FFFFFFFF00000000000007FFFFC0
FFFFFFFFC0000000000007FFFFC0
FFFFFFFFE0000000000007FFFFC0
FFFFFFFFF0000000000007FFFFC0
FFFFFFFFFC000000000007FFFFC0
FFFFFFFFFE000000000007FFFFC0
FFFFFFFFFF000000000007FFFFC0
FFFFFFFFFF800000000007FFFFC0
FFFFFFFFFFC00000000007FFFFC0
FFFFFFFFFFE00000000007FFFFC0
FFFFFFFFFFF80000000007FFFFC0
FFFFFFFFFFFC0000000007FFFFC0
FFFFFFFFFFFE0000000007FFFFC0
FFFFFFFFFFFF0000000007FFFFC0
FFFFFFFFFFFF8000000007FFFFC0
FFFFFFFFFFFFC000000007FFFFC0
FFFFFFFFFFFFE000000007FFFFC0
FFFFFFFFFFFFF000000007FFFFC0
FFFFFFFFFFFFF800000007FFFFC0
FFFFFFFFFFFFFC00000007FFFFC0
FFFFFFFFFFFFFE00000007FFFFC0
FFFFFFFFFFFFFF00000007FFFFC0
FFFFE3FFFFFFFF80000007FFFFC0
FFFFE0FFFFFFFFC0000007FFFFC0
FFFFE07FFFFFFFE0000007FFFFC0
FFFFE01FFFFFFFF0000007FFFFC0
FFFFE007FFFFFFF8000007FFFFC0
FFFFE003FFFFFFFC000007FFFFC0
FFFFE001FFFFFFFE000007FFFFC0
FFFFE0007FFFFFFF000007FFFFC0
FFFFE0003FFFFFFF000007FFFFC0
FFFFE0001FFFFFFF800007FFFFC0
FFFFE0000FFFFFFFC00007FFFFC0
FFFFE00007FFFFFFE00007FFFFC0
FFFFE00001FFFFFFF00007FFFFC0
FFFFE00000FFFFFFF80007FFFFC0
FFFFE000007FFFFFFC0007FFFFC0
FFFFE000003FFFFFFC0007FFFFC0
FFFFE000001FFFFFFE0007FFFFC0
FFFFE000000FFFFFFF0007FFFFC0
FFFFE0000007FFFFFF8007FFFFC0
FFFFE0000003FFFFFFC007FFFFC0
FFFFE0000001FFFFFFC007FFFFC0
FFFFE0000000FFFFFFE007FFFFC0
FFFFE00000007FFFFFF007FFFFC0
FFFFE00000007FFFFFF807FFFFC0
FFFFE00000003FFFFFF807FFFFC0
FFFFE00000001FFFFFFC07FFFFC0
FFFFE00000000FFFFFFE07FFFFC0
FFFFE000000007FFFFFE07FFFFC0
FFFFE000000003FFFFFF07FFFFC0
FFFFE000000001FFFFFF87FFFFC0
FFFFE000000001FFFFFF87FFFFC0
FFFFE000000000FFFFFFC7FFFFC0
FFFFE0000000007FFFFFE7FFFFC0
FFFFE0000000003FFFFFE7FFFFC0
FFFFE0000000001FFFFFF7FFFFC0
FFFFE0000000001FFFFFF7FFFFC0
FFFFE0000000000FFFFFF7FFFFC0
FFFFE00000000007FFFFFFFFFFC0
FFFFE00000000003FFFFFFFFFFC0
FFFFE00000000003FFFFFFFFFFC0
FFFFE00000000001FFFFFFFFFFC0
FFFFE00000000000FFFFFFFFFFC0
FFFFE000000000007FFFFFFFFFC0
FFFFE000000000007FFFFFFFFFC0
FFFFE000000000003FFFFFFFFFC0
FFFFE000000000001FFFFFFFFFC0
FFFFE000000000001FFFFFFFFFC0
FFFFE000000000000FFFFFFFFFC0
FFFFE0000000000007FFFFFFFFC0
FFFFE0000000000007FFFFFFFFC0
FFFFE0000000000003FFFFFFFFC0
FFFFE0000000000001FFFFFFFFC0
FFFFE0000000000001FFFFFFFFC0
FFFFE0000000000000FFFFFFFFC0
FFFFE00000000000007FFFFFFFC0
FFFFE00000000000007FFFFFFFC0
FFFFE00000000000003FFFFFFFC0
FFFFE00000000000003FFFFFFFC0
FFFFE00000000000001FFFFFFFC0
FFFFE00000000000000FFFFFFFC0
FFFFE00000000000000FFFFFFFC0
FFFFE000000000000007FFFFFFC0
FFFFE000000000000007FFFFFFC0
FFFFE000000000000003FFFFFFC0
FFFFE000000000000001FFFFFFC0
FFFFE000000000000001FFFFFFC0
FFFFE000000000000000FFFFFFC0
FFFFE000000000000000FFFFFFC0
FFFFE0000000000000007FFFFFC0
FFFFE0000000000000003FFFFFC0
FFFFE0000000000000003FFFFFC0
FFFFE0000000000000001FFFFFC0
FFFFE0000000000000001FFFFFC0
FFFFE0000000000000000FFFFFC0
FFFFE00000000000000007FFFFC0
FFFFE00000000000000007FFFFC0
FFFFE00000000000000003FFFFC0
FFFFE00000000000000003FFFFC0
FFFFE00000000000000003FFFFC0
FFFFE00000000000000001FFFFC0
FFFFE00000000000000001FFFFC0
FFFFE00000000000000001FFFFC0
FFFFE00000000000000001FFFFC0
FFFFE00000000000000001FFFFC0
FFFFE00000000000000001FFFFC0
FFFFE00000000000000001FFFFC0
FFFFE00000000000000001FFFFC0
FFFFE00000000000000001FFFFC0
FFFFE00000000000000003FFFFC0
FFFFE00000000000000003FFFFC0
FFFFE00000000000000003FFFFC0
FFFFE00000000000000003FFFFC0
FFFF000000000000000003FFFC00
FFE0000000000000000003FF8000
FE00000000000000000003F00000
C000000000000000000007000000
ENDCHAR
STARTCHAR 004F
ENCODING 79
SWIDTH 993 0
DWIDTH 159 0
BBX 137 123 8 0
BITMAP
0000000000003FFFFFFFF000000000000000
00000000000FFFFFFFFFFFF0000000000000
00000000007FFFFFFFFFFFFE000000000000
0000000003FFFFFFFFFFFFFFC00000000000
000000000FFFFFFFFFFFFFFFF00000000000
000000003FFFFFFFFFFFFFFFFE0000000000
00000000FFFFFFFFFFFFFFFFFF8000000000
00000001FFFFFFFFFFFFFFFFFFC000000000
00000007FFFFFFFFFFFFFFFFFFF000000000
0000001FFFFFFFFFFFFFFFFFFFFC00000000
0000003FFFFFFFFFFFFFFFFFFFFE00000000
0000007FFFFFFFFFFFFFFFFFFFFF80000000
000001FFFFFFFFFFFFFFFFFFFFFFC0000000
000003FFFFFFFFFFFFFFFFFFFFFFE0000000
000007FFFFFFFFFFFFFFFFFFFFFFF0000000
00000FFFFFFFFFFFFFFFFFFFFFFFFC000000
00001FFFFFFFFFFFFFFFFFFFFFFFFE000000
00003FFFFFFFFFFFFFFFFFFFFFFFFF000000
00007FFFFFFFFFFFFFFFFFFFFFFFFF800000
0000FFFFFFFFFFE000000FFFFFFFFF800000
0001FFFFFFFFF0000000003FFFFFFFC00000
0003FFFFFFFF00000000000FFFFFFFE00000
0003FFFFFFF8000000000001FFFFFFF00000
0007FFFFFFE0000000000000FFFFFFF80000
000FFFFFFF800000000000003FFFFFF80000
001FFFFFFE000000000000001FFFFFFC0000
001FFFFFF80000000000000007FFFFFE0000
003FFFFFF00000000000000003FFFFFF0000
007FFFFFC00000000000000001FFFFFF0000
007FFFFF800000000000000000FFFFFF8000
00FFFFFF0000000000000000007FFFFF8000
00FFFFFE0000000000000000003FFFFFC000
01FFFFFC0000000000000000003FFFFFC000
01FFFFF80000000000000000001FFFFFE000
03FFFFF80000000000000000000FFFFFE000
03FFFFF00000000000000000000FFFFFF000
07FFFFE000000000000000000007FFFFF000
07FFFFE000000000000000000003FFFFF800
0FFFFFC000000000000000000003FFFFF800
0FFFFFC000000000000000000001FFFFF800
0FFFFF8000000000000000000001FFFFFC00
1FFFFF8000000000000000000000FFFFFC00
1FFFFF0000000000000000000000FFFFFC00
1FFFFF0000000000000000000000FFFFFE00
3FFFFF00000000000000000000007FFFFE00
3FFFFE00000000000000000000007FFFFE00
3FFFFE00000000000000000000003FFFFE00
3FFFFE00000000000000000000003FFFFF00
7FFFFC00000000000000000000003FFFFF00
7FFFFC00000000000000000000003FFFFF00
7FFFFC00000000000000000000001FFFFF00
7FFFFC00000000000000000000001FFFFF00
7FFFFC00000000000000000000001FFFFF00
7FFFF800000000000000000000001FFFFF80
FFFFF800000000000000000000001FFFFF80
FFFFF800000000000000000000000FFFFF80
FFFFF800000000000000000000000FFFFF80
FFFFF800000000000000000000000FFFFF80
FFFFF800000000000000000000000FFFFF80
FFFFF800000000000000000000000FFFFF80
FFFFF800000000000000000000000FFFFF80
FFFFF800000000000000000000000FFFFF80
FFFFF800000000000000000000000FFFFF80
FFFFF800000000000000000000000FFFFF80
FFFFF800000000000000000000000FFFFF80
FFFFF800000000000000000000000FFFFF80
FFFFF800000000000000000000000FFFFF80
FFFFF800000000000000000000000FFFFF80
FFFFF800000000000000000000000FFFFF80
FFFFFC00000000000000000000000FFFFF00
7FFFFC00000000000000000000001FFFFF00
7FFFFC00000000000000000000001FFFFF00
7FFFFC00000000000000000000001FFFFF00
7FFFFC00000000000000000000001FFFFF00
7FFFFE00000000000000000000001FFFFF00
7FFFFE00000000000000000000003FFFFE00
3FFFFE00000000000000000000003FFFFE00
3FFFFF00000000000000000000003FFFFE00
3FFFFF00000000000000000000003FFFFE00
3FFFFF00000000000000000000007FFFFC00
1FFFFF80000000000000000000007FFFFC00
1FFFFF80000000000000000000007FFFFC00
1FFFFFC000000000000000000000FFFFF800
0FFFFFC000000000000000000000FFFFF800
0FFFFFE000000000000000000001FFFFF800
0FFFFFE000000000000000000001FFFFF000
07FFFFF000000000000000000003FFFFF000
07FFFFF000000000000000000007FFFFE000
03FFFFF800000000000000000007FFFFE000
03FFFFFC0000000000000000000FFFFFC000
01FFFFFE0000000000000000001FFFFFC000
01FFFFFE0000000000000000003FFFFF8000
00FFFFFF0000000000000000007FFFFF8000
00FFFFFF800000000000000000FFFFFF0000
007FFFFFC00000000000000001FFFFFF0000
007FFFFFE00000000000000003FFFFFE0000
003FFFFFF8000000000000000FFFFFFC0000
001FFFFFFC000000000000001FFFFFFC0000
001FFFFFFE000000000000007FFFFFF80000
000FFFFFFF80000000000001FFFFFFF00000
0007FFFFFFE000000000000FFFFFFFF00000
0003FFFFFFF800000000007FFFFFFFE00000
0001FFFFFFFE0000000007FFFFFFFFC00000
0001FFFFFFFFF0000003FFFFFFFFFF800000
0000FFFFFFFFFFFFFFFFFFFFFFFFFF000000
00007FFFFFFFFFFFFFFFFFFFFFFFFE000000
00003FFFFFFFFFFFFFFFFFFFFFFFFC000000
00001FFFFFFFFFFFFFFFFFFFFFFFF8000000
00000FFFFFFFFFFFFFFFFFFFFFFFF0000000
000003FFFFFFFFFFFFFFFFFFFFFFE0000000
000001FFFFFFFFFFFFFFFFFFFFFFC0000000
000000FFFFFFFFFFFFFFFFFFFFFF80000000
0000007FFFFFFFFFFFFFFFFFFFFF00000000
0000001FFFFFFFFFFFFFFFFFFFFC00000000
0000000FFFFFFFFFFFFFFFFFFFF800000000
00000003FFFFFFFFFFFFFFFFFFE000000000
00000000FFFFFFFFFFFFFFFFFF8000000000
000000003FFFFFFFFFFFFFFFFE0000000000
000000000FFFFFFFFFFFFFFFF80000000000
0000000003FFFFFFFFFFFFFFE00000000000
00000000007FFFFFFFFFFFFF000000000000
00000000000FFFFFFFFFFFF0000000000000
0000000000000FFFFFFFF000000000000000
ENDCHAR
STARTCHAR 0050
ENCODING 80
SWIDTH 650 0
DWIDTH 104 0
BBX 87 130 8 -6
BITMAP
FFFFFFFFFFFFFFF0000000
FFFFFFFFFFFFFFFC000000
FFFFFFFFFFFFFFFF000000
FFFFFFFFFFFFFFFFC00000
FFFFFFFFFFFFFFFFE00000
FFFFFFFFFFFFFFFFF80000
FFFFFFFFFFFFFFFFFE0000
FFFFFFFFFFFFFFFFFF0000
FFFFFFFFFFFFFFFFFFC000
FFFFFFFFFFFFFFFFFFE000
FFFFFFFFFFFFFFFFFFF800
FFFFFFFFFFFFFFFFFFFC00
FFFFFFFFFFFFFFFFFFFE00
FFFFFFFFFFFFFFFFFFFF80
FFFFFFFFFFFFFFFFFFFFC0
FFFFFFFFFFFFFFFFFFFFE0
FFFFFFFFFFFFFFFFFFFFF0
FFFFFFFFFFFFFFFFFFFFF0
FFFFFFFFFFFFFFFFFFFFF8
FFFFF800001FFFFFFFFFF8
FFFFF8000007FFFFFFFFFC
FFFFF8000003FFFFFFFFFC
FFFFF8000000FFFFFFFFFC
FFFFF80000003FFFFFFFFE
FFFFF80000001FFFFFFFFE
FFFFF80000000FFFFFFFFE
FFFFF800000003FFFFFFFE
FFFFF800000001FFFFFFFE
FFFFF800000000FFFFFFFE
FFFFF8000000007FFFFFFE
FFFFF8000000007FFFFFFE
FFFFF800000000FFFFFFFC
FFFFF800000003FFFFFFF8
FFFFF80000000FFFFFFFF0
FFFFF80000003FFFFFFFE0
FFFFF8000000FFFFFFFFC0
FFFFF8000003FFFFFFFF80
FFFFF800000FFFFFFFFF00
FFFFF800003FFFFFFFFE00
FFFFF80000FFFFFFFFF800
FFFFF80003FFFFFFFFF000
FFFFF8000FFFFFFFFFC000
FFFFF8003FFFFFFFFF8000
FFFFF800FFFFFFFFFE0000
FFFFF803FFFFFFFFFC0000
FFFFF80FFFFFFFFFF00000
FFFFF83FFFFFFFFFE00000
FFFFF8FFFFFFFFFF800000
FFFFF8FFFFFFFFFF000000
FFFFF8FFFFFFFFFC000000
FFFFF8FFFFFFFFF0000000
FFFFF8FFFFFFFFC0000000
FFFFF8FFFFFFFF80000000
FFFFF8FFFFFFFE00000000
FFFFF8FFFFFFF800000000
FFFFF8FFFFFFE000000000
FFFFF8FFFFFF8000000000
FFFFF8FFFFFF0000000000
FFFFF8FFFFFC0000000000
FFFFF8FFFFF00000000000
FFFFF8FFFFC00000000000
FFFFF8FFFF000000000000
FFFFF8FFFE000000000000
FFFFF8FFF8000000000000
FFFFF8FFE0000000000000
FFFFF8FF80000000000000
FFFFF8FE00000000000000
FFFFF8FC00000000000000
FFFFF8F000000000000000
FFFFF8C000000000000000
FFFFF80000000000000000
FFFFF80000000000000000
FFFFF80000000000000000
FFFFF80000000000000000
FFFFF80000000000000000
FFFFF80000000000000000
FFFFF80000000000000000
FFFFF80000000000000000
FFFFF80000000000000000
FFFFF80000000000000000
FFFFF80000000000000000
FFFFF80000000000000000
FFFFF80000000000000000
FFFFF80000000000000000
FFFFF80000000000000000
FFFFF80000000000000000
FFFFF80000000000000000
FFFFF80000000000000000
FFFFF80000000000000000
FFFFF80000000000000000
FFFFF80000000000000000
FFFFF80000000000000000
FFFFF80000000000000000
FFFFF80000000000000000
FFFFF80000000000000000
FFFFF80000000000000000
FFFFF80000000000000000
FFFFF80000000000000000
FFFFF80000000000000000
FFFFF80000000000000000
FFFFF80000000000000000
FFFFF80000000000000000
FFFFF80000000000000000
FFFFF80000000000000000
FFFFF80000000000000000
FFFFF80000000000000000
FFFFF80000000000000000
FFFFF80000000000000000
FFFFF80000000000000000
FFFFF80000000000000000
FFFFF80000000000000000
FFFFF80000000000000000
FFFFF80000000000000000
FFFFF80000000000000000
FFFFF80000000000000000
FFFFF80000000000000000
FFFFF80000000000000000
FFFFF80000000000000000
FFFFF80000000000000000
FFFFF80000000000000000
FFFFF80000000000000000
FFFFF80000000000000000
FFFFF80000000000000000
FFFFC00000000000000000
FFFE000000000000000000
FFF0000000000000000000
FFC0000000000000000000
FE00000000000000000000
F000000000000000000000
8000000000000000000000
ENDCHAR
STARTCHAR 0051
ENCODING 81
SWIDTH 1012 0
DWIDTH 162 0
BBX 141 127 8 -4
BITMAP
0000000000003FFFFFFFF800000000000000
00000000000FFFFFFFFFFFF0000000000000
00000000007FFFFFFFFFFFFE000000000000
0000000003FFFFFFFFFFFFFFC00000000000
000000000FFFFFFFFFFFFFFFF00000000000
000000003FFFFFFFFFFFFFFFFC0000000000
00000000FFFFFFFFFFFFFFFFFF0000000000
00000001FFFFFFFFFFFFFFFFFFC000000000
00000007FFFFFFFFFFFFFFFFFFF000000000
0000001FFFFFFFFFFFFFFFFFFFFC00000000
0000003FFFFFFFFFFFFFFFFFFFFE00000000
0000007FFFFFFFFFFFFFFFFFFFFF00000000
000001FFFFFFFFFFFFFFFFFFFFFFC0000000
000003FFFFFFFFFFFFFFFFFFFFFFE0000000
000007FFFFFFFFFFFFFFFFFFFFFFF0000000
00000FFFFFFFFFFFFFFFFFFFFFFFF8000000
00001FFFFFFFFFFFFFFFFFFFFFFFFC000000
00003FFFFFFFFFFFFFFFFFFFFFFFFE000000
00007FFFFFFFFFFFFFFFFFFFFFFFFF000000
0000FFFFFFFFFFE000000FFFFFFFFF800000
0001FFFFFFFFF8000000003FFFFFFFC00000
0003FFFFFFFF00000000000FFFFFFFE00000
0003FFFFFFF8000000000001FFFFFFF00000
0007FFFFFFE0000000000000FFFFFFF80000
000FFFFFFF800000000000003FFFFFF80000
001FFFFFFE000000000000001FFFFFFC0000
001FFFFFF80000000000000007FFFFFE0000
003FFFFFF00000000000000003FFFFFE0000
007FFFFFC00000000000000001FFFFFF0000
007FFFFF800000000000000000FFFFFF8000
00FFFFFF0000000000000000007FFFFF8000
00FFFFFE0000000000000000003FFFFFC000
01FFFFFC0000000000000000003FFFFFC000
01FFFFF80000000000000000001FFFFFE000
03FFFFF80000000000000000000FFFFFE000
03FFFFF00000000000000000000FFFFFF000
07FFFFE000000000000000000007FFFFF000
07FFFFE000000000000000000003FFFFF000
0FFFFFC000000000000000000003FFFFF800
0FFFFFC000000000000000000001FFFFF800
0FFFFF8000000000000000000001FFFFFC00
1FFFFF8000000000000000000000FFFFFC00
1FFFFF0000000000000000000000FFFFFC00
1FFFFF0000000000000000000000FFFFFE00
3FFFFF00000000000000000000007FFFFE00
3FFFFE00000000000000000000007FFFFE00
3FFFFE00000000000000000000007FFFFE00
3FFFFE00000000000000000000003FFFFF00
7FFFFC00000000000000000000003FFFFF00
7FFFFC00000000000000000000003FFFFF00
7FFFFC00000000000000000000001FFFFF00
7FFFFC00000000000000000000001FFFFF00
7FFFFC00000000000000000000001FFFFF00
7FFFFC00000000000000000000001FFFFF80
FFFFF800000000000000000000001FFFFF80
FFFFF800000000000000000000000FFFFF80
FFFFF800000000000000000000000FFFFF80
FFFFF800000000000000000000000FFFFF80
FFFFF800000000000000000000000FFFFF80
FFFFF800000000000000000000000FFFFF80
FFFFF800000000000000000000000FFFFF80
FFFFF800000000000000000000000FFFFF80
FFFFF800000000000000000000000FFFFF80
FFFFF800000000000000000000000FFFFF80
FFFFF800000000000000000000000FFFFF80
FFFFF800000000000000000000000FFFFF80
FFFFF800000000000000000000000FFFFF80
FFFFF800000000000000000000000FFFFF80
FFFFF800000000000000000000000FFFFF80
FFFFFC00000000000000000000001FFFFF80
7FFFFC00000000000000000000001FFFFF00
7FFFFC00000000000000000000001FFFFF00
7FFFFC00000000000000000000001FFFFF00
7FFFFC00000000000000000000001FFFFF00
7FFFFE00000000000000000000003FFFFF00
7FFFFE0000000000FFFFFFC000003FFFFF00
3FFFFE00000000007FFFFFE000003FFFFE00
3FFFFE00000000003FFFFFF000007FFFFE00
3FFFFF00000000001FFFFFF800007FFFFE00
3FFFFF00000000000FFFFFFC00007FFFFE00
1FFFFF800000000007FFFFFE0000FFFFFC00
1FFFFF800000000003FFFFFF0000FFFFFC00
1FFFFF800000000003FFFFFF8001FFFFFC00
0FFFFFC00000000001FFFFFFC001FFFFF800
0FFFFFC00000000000FFFFFFE003FFFFF800
0FFFFFE000000000007FFFFFF003FFFFF000
07FFFFF000000000003FFFFFF807FFFFF000
07FFFFF000000000001FFFFFFC0FFFFFE000
03FFFFF800000000000FFFFFFE0FFFFFE000
03FFFFF8000000000007FFFFFF1FFFFFE000
01FFFFFC000000000003FFFFFFBFFFFFC000
01FFFFFE000000000001FFFFFFFFFFFF8000
00FFFFFF000000000000FFFFFFFFFFFF8000
00FFFFFF8000000000007FFFFFFFFFFF0000
007FFFFFC000000000003FFFFFFFFFFF0000
003FFFFFE000000000001FFFFFFFFFFE0000
003FFFFFF000000000001FFFFFFFFFFC0000
001FFFFFF800000000000FFFFFFFFFF80000
000FFFFFFE000000000007FFFFFFFFF80000
000FFFFFFF000000000003FFFFFFFFF00000
0007FFFFFFC00000000001FFFFFFFFE00000
0003FFFFFFF00000000000FFFFFFFFC00000
0001FFFFFFFC00000000007FFFFFFF800000
0000FFFFFFFF80000000003FFFFFFF000000
00007FFFFFFFFFEFFFFFFFFFFFFFFF000000
00003FFFFFFFFFFFFFFFFFFFFFFFFF800000
00001FFFFFFFFFFFFFFFFFFFFFFFFFC00000
00000FFFFFFFFFFFFFFFFFFFFFFFFFE00000
000007FFFFFFFFFFFFFFFFFFFFFFFFF00000
000003FFFFFFFFFFFFFFFFFFFFFFFFF80000
000001FFFFFFFFFFFFFFFFFFFFFFFFFC0000
0000007FFFFFFFFFFFFFFFFFFFFFFFFE0000
0000003FFFFFFFFFFFFFFFFFFFFFFFFF0000
0000000FFFFFFFFFFFFFFFFFFFFFFFFF8000
00000007FFFFFFFFFFFFFFFFFFFFFFFFC000
00000001FFFFFFFFFFFFFFFFFFFFFFFFE000
000000007FFFFFFFFFFFFFFFFFFFFFFFF000
000000001FFFFFFFFFFFFFFFFE3FFFFFF800
0000000007FFFFFFFFFFFFFFF81FFFFFFC00
0000000001FFFFFFFFFFFFFFE00FFFFFFE00
00000000007FFFFFFFFFFFFF0007FFFFFF00
00000000000FFFFFFFFFFFF00003FFFFFF80
000000000000FFFFFFFFFC000001FFFFFFC0
0000000000000000000000000000FFFFFFC0
00000000000000000000000000007FFFFFE0
00000000000000000000000000003FFFFFF0
00000000000000000000000000001FFFFFF8
ENDCHAR
STARTCHAR 0052
ENCODING 82
SWIDTH 800 0
DWIDTH 128 0
BBX 120 127 3 -3
BITMAP
FFFFFFFFFFFFFFFFC0000000000000
FFFFFFFFFFFFFFFFFC000000000000
FFFFFFFFFFFFFFFFFF800000000000
FFFFFFFFFFFFFFFFFFF00000000000
FFFFFFFFFFFFFFFFFFFC0000000000
FFFFFFFFFFFFFFFFFFFF0000000000
FFFFFFFFFFFFFFFFFFFFC000000000
FFFFFFFFFFFFFFFFFFFFF000000000
FFFFFFFFFFFFFFFFFFFFF800000000
FFFFFFFFFFFFFFFFFFFFFC00000000
FFFFFFFFFFFFFFFFFFFFFF00000000
FFFFFFFFFFFFFFFFFFFFFF80000000
FFFFFFFFFFFFFFFFFFFFFFC0000000
FFFFFFFFFFFFFFFFFFFFFFC0000000
FFFFFFFFFFFFFFFFFFFFFFE0000000
FFFFFFFFFFFFFFFFFFFFFFF0000000
FFFFFFFFFFFFFFFFFFFFFFF0000000
FFFFFFFFFFFFFFFFFFFFFFF0000000
FFFFFFFFFFFFFFFFFFFFFFF8000000
FFFFF8000000000FFFFFFFF8000000
FFFFF80000000003FFFFFFF8000000
FFFFF80000000000FFFFFFF8000000
FFFFF800000000003FFFFFF8000000
FFFFF800000000000FFFFFF8000000
FFFFF8000000000007FFFFF0000000
FFFFF8000000000003FFFFF0000000
FFFFF8000000000001FFFFE0000000
FFFFF8000000000000FFFFE0000000
FFFFF8000000000000FFFFC0000000
FFFFF8000000000000FFFF80000000
FFFFF8000000000001FFFF80000000
FFFFF8000000000001FFFF00000000
FFFFF8000000000003FFFE00000000
FFFFF8000000000007FFFC00000000
FFFFF800000000000FFFF800000000
FFFFF800000000001FFFF000000000
FFFFF800000000003FFFE000000000
FFFFF800000000007FFFC000000000
FFFFF80000000000FFFF8000000000
FFFFF80000000001FFFF0000000000
FFFFF80000000003FFFE0000000000
FFFFF80000000007FFFC0000000000
FFFFF8000000000FFFF80000000000
FFFFF8000000001FFFF00000000000
FFFFF8000000003FFFE00000000000
FFFFF8000000007FFFC00000000000
FFFFF800000000FFFF800000000000
FFFFF800000001FFFE000000000000
FFFFF800000003FFFF000000000000
FFFFF800000007FFFFE00000000000
FFFFF80000000FFFFFF80000000000
FFFFF80000001FFFFFFE0000000000
FFFFF80000003FFFFFFF8000000000
FFFFF8000000FFFFFFFFE000000000
FFFFF8000001FFFFFFFFF000000000
FFFFF8000003FFFFFFFFFC00000000
FFFFF8000007FFFFFFFFFE00000000
FFFFF800000FFFFFFFFFFF80000000
FFFFF800001FFFFFFFFFFFC0000000
FFFFF800003FFFFFFFFFFFF0000000
FFFFF800007FFFFFFFFFFFF8000000
FFFFF80000007FFFFFFFFFFC000000
FFFFF800000001FFFFFFFFFE000000
FFFFF8000000003FFFFFFFFF000000
FFFFF80000000007FFFFFFFF800000
FFFFF80000000000FFFFFFFFC00000
FFFFF800000000003FFFFFFFE00000
FFFFF800000000000FFFFFFFF00000
FFFFF8000000000003FFFFFFF80000
FFFFF8000000000001FFFFFFFC0000
FFFFF80000000000007FFFFFFE0000
FFFFF80000000000001FFFFFFF0000
FFFFF80000000000000FFFFFFF8000
FFFFF800000000000003FFFFFFC000
FFFFF800000000000001FFFFFFC000
FFFFF800000000000000FFFFFFE000
FFFFF8000000000000007FFFFFF000
FFFFF8000000000000001FFFFFF800
FFFFF8000000000000000FFFFFF800
FFFFF80000000000000007FFFFFC00
FFFFF80000000000000003FFFFFE00
FFFFF80000000000000001FFFFFE00
FFFFF80000000000000000FFFFFF00
FFFFF800000000000000007FFFFF00
FFFFF800000000000000003FFFFF80
FFFFF800000000000000001FFFFFC0
FFFFF800000000000000000FFFFFC0
FFFFF8000000000000000007FFFFE0
FFFFF8000000000000000003FFFFE0
FFFFF8000000000000000003FFFFF0
FFFFF8000000000000000001FFFFF0
FFFFF8000000000000000000FFFFF0
FFFFF8000000000000000000FFFFF8
FFFFF80000000000000000007FFFF8
FFFFF80000000000000000003FFFFC
FFFFF80000000000000000003FFFFC
FFFFF80000000000000000001FFFFC
FFFFF80000000000000000001FFFFC
FFFFF80000000000000000000FFFFE
FFFFF80000000000000000000FFFFE
FFFFF80000000000000000000FFFFE
FFFFF800000000000000000007FFFE
FFFFF800000000000000000007FFFF
FFFFF800000000000000000007FFFF
FFFFF800000000000000000003FFFF
FFFFF800000000000000000003FFFF
FFFFF800000000000000000003FFFF
FFFFF800000000000000000003FFFF
FFFFF800000000000000000001FFFF
FFFFF800000000000000000001FFFF
FFFFF800000000000000000001FFFF
FFFFF800000000000000000001FFFF
FFFFF800000000000000000001FFFF
FFFFF800000000000000000001FFFF
FFFFF800000000000000000001FFFF
FFFFF800000000000000000001FFFF
FFFFF800000000000000000001FFFF
FFFFF800000000000000000001FFFF
FFFFF800000000000000000001FFFF
FFFFF800000000000000000001FFFF
FFFFF800000000000000000001FFFF
FFFFF800000000000000000003FFFF
FFFFF800000000000000000003FFFC
FFFFC000000000000000000003FFE0
FFF80000000000000000000003FE00
FF000000000000000000000003E000
E00000000000000000000000060000
ENDCHAR
STARTCHAR 0053
ENCODING 83
SWIDTH 900 0
DWIDTH 144 0
BBX 136 123 4 0
BITMAP
0000007FFFFFFFFFFFFFFFFFFFFFFFF000
000007FFFFFFFFFFFFFFFFFFFFFFFFE000
00001FFFFFFFFFFFFFFFFFFFFFFFFFC000
00003FFFFFFFFFFFFFFFFFFFFFFFFFC000
0000FFFFFFFFFFFFFFFFFFFFFFFFFF8000
0001FFFFFFFFFFFFFFFFFFFFFFFFFF0000
0003FFFFFFFFFFFFFFFFFFFFFFFFFE0000
0007FFFFFFFFFFFFFFFFFFFFFFFFFC0000
000FFFFFFFFFFFFFFFFFFFFFFFFFF80000
000FFFFFFFFFFFFFFFFFFFFFFFFFF00000
001FFFFFFFFFFFFFFFFFFFFFFFFFE00000
003FFFFFFFFFFFFFFFFFFFFFFFFFC00000
003FFFFFFFFFFFFFFFFFFFFFFFFF800000
007FFFFFFFFFFFFFFFFFFFFFFFFF000000
007FFFFFFFFFFFFFFFFFFFFFFFFE000000
00FFFFFFFFFFFFFFFFFFFFFFFFFC000000
00FFFFFFFFFFFFFFFFFFFFFFFFF8000000
01FFFFFFFFFFFFFFFFFFFFFFFFF0000000
01FFFFFFFFFFFFFFFFFFFFFFFFE0000000
03FFFFFFC0000000000000000000000000
03FFFFFC00000000000000000000000000
03FFFFF000000000000000000000000000
03FFFFE000000000000000000000000000
03FFFFC000000000000000000000000000
07FFFF8000000000000000000000000000
07FFFF8000000000000000000000000000
07FFFF0000000000000000000000000000
07FFFF0000000000000000000000000000
07FFFF0000000000000000000000000000
03FFFF8000000000000000000000000000
03FFFF8000000000000000000000000000
03FFFFC000000000000000000000000000
03FFFFE000000000000000000000000000
01FFFFF800000000000000000000000000
01FFFFFC00000000000000000000000000
01FFFFFF00000000000000000000000000
00FFFFFFC0000000000000000000000000
007FFFFFF8000000000000000000000000
007FFFFFFE000000000000000000000000
003FFFFFFFC00000000000000000000000
001FFFFFFFF80000000000000000000000
000FFFFFFFFF0000000000000000000000
0007FFFFFFFFE000000000000000000000
0003FFFFFFFFFE00000000000000000000
0001FFFFFFFFFFC0000000000000000000
0000FFFFFFFFFFFC000000000000000000
00003FFFFFFFFFFF800000000000000000
00001FFFFFFFFFFFF00000000000000000
000007FFFFFFFFFFFF0000000000000000
000003FFFFFFFFFFFFE000000000000000
000000FFFFFFFFFFFFFC00000000000000
0000003FFFFFFFFFFFFF80000000000000
00000007FFFFFFFFFFFFF0000000000000
00000001FFFFFFFFFFFFFE000000000000
000000003FFFFFFFFFFFFFC00000000000
0000000007FFFFFFFFFFFFF80000000000
0000000000FFFFFFFFFFFFFE0000000000
00000000001FFFFFFFFFFFFFC000000000
000000000001FFFFFFFFFFFFF000000000
0000000000003FFFFFFFFFFFFE00000000
00000000000007FFFFFFFFFFFF80000000
000000000000007FFFFFFFFFFFE0000000
000000000000000FFFFFFFFFFFF8000000
0000000000000001FFFFFFFFFFFC000000
00000000000000001FFFFFFFFFFF000000
000000000000000003FFFFFFFFFFC00000
0000000000000000007FFFFFFFFFE00000
00000000000000000007FFFFFFFFF80000
00000000000000000000FFFFFFFFFC0000
000000000000000000001FFFFFFFFE0000
0000000000000000000001FFFFFFFF0000
00000000000000000000003FFFFFFFC000
00000000000000000000000FFFFFFFE000
000000000000000000000003FFFFFFF000
000000000000000000000000FFFFFFF800
0000000000000000000000003FFFFFFC00
0000000000000000000000000FFFFFFE00
00000000000000000000000003FFFFFE00
00000000000000000000000001FFFFFF00
00000000000000000000000000FFFFFF80
000000000000000000000000003FFFFFC0
000000000000000000000000001FFFFFC0
000000000000000000000000000FFFFFE0
0000000000000000000000000007FFFFF0
0000000000000000000000000003FFFFF0
0000000000000000000000000001FFFFF8
0000000000000000000000000000FFFFF8
00000000000000000000000000007FFFF8
00000000000000000000000000007FFFFC
00000000000000000000000000003FFFFC
00000000000000000000000000003FFFFE
00000000000000000000000000001FFFFE
00000000000000000000000000001FFFFE
00000000000000000000000000000FFFFE
00000000000000000000000000000FFFFF
00000000000000000000000000000FFFFF
000000000000000000000000000007FFFF
000000000000000000000000000007FFFF
000000000000000000000000000007FFFF
000000000000000000000000000007FFFF
000000000000000000000000000007FFFF
000000000000000000000000000007FFFF
000000000000000000000000000007FFFF
000000000000000000000000000007FFFF
00007FFFFFFFFFFFFFFFFFFFFFFFFFFFFF
0000FFFFFFFFFFFFFFFFFFFFFFFFFFFFFF
0001FFFFFFFFFFFFFFFFFFFFFFFFFFFFFF
0003FFFFFFFFFFFFFFFFFFFFFFFFFFFFFF
0007FFFFFFFFFFFFFFFFFFFFFFFFFFFFFF
000FFFFFFFFFFFFFFFFFFFFFFFFFFFFFFF
001FFFFFFFFFFFFFFFFFFFFFFFFFFFFFFF
003FFFFFFFFFFFFFFFFFFFFFFFFFFFFFFF
007FFFFFFFFFFFFFFFFFFFFFFFFFFFFFFF
00FFFFFFFFFFFFFFFFFFFFFFFFFFFFFFFF
01FFFFFFFFFFFFFFFFFFFFFFFFFFFFFFFF
03FFFFFFFFFFFFFFFFFFFFFFFFFFFFFFFF
07FFFFFFFFFFFFFFFFFFFFFFFFFFFFFFFF
0FFFFFFFFFFFFFFFFFFFFFFFFFFFFFFFFF
1FFFFFFFFFFFFFFFFFFFFFFFFFFFFFFFFF
1FFFFFFFFFFFFFFFFFFFFFFFFFFFFFFFFF
3FFFFFFFFFFFFFFFFFFFFFFFFFFFFFFFFF
7FFFFFFFFFFFFFFFFFFFFFFFFFFFFFFFFF
FFFFFFFFFFFFFFFFFFFFFFFFFFFFFFFFFF
ENDCHAR
STARTCHAR 0054
ENCODING 84
SWIDTH 612 0
DWIDTH 98 0
BBX 133 129 -28 -6
BITMAP
00003FFFFFFFFFFFFFFFFFFFFFFFFFFFF8
00007FFFFFFFFFFFFFFFFFFFFFFFFFFFF0
0000FFFFFFFFFFFFFFFFFFFFFFFFFFFFE0
0001FFFFFFFFFFFFFFFFFFFFFFFFFFFFC0
0003FFFFFFFFFFFFFFFFFFFFFFFFFFFF80
0007FFFFFFFFFFFFFFFFFFFFFFFFFFFF00
000FFFFFFFFFFFFFFFFFFFFFFFFFFFFE00
001FFFFFFFFFFFFFFFFFFFFFFFFFFFFC00
003FFFFFFFFFFFFFFFFFFFFFFFFFFFF800
007FFFFFFFFFFFFFFFFFFFFFFFFFFFF800
00FFFFFFFFFFFFFFFFFFFFFFFFFFFFF000
01FFFFFFFFFFFFFFFFFFFFFFFFFFFFE000
03FFFFFFFFFFFFFFFFFFFFFFFFFFFFC000
07FFFFFFFFFFFFFFFFFFFFFFFFFFFF8000
0FFFFFFFFFFFFFFFFFFFFFFFFFFFFF0000
1FFFFFFFFFFFFFFFFFFFFFFFFFFFFE0000
3FFFFFFFFFFFFFFFFFFFFFFFFFFFFC0000
7FFFFFFFFFFFFFFFFFFFFFFFFFFFF80000
FFFFFFFFFFFFFFFFFFFFFFFFFFFFF00000
00000000000003FFFF8000000000000000
00000000000003FFFF8000000000000000
00000000000003FFFF8000000000000000
00000000000003FFFF8000000000000000
00000000000003FFFF8000000000000000
00000000000003FFFF8000000000000000
00000000000003FFFF8000000000000000
00000000000003FFFF8000000000000000
00000000000003FFFF8000000000000000
00000000000003FFFF8000000000000000
00000000000003FFFF8000000000000000
00000000000003FFFF8000000000000000
00000000000003FFFF8000000000000000
00000000000003FFFF8000000000000000
00000000000003FFFF8000000000000000
00000000000003FFFF8000000000000000
00000000000003FFFF8000000000000000
00000000000003FFFF8000000000000000
00000000000003FFFF8000000000000000
00000000000003FFFF8000000000000000
00000000000003FFFF8000000000000000
00000000000003FFFF8000000000000000
00000000000003FFFF8000000000000000
00000000000003FFFF8000000000000000
00000000000003FFFF8000000000000000
00000000000003FFFF8000000000000000
00000000000003FFFF8000000000000000
00000000000003FFFF8000000000000000
00000000000003FFFF8000000000000000
00000000000003FFFF8000000000000000
00000000000003FFFF8000000000000000
00000000000003FFFF8000000000000000
00000000000003FFFF8000000000000000
00000000000003FFFF8000000000000000
00000000000003FFFF8000000000000000
00000000000003FFFF8000000000000000
00000000000003FFFF8000000000000000
00000000000003FFFF8000000000000000
00000000000003FFFF8000000000000000
00000000000003FFFF8000000000000000
00000000000003FFFF8000000000000000
00000000000003FFFF8000000000000000
00000000000003FFFF8000000000000000
00000000000003FFFF8000000000000000
00000000000003FFFF8000000000000000
00000000000003FFFF8000000000000000
00000000000003FFFF8000000000000000
00000000000003FFFF8000000000000000
00000000000003FFFF8000000000000000
00000000000003FFFF8000000000000000
00000000000003FFFF8000000000000000
00000000000003FFFF8000000000000000
00000000000003FFFF8000000000000000
00000000000003FFFF8000000000000000
00000000000003FFFF8000000000000000
00000000000003FFFF8000000000000000
00000000000003FFFF8000000000000000
00000000000003FFFF8000000000000000
00000000000003FFFF8000000000000000
00000000000003FFFF8000000000000000
00000000000003FFFF8000000000000000
00000000000003FFFF8000000000000000
00000000000003FFFF8000000000000000
00000000000003FFFF8000000000000000
00000000000003FFFF8000000000000000
00000000000003FFFF8000000000000000
00000000000003FFFF8000000000000000
00000000000003FFFF8000000000000000
00000000000003FFFF8000000000000000
00000000000003FFFF8000000000000000
00000000000003FFFF8000000000000000
00000000000003FFFF8000000000000000
00000000000003FFFF8000000000000000
00000000000003FFFF8000000000000000
00000000000003FFFF8000000000000000
00000000000003FFFF8000000000000000
00000000000003FFFF8000000000000000
00000000000003FFFF8000000000000000
00000000000003FFFF8000000000000000
00000000000003FFFF8000000000000000
00000000000003FFFF8000000000000000
00000000000003FFFF8000000000000000
00000000000003FFFF8000000000000000
00000000000003FFFF8000000000000000
00000000000003FFFF8000000000000000
00000000000003FFFF8000000000000000
00000000000003FFFF8000000000000000
00000000000003FFFF8000000000000000
00000000000003FFFF8000000000000000
00000000000003FFFF8000000000000000
00000000000003FFFF8000000000000000
00000000000003FFFF8000000000000000
00000000000003FFFF8000000000000000
00000000000003FFFF8000000000000000
00000000000003FFFF8000000000000000
00000000000003FFFF8000000000000000
00000000000003FFFF8000000000000000
00000000000003FFFF8000000000000000
00000000000003FFFF8000000000000000
00000000000003FFFF8000000000000000
00000000000003FFFF8000000000000000
00000000000003FFFF8000000000000000
00000000000003FFFF8000000000000000
00000000000003FFFF8000000000000000
00000000000003FFFF8000000000000000
00000000000003FFFE0000000000000000
00000000000003FFF00000000000000000
00000000000003FF000000000000000000
00000000000003F0000000000000000000
0000000000000300000000000000000000
ENDCHAR
STARTCHAR 0055
ENCODING 85
SWIDTH 737 0
DWIDTH 118 0
BBX 104 123 4 0
BITMAP
FFFFE00000000000000007FFFF
FFFFE00000000000000007FFFF
FFFFE00000000000000007FFFF
FFFFE00000000000000007FFFF
FFFFE00000000000000007FFFF
FFFFE00000000000000007FFFF
FFFFE00000000000000007FFFF
FFFFE00000000000000007FFFF
FFFFE00000000000000007FFFF
FFFFE00000000000000007FFFF
FFFFE00000000000000007FFFF
FFFFE00000000000000007FFFF
FFFFE00000000000000007FFFF
FFFFE00000000000000007FFFF
FFFFE00000000000000007FFFF
FFFFE00000000000000007FFFF
FFFFE00000000000000007FFFF
FFFFE00000000000000007FFFF
FFFFE00000000000000007FFFF
FFFFE00000000000000007FFFF
FFFFE00000000000000007FFFF
FFFFE00000000000000007FFFF
FFFFE00000000000000007FFFF
FFFFE00000000000000007FFFF
FFFFE00000000000000007FFFF
FFFFE00000000000000007FFFF
FFFFE00000000000000007FFFF
FFFFE00000000000000007FFFF
FFFFE00000000000000007FFFF
FFFFE00000000000000007FFFF
FFFFE00000000000000007FFFF
FFFFE00000000000000007FFFF
FFFFE00000000000000007FFFF
FFFFE00000000000000007FFFF
FFFFE00000000000000007FFFF
FFFFE00000000000000007FFFF
FFFFE00000000000000007FFFF
FFFFE00000000000000007FFFF
FFFFE00000000000000007FFFF
FFFFE00000000000000007FFFF
FFFFE00000000000000007FFFF
FFFFE00000000000000007FFFF
FFFFE00000000000000007FFFF
FFFFE00000000000000007FFFF
FFFFE00000000000000007FFFF
FFFFE00000000000000007FFFF
FFFFE00000000000000007FFFF
FFFFE00000000000000007FFFF
FFFFE00000000000000007FFFF
FFFFE00000000000000007FFFF
FFFFE00000000000000007FFFF
FFFFE00000000000000007FFFF
FFFFE00000000000000007FFFF
FFFFE00000000000000007FFFF
FFFFE00000000000000007FFFF
FFFFE00000000000000007FFFF
FFFFE00000000000000007FFFF
FFFFE00000000000000007FFFF
FFFFE00000000000000007FFFF
FFFFE00000000000000007FFFF
FFFFE00000000000000007FFFF
FFFFE00000000000000007FFFF
FFFFE00000000000000007FFFF
FFFFE00000000000000007FFFF
FFFFE00000000000000007FFFF
FFFFE00000000000000007FFFF
FFFFE00000000000000007FFFF
FFFFE00000000000000007FFFF
FFFFE00000000000000007FFFF
FFFFE00000000000000007FFFF
FFFFE00000000000000007FFFF
FFFFE00000000000000007FFFF
FFFFE00000000000000007FFFF
FFFFE00000000000000007FFFF
FFFFE00000000000000007FFFF
FFFFE00000000000000007FFFF
FFFFE00000000000000007FFFF
FFFFE00000000000000007FFFF
FFFFE00000000000000007FFFF
FFFFE00000000000000007FFFF
FFFFE00000000000000007FFFF
FFFFE00000000000000007FFFF
FFFFE00000000000000007FFFF
FFFFE00000000000000007FFFF
FFFFE00000000000000007FFFF
FFFFE00000000000000007FFFF
FFFFE00000000000000007FFFF
FFFFE00000000000000007FFFF
FFFFE00000000000000007FFFF
FFFFE00000000000000007FFFF
FFFFE00000000000000007FFFF
FFFFE00000000000000007FFFF
FFFFE00000000000000007FFFF
FFFFE00000000000000007FFFF
FFFFE00000000000000007FFFF
FFFFE00000000000000007FFFF
FFFFE0000000000000000FFFFF
FFFFF0000000000000000FFFFF
FFFFF0000000000000001FFFFF
FFFFF8000000000000003FFFFF
FFFFFE000000000000007FFFFF
FFFFFF00000000000001FFFFFF
FFFFFFE000000000000FFFFFFF
FFFFFFFE0000000000FFFFFFFF
7FFFFFFFFFFFFFFFFFFFFFFFFF
7FFFFFFFFFFFFFFFFFFFFFFFFE
7FFFFFFFFFFFFFFFFFFFFFFFFE
3FFFFFFFFFFFFFFFFFFFFFFFFC
1FFFFFFFFFFFFFFFFFFFFFFFF8
1FFFFFFFFFFFFFFFFFFFFFFFF8
0FFFFFFFFFFFFFFFFFFFFFFFF0
07FFFFFFFFFFFFFFFFFFFFFFC0
03FFFFFFFFFFFFFFFFFFFFFF80
00FFFFFFFFFFFFFFFFFFFFFF00
007FFFFFFFFFFFFFFFFFFFFC00
001FFFFFFFFFFFFFFFFFFFF800
0007FFFFFFFFFFFFFFFFFFE000
0001FFFFFFFFFFFFFFFFFF8000
00003FFFFFFFFFFFFFFFFE0000
000003FFFFFFFFFFFFFFF80000
0000003FFFFFFFFFFFFFC00000
00000001FFFFFFFFFFFF000000
0000000000FFFFFFFF00000000
ENDCHAR
STARTCHAR 0056
ENCODING 86
SWIDTH 818 0
DWIDTH 131 0
BBX 122 127 7 -4
BITMAP
FFFFFC0000000000000000000FFFFFC0
FFFFFC0000000000000000000FFFFFC0
7FFFFE0000000000000000001FFFFF80
7FFFFE0000000000000000001FFFFF80
3FFFFF0000000000000000003FFFFF00
3FFFFF0000000000000000003FFFFF00
1FFFFF8000000000000000007FFFFE00
1FFFFF8000000000000000007FFFFE00
0FFFFFC00000000000000000FFFFFC00
0FFFFFC00000000000000000FFFFFC00
07FFFFE00000000000000001FFFFF800
07FFFFE00000000000000001FFFFF800
03FFFFF00000000000000003FFFFF000
03FFFFF00000000000000003FFFFF000
01FFFFF00000000000000007FFFFE000
01FFFFF80000000000000007FFFFE000
01FFFFF8000000000000000FFFFFE000
00FFFFFC000000000000000FFFFFC000
00FFFFFC000000000000001FFFFFC000
007FFFFE000000000000001FFFFF8000
007FFFFE000000000000001FFFFF8000
003FFFFF000000000000003FFFFF0000
003FFFFF000000000000003FFFFF0000
001FFFFF800000000000007FFFFE0000
001FFFFF800000000000007FFFFE0000
000FFFFFC0000000000000FFFFFC0000
000FFFFFC0000000000000FFFFFC0000
0007FFFFE0000000000001FFFFF80000
0007FFFFE0000000000001FFFFF80000
0003FFFFE0000000000003FFFFF00000
0003FFFFF0000000000003FFFFF00000
0001FFFFF0000000000007FFFFE00000
0001FFFFF8000000000007FFFFE00000
0000FFFFF800000000000FFFFFC00000
0000FFFFFC00000000000FFFFFC00000
00007FFFFC00000000001FFFFF800000
00007FFFFE00000000001FFFFF800000
00003FFFFE00000000003FFFFF000000
00003FFFFF00000000003FFFFF000000
00003FFFFF00000000007FFFFE000000
00001FFFFF80000000007FFFFE000000
00001FFFFF80000000007FFFFC000000
00000FFFFFC000000000FFFFFC000000
00000FFFFFC000000000FFFFF8000000
000007FFFFC000000001FFFFF8000000
000007FFFFE000000001FFFFF0000000
000003FFFFE000000003FFFFF0000000
000003FFFFF000000003FFFFE0000000
000001FFFFF000000007FFFFE0000000
000001FFFFF800000007FFFFC0000000
000000FFFFF80000000FFFFFC0000000
000000FFFFFC0000000FFFFF80000000
0000007FFFFC0000001FFFFF80000000
0000007FFFFE0000001FFFFF00000000
0000003FFFFE0000003FFFFF00000000
0000003FFFFF0000003FFFFE00000000
0000001FFFFF0000007FFFFE00000000
0000001FFFFF0000007FFFFC00000000
0000000FFFFF800000FFFFFC00000000
0000000FFFFF800000FFFFF800000000
00000007FFFFC00001FFFFF800000000
00000007FFFFC00001FFFFF000000000
00000007FFFFE00001FFFFF000000000
00000003FFFFE00003FFFFE000000000
00000003FFFFF00003FFFFE000000000
00000001FFFFF00007FFFFE000000000
00000001FFFFF80007FFFFC000000000
00000000FFFFF8000FFFFFC000000000
00000000FFFFFC000FFFFF8000000000
000000007FFFFC001FFFFF8000000000
000000007FFFFE001FFFFF0000000000
000000003FFFFE003FFFFF0000000000
000000003FFFFE003FFFFE0000000000
000000001FFFFF007FFFFE0000000000
000000001FFFFF007FFFFC0000000000
000000000FFFFF80FFFFFC0000000000
000000000FFFFF80FFFFF80000000000
0000000007FFFFC1FFFFF80000000000
0000000007FFFFC1FFFFF00000000000
0000000003FFFFE3FFFFF00000000000
0000000003FFFFE3FFFFE00000000000
0000000001FFFFF7FFFFE00000000000
0000000001FFFFF7FFFFC00000000000
0000000000FFFFFFFFFFC00000000000
0000000000FFFFFFFFFF800000000000
0000000000FFFFFFFFFF800000000000
00000000007FFFFFFFFF000000000000
00000000007FFFFFFFFF000000000000
00000000003FFFFFFFFE000000000000
00000000003FFFFFFFFE000000000000
00000000001FFFFFFFFC000000000000
00000000001FFFFFFFFC000000000000
00000000000FFFFFFFF8000000000000
00000000000FFFFFFFF8000000000000
000000000007FFFFFFF0000000000000
000000000007FFFFFFF0000000000000
000000000003FFFFFFE0000000000000
000000000003FFFFFFE0000000000000
000000000001FFFFFFC0000000000000
000000000001FFFFFFC0000000000000
000000000000FFFFFF80000000000000
000000000000FFFFFF80000000000000
0000000000007FFFFF00000000000000
0000000000007FFFFF00000000000000
0000000000003FFFFE00000000000000
0000000000003FFFFE00000000000000
0000000000001FFFFC00000000000000
0000000000001FFFFC00000000000000
0000000000000FFFF800000000000000
0000000000000FFFF800000000000000
0000000000000FFFF000000000000000
00000000000007FFF000000000000000
00000000000007FFE000000000000000
00000000000003FFE000000000000000
00000000000003FFC000000000000000
00000000000001FFC000000000000000
00000000000001FFC000000000000000
00000000000000FF8000000000000000
00000000000000FF8000000000000000
000000000000007F0000000000000000
000000000000007F0000000000000000
000000000000003E0000000000000000
000000000000003E0000000000000000
000000000000001C0000000000000000
000000000000001C0000000000000000
00000000000000080000000000000000
00000000000000080000000000000000
ENDCHAR
STARTCHAR 0057
ENCODING 87
SWIDTH 1293 0
DWIDTH 207 0
BBX 202 127 3 -2
BITMAP
FFFFFC0000000000000000000000000000000000000007FFFFC0
FFFFFE0000000000000000000600000000000000000007FFFFC0
7FFFFE000000000000000000060000000000000000000FFFFF80
7FFFFE0000000000000000000E0000000000000000000FFFFF80
3FFFFF0000000000000000000F0000000000000000001FFFFF00
3FFFFF0000000000000000001F0000000000000000001FFFFF00
1FFFFF8000000000000000001F8000000000000000003FFFFE00
1FFFFF8000000000000000003F8000000000000000003FFFFE00
0FFFFFC000000000000000003FC000000000000000007FFFFC00
0FFFFFC000000000000000007FC000000000000000007FFFFC00
07FFFFE000000000000000007FE00000000000000000FFFFFC00
07FFFFE00000000000000000FFE00000000000000000FFFFF800
03FFFFF00000000000000000FFF00000000000000000FFFFF800
03FFFFF00000000000000001FFF00000000000000001FFFFF000
01FFFFF80000000000000001FFF80000000000000001FFFFF000
01FFFFF80000000000000003FFF80000000000000003FFFFE000
00FFFFFC0000000000000003FFFC0000000000000003FFFFE000
00FFFFFC0000000000000007FFFC0000000000000007FFFFC000
007FFFFE0000000000000007FFFE0000000000000007FFFFC000
007FFFFE000000000000000FFFFE000000000000000FFFFF8000
003FFFFE000000000000000FFFFF000000000000000FFFFF8000
003FFFFF000000000000001FFFFF000000000000001FFFFF0000
003FFFFF000000000000001FFFFF800000000000001FFFFF0000
001FFFFF800000000000003FFFFF800000000000003FFFFE0000
001FFFFF800000000000003FFFFFC00000000000003FFFFE0000
000FFFFFC00000000000007FFFFFC00000000000007FFFFC0000
000FFFFFC00000000000007FFFFFE00000000000007FFFFC0000
0007FFFFE0000000000000FFFFFFE0000000000000FFFFF80000
0007FFFFE0000000000000FFFFFFE0000000000000FFFFF80000
0003FFFFF0000000000001FFFFFFF0000000000000FFFFF80000
0003FFFFF0000000000001FFFFFFF0000000000001FFFFF00000
0001FFFFF8000000000003FFFFFFF8000000000001FFFFF00000
0001FFFFF8000000000003FFFFFFF8000000000003FFFFE00000
0000FFFFFC000000000007FFFFFFFC000000000003FFFFE00000
0000FFFFFC000000000007FFFFFFFC000000000007FFFFC00000
00007FFFFE00000000000FFFFFFFFE000000000007FFFFC00000
00007FFFFE00000000000FFFFFFFFE00000000000FFFFF800000
00003FFFFE00000000001FFFFFFFFF00000000000FFFFF800000
00003FFFFF00000000001FFFFFFFFF00000000001FFFFF000000
00001FFFFF00000000003FFFFFFFFF80000000001FFFFF000000
00001FFFFF80000000003FFFFFFFFF80000000003FFFFE000000
00000FFFFF80000000007FFFFFFFFFC0000000003FFFFE000000
00000FFFFFC0000000007FFFFFFFFFC0000000007FFFFC000000
000007FFFFC000000000FFFFFFFFFFE0000000007FFFFC000000
000007FFFFE000000000FFFFFBFFFFE000000000FFFFF8000000
000003FFFFE000000000FFFFF9FFFFF000000000FFFFF8000000
000003FFFFF000000001FFFFF1FFFFF000000000FFFFF8000000
000001FFFFF000000001FFFFF0FFFFF800000001FFFFF0000000
000001FFFFF800000003FFFFE0FFFFF800000001FFFFF0000000
000000FFFFF800000003FFFFE07FFFFC00000003FFFFE0000000
000000FFFFFC00000007FFFFC07FFFFC00000003FFFFE0000000
0000007FFFFC00000007FFFFC03FFFFC00000007FFFFC0000000
0000007FFFFE0000000FFFFF803FFFFE00000007FFFFC0000000
0000003FFFFE0000000FFFFF801FFFFE0000000FFFFF80000000
0000003FFFFF0000001FFFFF001FFFFF0000000FFFFF80000000
0000003FFFFF0000001FFFFF001FFFFF0000001FFFFF00000000
0000001FFFFF0000003FFFFE000FFFFF8000001FFFFF00000000
0000001FFFFF8000003FFFFE000FFFFF8000003FFFFE00000000
0000000FFFFF8000007FFFFC0007FFFFC000003FFFFE00000000
0000000FFFFFC000007FFFFC0007FFFFC000007FFFFC00000000
00000007FFFFC00000FFFFF80003FFFFE000007FFFFC00000000
00000007FFFFE00000FFFFF80003FFFFE00000FFFFF800000000
00000003FFFFE00001FFFFF00001FFFFF00000FFFFF800000000
00000003FFFFF00001FFFFF00001FFFFF00000FFFFF800000000
00000001FFFFF00003FFFFE00000FFFFF80001FFFFF000000000
00000001FFFFF80003FFFFE00000FFFFF80001FFFFF000000000
00000000FFFFF80007FFFFC000007FFFFC0003FFFFE000000000
00000000FFFFFC0007FFFFC000007FFFFC0003FFFFE000000000
000000007FFFFC000FFFFF8000003FFFFE0007FFFFC000000000
000000007FFFFE000FFFFF8000003FFFFE0007FFFFC000000000
000000003FFFFE001FFFFF0000001FFFFF000FFFFF8000000000
000000003FFFFF001FFFFF0000001FFFFF000FFFFF8000000000
000000001FFFFF003FFFFF0000000FFFFF801FFFFF0000000000
000000001FFFFF003FFFFE0000000FFFFF801FFFFF0000000000
000000000FFFFF807FFFFE00000007FFFFC03FFFFE0000000000
000000000FFFFF807FFFFC00000007FFFFC03FFFFE0000000000
0000000007FFFFC0FFFFFC00000003FFFFC07FFFFC0000000000
0000000007FFFFC0FFFFF800000003FFFFE07FFFFC0000000000
0000000003FFFFE1FFFFF800000001FFFFE0FFFFF80000000000
0000000003FFFFE1FFFFF000000001FFFFF0FFFFF80000000000
0000000001FFFFF3FFFFF000000000FFFFF1FFFFF80000000000
0000000001FFFFF3FFFFE000000000FFFFF9FFFFF00000000000
0000000000FFFFFFFFFFE0000000007FFFF9FFFFF00000000000
0000000000FFFFFFFFFFC0000000007FFFFFFFFFE00000000000
00000000007FFFFFFFFFC0000000003FFFFFFFFFE00000000000
00000000007FFFFFFFFF80000000003FFFFFFFFFC00000000000
00000000003FFFFFFFFF80000000001FFFFFFFFFC00000000000
00000000003FFFFFFFFF00000000001FFFFFFFFF800000000000
00000000001FFFFFFFFF00000000000FFFFFFFFF800000000000
00000000001FFFFFFFFE00000000000FFFFFFFFF000000000000
00000000001FFFFFFFFE000000000007FFFFFFFF000000000000
00000000000FFFFFFFFC000000000007FFFFFFFE000000000000
00000000000FFFFFFFFC000000000003FFFFFFFE000000000000
000000000007FFFFFFF8000000000003FFFFFFFC000000000000
000000000007FFFFFFF8000000000001FFFFFFFC000000000000
000000000003FFFFFFF0000000000001FFFFFFF8000000000000
000000000003FFFFFFF0000000000000FFFFFFF8000000000000
000000000001FFFFFFE0000000000000FFFFFFF8000000000000
000000000001FFFFFFE00000000000007FFFFFF0000000000000
000000000000FFFFFFC00000000000007FFFFFF0000000000000
000000000000FFFFFFC00000000000003FFFFFE0000000000000
0000000000007FFFFF800000000000003FFFFFE0000000000000
0000000000007FFFFF800000000000001FFFFFC0000000000000
0000000000003FFFFF000000000000001FFFFFC0000000000000
0000000000003FFFFF000000000000000FFFFF80000000000000
0000000000001FFFFE000000000000000FFFFF80000000000000
0000000000001FFFFE0000000000000007FFFF00000000000000
0000000000000FFFFC0000000000000007FFFF00000000000000
0000000000000FFFFC0000000000000003FFFE00000000000000
00000000000007FFF80000000000000003FFFE00000000000000
00000000000007FFF80000000000000001FFFC00000000000000
00000000000003FFF00000000000000001FFFC00000000000000
00000000000003FFF00000000000000000FFF800000000000000
00000000000001FFE00000000000000000FFF800000000000000
00000000000001FFE000000000000000007FF000000000000000
00000000000000FFC000000000000000007FF000000000000000
00000000000000FFC000000000000000003FF000000000000000
000000000000007F8000000000000000003FE000000000000000
000000000000007F8000000000000000001FE000000000000000
000000000000003F8000000000000000001FC000000000000000
000000000000003F0000000000000000000FC000000000000000
000000000000001F0000000000000000000F8000000000000000
000000000000001E000000000000000000078000000000000000
000000000000001E000000000000000000070000000000000000
000000000000000C000000000000000000070000000000000000
000000000000000C000000000000000000020000000000000000
0000000000000000000000000000000000020000000000000000
ENDCHAR
STARTCHAR 0058
ENCODING 88
SWIDTH 1031 0
DWIDTH 165 0
BBX 152 127 2 -4
BITMAP
0FFFFFF8000000000000000000000007FFFFF8
07FFFFFC00000000000000000000000FFFFFF0
03FFFFFE00000000000000000000003FFFFFE0
01FFFFFF00000000000000000000007FFFFFC0
00FFFFFF8000000000000000000000FFFFFF80
007FFFFFC000000000000000000001FFFFFF00
003FFFFFE000000000000000000003FFFFFE00
001FFFFFF000000000000000000007FFFFFC00
000FFFFFF80000000000000000000FFFFFF800
0007FFFFFC0000000000000000001FFFFFF000
0003FFFFFE0000000000000000003FFFFFE000
0001FFFFFF0000000000000000007FFFFFC000
0000FFFFFF800000000000000000FFFFFF8000
00007FFFFFC00000000000000001FFFFFF0000
00003FFFFFE00000000000000003FFFFFE0000
00001FFFFFF00000000000000007FFFFFC0000
00000FFFFFF8000000000000000FFFFFF80000
000007FFFFFC000000000000001FFFFFF00000
000003FFFFFE000000000000003FFFFFE00000
000001FFFFFF800000000000007FFFFFC00000
000000FFFFFFC0000000000000FFFFFF800000
0000007FFFFFE0000000000003FFFFFF000000
0000003FFFFFF0000000000007FFFFFE000000
0000001FFFFFF800000000000FFFFFFC000000
0000000FFFFFFC00000000001FFFFFF8000000
00000007FFFFFE00000000003FFFFFF0000000
00000003FFFFFF00000000007FFFFFE0000000
00000001FFFFFF8000000000FFFFFFC0000000
00000000FFFFFFC000000001FFFFFF80000000
000000007FFFFFE000000003FFFFFF00000000
000000003FFFFFF000000007FFFFFE00000000
000000001FFFFFF80000000FFFFFFC00000000
000000000FFFFFFC0000001FFFFFF800000000
0000000007FFFFFE0000003FFFFFF000000000
0000000003FFFFFF0000007FFFFFE000000000
0000000001FFFFFF800000FFFFFFC000000000
0000000000FFFFFFC00001FFFFFF8000000000
00000000007FFFFFE00003FFFFFF0000000000
00000000003FFFFFF00007FFFFFE0000000000
00000000001FFFFFF8000FFFFFFC0000000000
00000000000FFFFFFC003FFFFFF80000000000
000000000007FFFFFE007FFFFFF00000000000
000000000003FFFFFF00FFFFFFE00000000000
000000000001FFFFFF81FFFFFFC00000000000
000000000000FFFFFFC3FFFFFF800000000000
0000000000007FFFFFE7FFFFFF000000000000
0000000000003FFFFFFFFFFFFE000000000000
0000000000001FFFFFFFFFFFFC000000000000
0000000000000FFFFFFFFFFFF8000000000000
00000000000007FFFFFFFFFFF0000000000000
00000000000003FFFFFFFFFFE0000000000000
00000000000001FFFFFFFFFFC0000000000000
00000000000000FFFFFFFFFF80000000000000
000000000000007FFFFFFFFF00000000000000
000000000000003FFFFFFFFE00000000000000
000000000000001FFFFFFFFC00000000000000
000000000000000FFFFFFFF800000000000000
0000000000000007FFFFFFF000000000000000
0000000000000003FFFFFFE000000000000000
0000000000000001FFFFFFC000000000000000
0000000000000001FFFFFFC000000000000000
0000000000000003FFFFFFE000000000000000
0000000000000007FFFFFFF000000000000000
000000000000000FFFFFFFF800000000000000
000000000000001FFFFFFFFE00000000000000
000000000000003FFFFFFFFF00000000000000
000000000000007FFFFFFFFF80000000000000
00000000000000FFFFFFFFFFC0000000000000
00000000000001FFFFFFFFFFE0000000000000
00000000000003FFFFFFFFFFF0000000000000
00000000000003FFFFFFFFFFF8000000000000
00000000000007FFFFFFFFFFFC000000000000
0000000000000FFFFFFFFFFFFE000000000000
0000000000001FFFFFFFFFFFFF000000000000
0000000000003FFFFFF3FFFFFF800000000000
0000000000007FFFFFE1FFFFFFC00000000000
000000000000FFFFFFC0FFFFFFE00000000000
000000000001FFFFFF807FFFFFF00000000000
000000000003FFFFFF003FFFFFF80000000000
000000000007FFFFFE001FFFFFFC0000000000
00000000000FFFFFFC000FFFFFFE0000000000
00000000001FFFFFF80007FFFFFF0000000000
00000000003FFFFFF00003FFFFFF8000000000
00000000007FFFFFE00003FFFFFFC000000000
0000000000FFFFFFC00001FFFFFFE000000000
0000000001FFFFFFC00000FFFFFFF000000000
0000000003FFFFFF8000007FFFFFF800000000
0000000007FFFFFF0000003FFFFFFC00000000
000000000FFFFFFE0000001FFFFFFE00000000
000000000FFFFFFC0000000FFFFFFF00000000
000000001FFFFFF800000007FFFFFF80000000
000000003FFFFFF000000003FFFFFFC0000000
000000007FFFFFE000000001FFFFFFE0000000
00000000FFFFFFC000000000FFFFFFF0000000
00000001FFFFFF8000000000FFFFFFF8000000
00000003FFFFFF00000000007FFFFFFC000000
00000007FFFFFE00000000003FFFFFFE000000
0000000FFFFFFE00000000001FFFFFFF000000
0000001FFFFFFC00000000000FFFFFFF800000
0000003FFFFFF8000000000007FFFFFFC00000
0000007FFFFFF0000000000003FFFFFFE00000
000000FFFFFFE0000000000001FFFFFFF00000
000001FFFFFFC0000000000000FFFFFFF80000
000003FFFFFF800000000000007FFFFFFC0000
000007FFFFFF000000000000003FFFFFFE0000
00000FFFFFFE000000000000003FFFFFFF0000
00001FFFFFFC000000000000001FFFFFFF8000
00003FFFFFF8000000000000000FFFFFFFC000
00003FFFFFF00000000000000007FFFFFFE000
00007FFFFFE00000000000000003FFFFFFF000
0000FFFFFFC00000000000000001FFFFFFF800
0001FFFFFF800000000000000000FFFFFFFC00
0003FFFFFF0000000000000000007FFFFFFE00
0007FFFFFE0000000000000000003FFFFFFF00
000FFFFFFC0000000000000000001FFFFFFF80
001FFFFFF80000000000000000001FFFFFFFC0
003FFFFFE00000000000000000000FFFFFFFE0
007FFFFFC000000000000000000007FFFFFFF0
00FFFFFF8000000000000000000003FFFFFFF8
01FFFFFF0000000000000000000001FFFFFFFC
03FFFFFE0000000000000000000000FFFFFFFE
07FFFFF800000000000000000000007FFFFFFF
0FFFFFF000000000000000000000003FFFFFFC
1FFFFFC000000000000000000000001FFFFF00
3FFFFE0000000000000000000000000FFFE000
7FFFE000000000000000000000000007FC0000
FE000000000000000000000000000007800000
ENDCHAR
STARTCHAR 0059
ENCODING 89
SWIDTH 881 0
DWIDTH 141 0
BBX 147 127 3 -4
BITMAP
FFFFFFE000000000000000000000001FFFFFE0
7FFFFFF000000000000000000000003FFFFFC0
3FFFFFF800000000000000000000007FFFFF80
1FFFFFFC0000000000000000000000FFFFFF00
0FFFFFFF0000000000000000000001FFFFFE00
07FFFFFF8000000000000000000003FFFFFC00
03FFFFFFC000000000000000000007FFFFF800
01FFFFFFE00000000000000000000FFFFFF000
00FFFFFFF00000000000000000001FFFFFE000
007FFFFFF80000000000000000003FFFFFC000
003FFFFFFC000000000000000000FFFFFF8000
001FFFFFFE000000000000000001FFFFFF0000
000FFFFFFF000000000000000003FFFFFE0000
0007FFFFFF800000000000000007FFFFFC0000
0003FFFFFFC0000000000000000FFFFFF80000
0001FFFFFFE0000000000000001FFFFFF00000
0000FFFFFFF0000000000000003FFFFFE00000
00007FFFFFF8000000000000007FFFFFC00000
00003FFFFFFC00000000000000FFFFFF800000
00001FFFFFFE00000000000001FFFFFF000000
00000FFFFFFF00000000000003FFFFFE000000
000007FFFFFF80000000000007FFFFFC000000
000003FFFFFFC000000000000FFFFFF8000000
000001FFFFFFE000000000001FFFFFF0000000
000000FFFFFFF000000000007FFFFFE0000000
0000007FFFFFF80000000000FFFFFFC0000000
0000003FFFFFFC0000000001FFFFFF80000000
0000001FFFFFFE0000000003FFFFFF00000000
0000000FFFFFFF0000000007FFFFFE00000000
00000007FFFFFF800000000FFFFFFC00000000
00000003FFFFFFC00000001FFFFFF800000000
00000001FFFFFFE00000003FFFFFF000000000
00000000FFFFFFF00000007FFFFFE000000000
000000007FFFFFF8000000FFFFFFC000000000
000000007FFFFFFC000001FFFFFF8000000000
000000003FFFFFFE000003FFFFFF0000000000
000000001FFFFFFF000007FFFFFE0000000000
000000000FFFFFFF80000FFFFFFC0000000000
0000000007FFFFFFC0001FFFFFF80000000000
0000000003FFFFFFE0007FFFFFF80000000000
0000000001FFFFFFF000FFFFFFF00000000000
0000000000FFFFFFF801FFFFFFE00000000000
00000000007FFFFFFC03FFFFFFC00000000000
00000000003FFFFFFE07FFFFFF800000000000
00000000001FFFFFFF0FFFFFFF000000000000
00000000000FFFFFFF9FFFFFFE000000000000
000000000007FFFFFFFFFFFFFC000000000000
000000000003FFFFFFFFFFFFF8000000000000
000000000001FFFFFFFFFFFFF0000000000000
000000000000FFFFFFFFFFFFE0000000000000
0000000000007FFFFFFFFFFFC0000000000000
0000000000003FFFFFFFFFFF80000000000000
0000000000001FFFFFFFFFFF00000000000000
0000000000000FFFFFFFFFFE00000000000000
00000000000007FFFFFFFFFC00000000000000
00000000000003FFFFFFFFF800000000000000
00000000000001FFFFFFFFF000000000000000
00000000000000FFFFFFFFE000000000000000
000000000000007FFFFFFFC000000000000000
000000000000003FFFFFFF8000000000000000
000000000000001FFFFFFF0000000000000000
000000000000000FFFFFFE0000000000000000
0000000000000007FFFFFC0000000000000000
0000000000000003FFFFF80000000000000000
0000000000000001FFFFF80000000000000000
0000000000000000FFFFF80000000000000000
00000000000000007FFFF80000000000000000
00000000000000003FFFF80000000000000000
00000000000000003FFFF80000000000000000
00000000000000003FFFF80000000000000000
00000000000000003FFFF80000000000000000
00000000000000003FFFF80000000000000000
00000000000000003FFFF80000000000000000
00000000000000003FFFF80000000000000000
00000000000000003FFFF80000000000000000
00000000000000003FFFF80000000000000000
00000000000000003FFFF80000000000000000
00000000000000003FFFF80000000000000000
00000000000000003FFFF80000000000000000
00000000000000003FFFF80000000000000000
00000000000000003FFFF80000000000000000
00000000000000003FFFF80000000000000000
00000000000000003FFFF80000000000000000
00000000000000003FFFF80000000000000000
00000000000000003FFFF80000000000000000
00000000000000003FFFF80000000000000000
00000000000000003FFFF80000000000000000
00000000000000003FFFF80000000000000000
00000000000000003FFFF80000000000000000
00000000000000003FFFF80000000000000000
00000000000000003FFFF80000000000000000
00000000000000003FFFF80000000000000000
00000000000000003FFFF80000000000000000
00000000000000003FFFF80000000000000000
00000000000000003FFFF80000000000000000
00000000000000003FFFF80000000000000000
00000000000000003FFFF80000000000000000
00000000000000003FFFF80000000000000000
00000000000000003FFFF80000000000000000
00000000000000003FFFF80000000000000000
00000000000000003FFFF80000000000000000
00000000000000003FFFF80000000000000000
00000000000000003FFFF80000000000000000
00000000000000003FFFF80000000000000000
00000000000000003FFFF80000000000000000
00000000000000003FFFF80000000000000000
00000000000000003FFFF80000000000000000
00000000000000003FFFF80000000000000000
00000000000000003FFFF80000000000000000
00000000000000003FFFF80000000000000000
00000000000000003FFFF80000000000000000
00000000000000003FFFF80000000000000000
00000000000000003FFFF80000000000000000
00000000000000003FFFF80000000000000000
00000000000000003FFFF80000000000000000
00000000000000003FFFF80000000000000000
00000000000000003FFFF80000000000000000
00000000000000003FFFF80000000000000000
00000000000000003FFFF80000000000000000
00000000000000003FFFF80000000000000000
00000000000000003FFFF80000000000000000
00000000000000003FFFF80000000000000000
00000000000000003FFFF80000000000000000
00000000000000003FFFC00000000000000000
00000000000000003FFC000000000000000000
00000000000000003F80000000000000000000
00000000000000003000000000000000000000
ENDCHAR
STARTCHAR 005A
ENCODING 90
SWIDTH 887 0
DWIDTH 142 0
BBX 131 123 2 2
BITMAP
0000001FFFFFFFFFFFFFFFFFFFFFFF8000
0000003FFFFFFFFFFFFFFFFFFFFFFF0000
0000007FFFFFFFFFFFFFFFFFFFFFFE0000
000001FFFFFFFFFFFFFFFFFFFFFFFC0000
000003FFFFFFFFFFFFFFFFFFFFFFF80000
000007FFFFFFFFFFFFFFFFFFFFFFF80000
00000FFFFFFFFFFFFFFFFFFFFFFFF00000
00001FFFFFFFFFFFFFFFFFFFFFFFE00000
00003FFFFFFFFFFFFFFFFFFFFFFFC00000
00007FFFFFFFFFFFFFFFFFFFFFFF800000
0000FFFFFFFFFFFFFFFFFFFFFFFF800000
0001FFFFFFFFFFFFFFFFFFFFFFFF000000
0003FFFFFFFFFFFFFFFFFFFFFFFE000000
0007FFFFFFFFFFFFFFFFFFFFFFFC000000
000FFFFFFFFFFFFFFFFFFFFFFFF8000000
001FFFFFFFFFFFFFFFFFFFFFFFF8000000
003FFFFFFFFFFFFFFFFFFFFFFFF0000000
007FFFFFFFFFFFFFFFFFFFFFFFE0000000
00FFFFFFFFFFFFFFFFFFFFFFFFC0000000
01C00000000000000000FFFFFFC0000000
00000000000000000000FFFFFF80000000
00000000000000000001FFFFFF00000000
00000000000000000003FFFFFE00000000
00000000000000000007FFFFFC00000000
00000000000000000007FFFFFC00000000
0000000000000000000FFFFFF800000000
0000000000000000001FFFFFF000000000
0000000000000000003FFFFFE000000000
0000000000000000007FFFFFC000000000
0000000000000000007FFFFFC000000000
000000000000000000FFFFFF8000000000
000000000000000001FFFFFF0000000000
000000000000000003FFFFFE0000000000
000000000000000003FFFFFC0000000000
000000000000000007FFFFFC0000000000
00000000000000000FFFFFF80000000000
00000000000000001FFFFFF00000000000
00000000000000003FFFFFE00000000000
00000000000000003FFFFFE00000000000
00000000000000007FFFFFC00000000000
0000000000000000FFFFFF800000000000
0000000000000001FFFFFF000000000000
0000000000000001FFFFFE000000000000
0000000000000003FFFFFE000000000000
0000000000000007FFFFFC000000000000
000000000000000FFFFFF8000000000000
000000000000001FFFFFF0000000000000
000000000000001FFFFFE0000000000000
000000000000003FFFFFE0000000000000
000000000000007FFFFFC0000000000000
00000000000000FFFFFF80000000000000
00000000000000FFFFFF00000000000000
00000000000001FFFFFE00000000000000
00000000000003FFFFFE00000000000000
00000000000007FFFFFC00000000000000
0000000000000FFFFFF800000000000000
0000000000000FFFFFF000000000000000
0000000000001FFFFFF000000000000000
0000000000003FFFFFE000000000000000
0000000000007FFFFFC000000000000000
0000000000007FFFFF8000000000000000
000000000000FFFFFF0000000000000000
000000000001FFFFFF0000000000000000
000000000003FFFFFE0000000000000000
000000000007FFFFFC0000000000000000
000000000007FFFFF80000000000000000
00000000000FFFFFF00000000000000000
00000000001FFFFFF00000000000000000
00000000003FFFFFE00000000000000000
00000000003FFFFFC00000000000000000
00000000007FFFFF800000000000000000
0000000000FFFFFF000000000000000000
0000000001FFFFFF000000000000000000
0000000003FFFFFE000000000000000000
0000000003FFFFFC000000000000000000
0000000007FFFFF8000000000000000000
000000000FFFFFF8000000000000000000
000000001FFFFFF0000000000000000000
000000001FFFFFE0000000000000000000
000000003FFFFFC0000000000000000000
000000007FFFFF80000000000000000000
00000000FFFFFF80000000000000000000
00000001FFFFFF00000000000000000000
00000001FFFFFE00000000000000000000
00000003FFFFFC00000000000000000000
00000007FFFFF800000000000000000000
0000000FFFFFF800000000000000000000
0000000FFFFFF000000000000000000000
0000001FFFFFE000000000000000000000
0000003FFFFFC000000000000000000000
0000007FFFFFC000000000000000000000
000000FFFFFF8000000000000000000000
000000FFFFFF0000000000000000000000
000001FFFFFE0000000000000000000000
000003FFFFFC0000000000000000000000
000007FFFFFC0000000000000000000000
000007FFFFF80000000000000000000000
00000FFFFFF00000000000000000000000
00001FFFFFE00000000000000000000000
00003FFFFFC00000000000000000000000
00007FFFFFC00000000000000000000000
00007FFFFF800000000000000000000060
0000FFFFFF0000000000000000000007C0
0001FFFFFE00000000000000000000FFC0
0003FFFFFFFFFFFFFFFFFFFFFFFFFFFF80
0003FFFFFFFFFFFFFFFFFFFFFFFFFFFF00
0007FFFFFFFFFFFFFFFFFFFFFFFFFFFE00
000FFFFFFFFFFFFFFFFFFFFFFFFFFFFC00
001FFFFFFFFFFFFFFFFFFFFFFFFFFFF800
003FFFFFFFFFFFFFFFFFFFFFFFFFFFF000
003FFFFFFFFFFFFFFFFFFFFFFFFFFFE000
007FFFFFFFFFFFFFFFFFFFFFFFFFFFC000
00FFFFFFFFFFFFFFFFFFFFFFFFFFFF8000
01FFFFFFFFFFFFFFFFFFFFFFFFFFFF0000
01FFFFFFFFFFFFFFFFFFFFFFFFFFFF0000
03FFFFFFFFFFFFFFFFFFFFFFFFFFFE0000
07FFFFFFFFFFFFFFFFFFFFFFFFFFFC0000
0FFFFFFFFFFFFFFFFFFFFFFFFFFFF80000
1FFFFFFFFFFFFFFFFFFFFFFFFFFFF00000
1FFFFFFFFFFFFFFFFFFFFFFFFFFFE00000
3FFFFFFFFFFFFFFFFFFFFFFFFFFFC00000
7FFFFFFFFFFFFFFFFFFFFFFFFFFF800000
FFFFFFFFFFFFFFFFFFFFFFFFFFFF000000
ENDCHAR
STARTCHAR 005B
ENCODING 91
SWIDTH 287 0
DWIDTH 46 0
BBX 34 133 9 -4
BITMAP
FFFFFFFFC0
FFFFFFFFC0
FFFFFFFFC0
FFFFFFFFC0
FFFFFFFFC0
FFFFFFFFC0
FFFFFFFFC0
FFFFFFFFC0
FFFFFFFFC0
FFFFFFFFC0
FFFFFFFFC0
FFFFFFFFC0
FFFFFFFFC0
FFFFFFFFC0
FFFFFFFFC0
FFFFFFFFC0
FFFFFFFFC0
FFFFFFFFC0
FFFFFFFFC0
FFFFE00000
FFFFE00000
FFFFE00000
FFFFE00000
FFFFE00000
FFFFE00000
FFFFE00000
FFFFE00000
FFFFE00000
FFFFE00000
FFFFE00000
FFFFE00000
FFFFE00000
FFFFE00000
FFFFE00000
FFFFE00000
FFFFE00000
FFFFE00000
FFFFE00000
FFFFE00000
FFFFE00000
FFFFE00000
FFFFE00000
FFFFE00000
FFFFE00000
FFFFE00000
FFFFE00000
FFFFE00000
FFFFE00000
FFFFE00000
FFFFE00000
FFFFE00000
FFFFE00000
FFFFE00000
FFFFE00000
FFFFE00000
FFFFE00000
FFFFE00000
FFFFE00000
FFFFE00000
FFFFE00000
FFFFE00000
FFFFE00000
FFFFE00000
FFFFE00000
FFFFE00000
FFFFE00000
FFFFE00000
FFFFE00000
FFFFE00000
FFFFE00000
FFFFE00000
FFFFE00000
FFFFE00000
FFFFE00000
FFFFE00000
FFFFE00000
FFFFE00000
FFFFE00000
FFFFE00000
FFFFE00000
FFFFE00000
FFFFE00000
FFFFE00000
FFFFE00000
FFFFE00000
FFFFE00000
FFFFE00000
FFFFE00000
FFFFE00000
FFFFE00000
FFFFE00000
FFFFE00000
FFFFE00000
FFFFE00000
FFFFE00000
FFFFE00000
FFFFE00000
FFFFE00000
FFFFE00000
FFFFE00000
FFFFE00000
FFFFE00000
FFFFE00000
FFFFE00000
FFFFE00000
FFFFE00000
FFFFE00000
FFFFE00000
FFFFE00000
FFFFE00000
FFFFE00000
FFFFE00000
FFFFE00000
FFFFE00000
FFFFFFFFC0
FFFFFFFFC0
FFFFFFFFC0
FFFFFFFFC0
FFFFFFFFC0
FFFFFFFFC0
FFFFFFFFC0
FFFFFFFFC0
FFFFFFFFC0
FFFFFFFFC0
FFFFFFFFC0
FFFFFFFFC0
FFFFFFFFC0
FFFFFFFFC0
FFFFFFFFC0
FFFFFFFFC0
FFFFFFFFC0
FFFFFFFFC0
FFFFFFFFC0
ENDCHAR
STARTCHAR 005C
ENCODING 92
SWIDTH 612 0
DWIDTH 98 0
BBX 79 123 7 0
BITMAP
FFFFFFFF000000000000
7FFFFFFF000000000000
7FFFFFFF000000000000
3FFFFFFF000000000000
3FFFFFF8000000000000
1FFFFFC0000000000000
1FFFFF80000000000000
0FFFFF00000000000000
0FFFFF00000000000000
07FFFF00000000000000
07FFFF80000000000000
07FFFF80000000000000
03FFFFC0000000000000
03FFFFC0000000000000
01FFFFE0000000000000
01FFFFE0000000000000
00FFFFF0000000000000
00FFFFF0000000000000
007FFFF8000000000000
007FFFF8000000000000
003FFFFC000000000000
003FFFFC000000000000
001FFFFE000000000000
001FFFFE000000000000
000FFFFF000000000000
000FFFFF000000000000
0007FFFF800000000000
0007FFFF800000000000
0003FFFFC00000000000
0003FFFFC00000000000
0003FFFFE00000000000
0001FFFFE00000000000
0001FFFFF00000000000
0000FFFFF00000000000
0000FFFFF80000000000
00007FFFF80000000000
00007FFFFC0000000000
00003FFFFC0000000000
00003FFFFC0000000000
00001FFFFE0000000000
00001FFFFE0000000000
00000FFFFF0000000000
00000FFFFF0000000000
000007FFFF8000000000
000007FFFF8000000000
000003FFFFC000000000
000003FFFFC000000000
000001FFFFE000000000
000001FFFFE000000000
000001FFFFF000000000
000000FFFFF000000000
000000FFFFF800000000
0000007FFFF800000000
0000007FFFFC00000000
0000003FFFFC00000000
0000003FFFFE00000000
0000001FFFFE00000000
0000001FFFFF00000000
0000000FFFFF00000000
0000000FFFFF80000000
00000007FFFF80000000
00000007FFFFC0000000
00000003FFFFC0000000
00000003FFFFE0000000
00000001FFFFE0000000
00000001FFFFF0000000
00000000FFFFF0000000
00000000FFFFF8000000
00000000FFFFF8000000
000000007FFFF8000000
000000007FFFFC000000
000000003FFFFC000000
000000003FFFFE000000
000000001FFFFE000000
000000001FFFFF000000
000000000FFFFF000000
000000000FFFFF800000
0000000007FFFF800000
0000000007FFFFC00000
0000000003FFFFC00000
0000000003FFFFE00000
0000000001FFFFE00000
0000000001FFFFF00000
0000000000FFFFF00000
0000000000FFFFF80000
00000000007FFFF80000
00000000007FFFFC0000
00000000007FFFFC0000
00000000003FFFFE0000
00000000003FFFFE0000
00000000001FFFFF0000
00000000001FFFFF0000
00000000000FFFFF8000
00000000000FFFFF8000
000000000007FFFFC000
000000000007FFFFC000
000000000003FFFFE000
000000000003FFFFE000
000000000001FFFFF000
000000000001FFFFF000
000000000000FFFFF000
000000000000FFFFF800
0000000000007FFFF800
0000000000007FFFFC00
0000000000003FFFFC00
0000000000003FFFFE00
0000000000003FFFFE00
0000000000001FFFFF00
0000000000001FFFFF00
0000000000000FFFFF80
0000000000000FFFFF80
00000000000007FFFFC0
00000000000007FFFFC0
00000000000003FFFFE0
00000000000003FFFFE0
00000000000001FFFFF0
00000000000003FFFFF0
00000000000007FFFFF8
0000000000000FFFFFF8
000000000001FFFFFFFC
000000000001FFFFFFFC
000000000001FFFFFFFE
000000000001FFFFFFFE
ENDCHAR
STARTCHAR 005D
ENCODING 93
SWIDTH 318 0
DWIDTH 51 0
BBX 35 133 6 -4
BITMAP
FFFFFFFFE0
FFFFFFFFE0
FFFFFFFFE0
FFFFFFFFE0
FFFFFFFFE0
FFFFFFFFE0
FFFFFFFFE0
FFFFFFFFE0
FFFFFFFFE0
FFFFFFFFE0
FFFFFFFFE0
FFFFFFFFE0
FFFFFFFFE0
FFFFFFFFE0
FFFFFFFFE0
FFFFFFFFE0
FFFFFFFFE0
FFFFFFFFE0
FFFFFFFFE0
0000FFFFE0
0000FFFFE0
0000FFFFE0
0000FFFFE0
0000FFFFE0
0000FFFFE0
0000FFFFE0
0000FFFFE0
0000FFFFE0
0000FFFFE0
0000FFFFE0
0000FFFFE0
0000FFFFE0
0000FFFFE0
0000FFFFE0
0000FFFFE0
0000FFFFE0
0000FFFFE0
0000FFFFE0
0000FFFFE0
0000FFFFE0
0000FFFFE0
0000FFFFE0
0000FFFFE0
0000FFFFE0
0000FFFFE0
0000FFFFE0
0000FFFFE0
0000FFFFE0
0000FFFFE0
0000FFFFE0
0000FFFFE0
0000FFFFE0
0000FFFFE0
0000FFFFE0
0000FFFFE0
0000FFFFE0
0000FFFFE0
0000FFFFE0
0000FFFFE0
0000FFFFE0
0000FFFFE0
0000FFFFE0
0000FFFFE0
0000FFFFE0
0000FFFFE0
0000FFFFE0
0000FFFFE0
0000FFFFE0
0000FFFFE0
0000FFFFE0
0000FFFFE0
0000FFFFE0
0000FFFFE0
0000FFFFE0
0000FFFFE0
0000FFFFE0
0000FFFFE0
0000FFFFE0
0000FFFFE0
0000FFFFE0
0000FFFFE0
0000FFFFE0
0000FFFFE0
0000FFFFE0
0000FFFFE0
0000FFFFE0
0000FFFFE0
0000FFFFE0
0000FFFFE0
0000FFFFE0
0000FFFFE0
0000FFFFE0
0000FFFFE0
0000FFFFE0
0000FFFFE0
0000FFFFE0
0000FFFFE0
0000FFFFE0
0000FFFFE0
0000FFFFE0
0000FFFFE0
0000FFFFE0
0000FFFFE0
0000FFFFE0
0000FFFFE0
0000FFFFE0
0000FFFFE0
0000FFFFE0
0000FFFFE0
0000FFFFE0
0000FFFFE0
0000FFFFE0
0000FFFFE0
0000FFFFE0
FFFFFFFFE0
FFFFFFFFE0
FFFFFFFFE0
FFFFFFFFE0
FFFFFFFFE0
FFFFFFFFE0
FFFFFFFFE0
FFFFFFFFE0
FFFFFFFFE0
FFFFFFFFE0
FFFFFFFFE0
FFFFFFFFE0
FFFFFFFFE0
FFFFFFFFE0
FFFFFFFFE0
FFFFFFFFE0
FFFFFFFFE0
FFFFFFFFE0
FFFFFFFFE0
ENDCHAR
STARTCHAR 005E
ENCODING 94
SWIDTH 593 0
DWIDTH 95 0
BBX 72 38 8 85
BITMAP
000000001000000000
000000003800000000
000000007C00000000
00000000FE00000000
00000001FF00000000
00000003FF80000000
00000007FFC0000000
0000000FFFE0000000
0000001FFFF0000000
0000003FFFF8000000
0000007FFFFC000000
000000FFFFFE000000
000001FFFFFF000000
000003FFFFFF800000
000007FFFFFFC00000
00000FFFFFFFE00000
00001FFFFFFFF00000
00003FFFFFFFF80000
00007FFFFFFFFC0000
0000FFFFFFFFFE0000
0001FFFFFFFFFF0000
0003FFFFEFFFFF8000
0007FFFFC7FFFFC000
000FFFFF83FFFFE000
001FFFFF01FFFFF000
003FFFFE00FFFFF800
007FFFFC007FFFFC00
00FFFFF8003FFFFE00
01FFFFF0001FFFFF00
03FFFFE0001FFFFF80
03FFFFC0000FFFFFC0
07FFFF800007FFFFE0
0FFFFF000003FFFFF0
1FFFFC000001FFFFF8
3FFFF8000000FFFFFC
7FFFF00000003FFFFE
FFFFE00000001FFFFF
00000000000003FF80
ENDCHAR
STARTCHAR 005F
ENCODING 95
SWIDTH 631 0
DWIDTH 101 0
BBX 96 18 12 -37
BITMAP
FFFFFFFFFFFFFFFFFFFFFFFF
FFFFFFFFFFFFFFFFFFFFFFFF
FFFFFFFFFFFFFFFFFFFFFFFF
FFFFFFFFFFFFFFFFFFFFFFFF
FFFFFFFFFFFFFFFFFFFFFFFF
FFFFFFFFFFFFFFFFFFFFFFFF
FFFFFFFFFFFFFFFFFFFFFFFF
FFFFFFFFFFFFFFFFFFFFFFFF
FFFFFFFFFFFFFFFFFFFFFFFF
FFFFFFFFFFFFFFFFFFFFFFFF
FFFFFFFFFFFFFFFFFFFFFFFF
FFFFFFFFFFFFFFFFFFFFFFFF
FFFFFFFFFFFFFFFFFFFFFFFF
FFFFFFFFFFFFFFFFFFFFFFFF
FFFFFFFFFFFFFFFFFFFFFFFF
FFFFFFFFFFFFFFFFFFFFFFFF
FFFFFFFFFFFFFFFFFFFFFFFF
FFFFFFFFFFFFFFFFFFFFFFFF
ENDCHAR
STARTCHAR 0060
ENCODING 96
SWIDTH 300 0
DWIDTH 48 0
BBX 0 0 0 0
BITMAP
ENDCHAR
STARTCHAR 0061
ENCODING 97
SWIDTH 675 0
DWIDTH 108 0
BBX 121 104 -9 -5
BITMAP
00000000000000040000000000000000
00000000000000060000000000000000
000000000000000E0000000000000000
000000000000000F0000000000000000
000000000000001F0000000000000000
000000000000003F8000000000000000
000000000000003FC000000000000000
000000000000007FC000000000000000
000000000000007FE000000000000000
00000000000000FFE000000000000000
00000000000001FFF000000000000000
00000000000001FFF800000000000000
00000000000003FFF800000000000000
00000000000003FFFC00000000000000
00000000000007FFFC00000000000000
0000000000000FFFFE00000000000000
0000000000000FFFFF00000000000000
0000000000001FFFFF00000000000000
0000000000001FFFFF80000000000000
0000000000003FFFFF80000000000000
0000000000007FFFFFC0000000000000
0000000000007FFFFFE0000000000000
000000000000FFFFFFE0000000000000
000000000000FFFFFFF0000000000000
000000000001FFFFFFF0000000000000
000000000003FFFFFFF8000000000000
000000000003FFFFFFFC000000000000
000000000007FFFFFFFC000000000000
000000000007FFFFFFFE000000000000
00000000000FFFFFFFFE000000000000
00000000000FFFFBFFFF000000000000
00000000001FFFF9FFFF800000000000
00000000003FFFF1FFFF800000000000
00000000003FFFE0FFFFC00000000000
00000000007FFFE07FFFC00000000000
00000000007FFFC07FFFE00000000000
0000000000FFFFC03FFFE00000000000
0000000001FFFF801FFFF00000000000
0000000001FFFF801FFFF80000000000
0000000003FFFF000FFFF80000000000
0000000003FFFE000FFFFC0000000000
0000000007FFFE0007FFFC0000000000
000000000FFFFC0003FFFE0000000000
000000000FFFFC0003FFFF0000000000
000000001FFFF80001FFFF0000000000
000000001FFFFFFFFFFFFF8000000000
000000003FFFFFFFFFFFFF8000000000
000000007FFFEFFFFFFFFFC000000000
000000007FFFFFFFFFFFFFE000000000
00000000FFFFDFFFFFFFFFE000000000
00000000FFFFFFFFFFFFFFF000000000
00000001FFFFBFFFFFFFFFF000000000
00000003FFFFFFFFFFFFFFF800000000
00000003FFFF7FFFFFFFFFFC00000000
00000007FFFEFFFFFFFFFFFC00000000
00000007FFFFFFFFFFFFFFFE00000000
0000000FFFFDFFFFFFFFFFFE00000000
0000000FFFFFFFFFFFFFFFFF00000000
0000001FFFFBFFFFFFFFFFFF80000000
0000003FFFFFFFFFFFFFFFFF80000000
0000003FFFF7FFFFFFFFFFFFC0000000
0000007FFFF0000000007FFFC0000000
0000007FFFE0000000003FFFE0000000
000000FFFFC0000000003FFFF0000000
000001FFFFC0000000001FFFF0000000
000001FFFF80000000000FFFF8000000
000003FFFF80000000000FFFF8000000
000003FFFF000000000007FFFC000000
000007FFFF000000000007FFFE000000
00000FFFFE000000000003FFFE000000
00000FFFFC000000000001FFFF000000
00001FFFFC000000000001FFFF000000
00001FFFF8000000000000FFFF800000
00003FFFF80000000000007FFFC00000
00007FFFF00000000000007FFFC00000
00007FFFE00000000000003FFFE00000
0000FFFFE00000000000003FFFE00000
0000FFFFC00000000000001FFFF00000
0001FFFFC00000000000000FFFF80000
0003FFFF800000000000000FFFF80000
0003FFFF0000000000000007FFFC0000
0007FFFF0000000000000003FFFC0000
0007FFFE0000000000000003FFFE0000
000FFFFC0000000000000001FFFF0000
000FFFFC0000000000000001FFFF0000
001FFFF80000000000000000FFFF8000
003FFFF000000000000000007FFF8000
003FFFF000000000000000007FFFC000
007FFFE000000000000000003FFFE000
007FFFC000000000000000001FFFE000
00FFFFC000000000000000001FFFF000
01FFFF8000000000000000000FFFF000
01FFFF0000000000000000000FFFF800
03FFFE00000000000000000007FFFC00
03FFFE00000000000000000003FFFC00
07FFFC00000000000000000003FFFE00
0FFFF800000000000000000001FFFE00
0FFFF000000000000000000000FFFF00
1FFFE000000000000000000000FFFF80
1FFFE0000000000000000000007FFF80
3FFF80000000000000000000007FF800
7FFE00000000000000000000003F0000
7FE00000000000000000000000100000
E0000000000000000000000000000000
ENDCHAR
STARTCHAR 0062
ENCODING 98
SWIDTH 575 0
DWIDTH 92 0
BBX 78 98 2 1
BITMAP
FFFFFFFFFFFE00000000
FFFFFFFFFFFFE0000000
FFFFFFFFFFFFF8000000
FFFFFFFFFFFFFE000000
FFFFFFFFFFFFFFC00000
FFFFFFFFFFFFFFE00000
FFFFFFFFFFFFFFF80000
FFFFFFFFFFFFFFFE0000
FFFFFFFFFFFFFFFF0000
FFFFFFFFFFFFFFFF8000
FFFFFFFFFFFFFFFFE000
FFFFFFFFFFFFFFFFE000
FFFFFFFFFFFFFFFFF000
FFFFFFFFFFFFFFFFF800
FFFFFFFFFFFFFFFFF800
FFFFFFFFFFFFFFFFFC00
FFFF00000007FFFFFC00
FFFF00000001FFFFFC00
FFFF000000007FFFFC00
FFFF000000003FFFFC00
FFFF000000001FFFF800
FFFF000000000FFFF800
FFFF000000000FFFF000
FFFF000000000FFFE000
FFFF000000001FFFE000
FFFF000000003FFFC000
FFFF000000007FFF8000
FFFF00000000FFFF0000
FFFF00000001FFFE0000
FFFF00000001FFFC0000
FFFF00000003FFF80000
FFFF00000007FFF00000
FFFF0000000FFFC00000
FFFF0000001FFF800000
FFFF0000003FFF000000
FFFF0000007FFE000000
FFFF000000FFFC000000
FFFF000001FFF8000000
FFFF000003FFF0000000
FFFF000007FFFE000000
FFFF00000FFFFFF00000
FFFF00001FFFFFFE0000
FFFF00003FFFFFFF8000
FFFF00007FFFFFFFE000
FFFF0000FFFFFFFFF000
FFFF0001FFFFFFFFF800
FFFF0003FFFFFFFFFE00
FFFF0007FFFFFFFFFE00
FFFF000FFFFFFFFFFF00
FFFF001FFFFFFFFFFF80
FFFF000000001FFFFFC0
FFFF0000000007FFFFC0
FFFF0000000001FFFFE0
FFFF0000000000FFFFE0
FFFF00000000007FFFF0
FFFF00000000003FFFF0
FFFF00000000003FFFF8
FFFF00000000001FFFF8
FFFF00000000000FFFF8
FFFF00000000000FFFF8
FFFF000000000007FFF8
FFFF000000000007FFFC
FFFF000000000007FFFC
FFFF000000000003FFFC
FFFF000000000003FFFC
FFFF000000000003FFFC
FFFF000000000003FFFC
FFFF000000000003FFFC
FFFF000000000003FFFC
FFFF000000000003FFFC
FFFF000000000003FFFC
FFFF000000000007FFFC
FFFF000000000007FFF8
FFFF00000000000FFFF8
FFFF00000000000FFFF8
FFFF00000000001FFFF0
FFFF00000000003FFFF0
FFFF00000000007FFFF0
FFFF0000000000FFFFE0
FFFF0000000001FFFFE0
FFFF0000000007FFFFC0
FFFF000000001FFFFFC0
FFFFFFFFFFFFFFFFFF80
FFFFFFFFFFFFFFFFFF80
FFFFFFFFFFFFFFFFFF00
FFFFFFFFFFFFFFFFFE00
FFFFFFFFFFFFFFFFFC00
FFFFFFFFFFFFFFFFFC00
FFFFFFFFFFFFFFFFF800
FFFFFFFFFFFFFFFFF000
FFFFFFFFFFFFFFFFE000
FFFFFFFFFFFFFFFFC000
FFFFFFFFFFFFFFFF0000
FFFFFFFFFFFFFFFE0000
FFFFFFFFFFFFFFFC0000
FFFFFFFFFFFFFFF00000
FFFFFFFFFFFFFFC00000
FFFFFFFFFFFFFC000000
ENDCHAR
STARTCHAR 0063
ENCODING 99
SWIDTH 662 0
DWIDTH 106 0
BBX 104 99 3 1
BITMAP
00000003FFFFFFFFFFFFFFFFFE
0000001FFFFFFFFFFFFFFFFFFC
000000FFFFFFFFFFFFFFFFFFF8
000003FFFFFFFFFFFFFFFFFFF0
000007FFFFFFFFFFFFFFFFFFE0
00001FFFFFFFFFFFFFFFFFFFC0
00003FFFFFFFFFFFFFFFFFFF80
00007FFFFFFFFFFFFFFFFFFF00
0000FFFFFFFFFFFFFFFFFFFE00
0001FFFFFFFFFFFFFFFFFFF800
0003FFFFFFFFFFFFFFFFFFF000
0007FFFFFFFFFFFFFFFFFFE000
000FFFFFFFFFFFFFFFFFFFC000
001FFFFFFFFFFFFFFFFFFF8000
001FFFFFFFFFFFFFFFFFFE0000
003FFFFFF00000000000000000
007FFFFF800000000000000000
007FFFFE000000000000000000
00FFFFFC000000000000000000
00FFFFF8000000000000000000
01FFFFF0000000000000000000
01FFFFE0000000000000000000
03FFFFC0000000000000000000
03FFFF80000000000000000000
07FFFF00000000000000000000
07FFFF00000000000000000000
0FFFFE00000000000000000000
0FFFFE00000000000000000000
0FFFFC00000000000000000000
1FFFFC00000000000000000000
1FFFF800000000000000000000
1FFFF800000000000000000000
3FFFF000000000000000000000
3FFFF000000000000000000000
3FFFE000000000000000000000
7FFFE000000000000000000000
7FFFE000000000000000000000
7FFFC000000000000000000000
7FFFC000000000000000000000
FFFFC000000000000000000000
FFFFC000000000000000000000
FFFF8000000000000000000000
FFFF8000000000000000000000
FFFF8000000000000000000000
FFFF8000000000000000000000
FFFF8000000000000000000000
FFFF8000000000000000000000
FFFF8000000000000000000000
FFFF8000000000000000000000
FFFF8000000000000000000000
FFFF8000000000000000000000
FFFF8000000000000000000000
FFFF8000000000000000000000
FFFF8000000000000000000000
FFFF8000000000000000000000
FFFF8000000000000000000000
FFFF8000000000000000000000
FFFFC000000000000000000000
FFFFC000000000000000000000
7FFFC000000000000000000000
7FFFC000000000000000000000
7FFFE000000000000000000000
7FFFE000000000000000000000
7FFFE000000000000000000000
7FFFF000000000000000000000
7FFFF000000000000000000000
3FFFF800000000000000000000
3FFFF800000000000000000000
3FFFF800000000000000000000
1FFFFC00000000000000000000
1FFFFC00000000000000000000
0FFFFE00000000000000000000
0FFFFF00000000000000000000
07FFFF00000000000000000000
07FFFF80000000000000000000
03FFFFC0000000000000000000
03FFFFE0000000000000000000
01FFFFE0000000000000000000
01FFFFF8000000000000000000
00FFFFFC000000000000000000
007FFFFE000000000000000000
003FFFFF800000000000000000
003FFFFFF0000000000000000F
001FFFFFFFFFFFFFFFFFFFFFFE
000FFFFFFFFFFFFFFFFFFFFFFC
0007FFFFFFFFFFFFFFFFFFFFF8
0003FFFFFFFFFFFFFFFFFFFFF0
0003FFFFFFFFFFFFFFFFFFFFE0
0001FFFFFFFFFFFFFFFFFFFFC0
0000FFFFFFFFFFFFFFFFFFFF80
00007FFFFFFFFFFFFFFFFFFF80
00003FFFFFFFFFFFFFFFFFFF00
00000FFFFFFFFFFFFFFFFFFE00
000007FFFFFFFFFFFFFFFFFC00
000003FFFFFFFFFFFFFFFFF800
000000FFFFFFFFFFFFFFFFF000
0000007FFFFFFFFFFFFFFFE000
0000000FFFFFFFFFFFFFFFC000
00000001FFFFFFFFFFFFFF8000
ENDCHAR
STARTCHAR 0064
ENCODING 100
SWIDTH 725 0
DWIDTH 116 0
BBX 100 98 2 1
BITMAP
FFFFFFFFFFFFFFFF0000000000
FFFFFFFFFFFFFFFFF000000000
FFFFFFFFFFFFFFFFFE00000000
FFFFFFFFFFFFFFFFFF80000000
FFFFFFFFFFFFFFFFFFE0000000
FFFFFFFFFFFFFFFFFFF8000000
FFFFFFFFFFFFFFFFFFFC000000
FFFFFFFFFFFFFFFFFFFF000000
FFFFFFFFFFFFFFFFFFFF800000
FFFFFFFFFFFFFFFFFFFFC00000
FFFFFFFFFFFFFFFFFFFFE00000
FFFFFFFFFFFFFFFFFFFFF00000
FFFFFFFFFFFFFFFFFFFFF80000
FFFFFFFFFFFFFFFFFFFFFC0000
FFFFFFFFFFFFFFFFFFFFFE0000
FFFFFFFFFFFFFFFFFFFFFE0000
FFFF000000000007FFFFFF0000
FFFF000000000000FFFFFF8000
FFFF0000000000003FFFFFC000
FFFF0000000000000FFFFFC000
FFFF00000000000003FFFFE000
FFFF00000000000001FFFFF000
FFFF00000000000000FFFFF000
FFFF000000000000007FFFF800
FFFF000000000000003FFFF800
FFFF000000000000001FFFFC00
FFFF000000000000000FFFFC00
FFFF000000000000000FFFFE00
FFFF0000000000000007FFFE00
FFFF0000000000000003FFFF00
FFFF0000000000000003FFFF00
FFFF0000000000000001FFFF80
FFFF0000000000000001FFFF80
FFFF0000000000000000FFFF80
FFFF0000000000000000FFFFC0
FFFF00000000000000007FFFC0
FFFF00000000000000007FFFC0
FFFF00000000000000003FFFE0
FFFF00000000000000003FFFE0
FFFF00000000000000003FFFE0
FFFF00000000000000001FFFE0
FFFF00000000000000001FFFE0
FFFF00000000000000001FFFF0
FFFF00000000000000001FFFF0
FFFF00000000000000000FFFF0
FFFF00000000000000000FFFF0
FFFF00000000000000000FFFF0
FFFF00000000000000000FFFF0
FFFF00000000000000000FFFF0
FFFF00000000000000000FFFF0
FFFF00000000000000000FFFF0
FFFF00000000000000000FFFF0
FFFF00000000000000000FFFF0
FFFF00000000000000000FFFF0
FFFF00000000000000000FFFF0
FFFF00000000000000001FFFF0
FFFF00000000000000001FFFE0
FFFF00000000000000001FFFE0
FFFF00000000000000001FFFE0
FFFF00000000000000003FFFE0
FFFF00000000000000003FFFE0
FFFF00000000000000007FFFC0
FFFF00000000000000007FFFC0
FFFF00000000000000007FFFC0
FFFF0000000000000000FFFFC0
FFFF0000000000000001FFFF80
FFFF0000000000000001FFFF80
FFFF0000000000000003FFFF00
FFFF0000000000000003FFFF00
FFFF0000000000000007FFFF00
FFFF000000000000000FFFFE00
FFFF000000000000001FFFFE00
FFFF000000000000001FFFFC00
FFFF000000000000003FFFFC00
FFFF000000000000007FFFF800
FFFF00000000000000FFFFF800
FFFF00000000000003FFFFF000
FFFF00000000000007FFFFE000
FFFF0000000000000FFFFFE000
FFFF0000000000003FFFFFC000
FFFF000000000000FFFFFF8000
FFFF00000000000FFFFFFF8000
FFFFFFFFFFFFFFFFFFFFFF0000
FFFFFFFFFFFFFFFFFFFFFE0000
FFFFFFFFFFFFFFFFFFFFFC0000
FFFFFFFFFFFFFFFFFFFFF80000
FFFFFFFFFFFFFFFFFFFFF00000
FFFFFFFFFFFFFFFFFFFFE00000
FFFFFFFFFFFFFFFFFFFFC00000
FFFFFFFFFFFFFFFFFFFF800000
FFFFFFFFFFFFFFFFFFFF000000
FFFFFFFFFFFFFFFFFFFE000000
FFFFFFFFFFFFFFFFFFF8000000
FFFFFFFFFFFFFFFFFFF0000000
FFFFFFFFFFFFFFFFFFC0000000
FFFFFFFFFFFFFFFFFF00000000
FFFFFFFFFFFFFFFFF800000000
FFFFFFFFFFFFFFFF0000000000
ENDCHAR
STARTCHAR 0065
ENCODING 101
SWIDTH 662 0
DWIDTH 106 0
BBX 105 99 2 0
BITMAP
00000001FFFFFFFFFFFFFFFFFE00
0000001FFFFFFFFFFFFFFFFFFC00
000000FFFFFFFFFFFFFFFFFFF800
000003FFFFFFFFFFFFFFFFFFF000
00000FFFFFFFFFFFFFFFFFFFE000
00001FFFFFFFFFFFFFFFFFFFC000
00003FFFFFFFFFFFFFFFFFFF8000
0000FFFFFFFFFFFFFFFFFFFF0000
0001FFFFFFFFFFFFFFFFFFFE0000
0003FFFFFFFFFFFFFFFFFFFC0000
0007FFFFFFFFFFFFFFFFFFFC0000
0007FFFFFFFFFFFFFFFFFFF80000
000FFFFFFFFFFFFFFFFFFFE00000
001FFFFFFFFFFFFFFFFFFFC00000
003FFFFFFFFFFFFFFFFFFF800000
003FFFFFFE000000000000000000
007FFFFFF0000000000000000000
00FFFFFFC0000000000000000000
00FFFFFF80000000000000000000
01FFFFFE00000000000000000000
01FFFFFC00000000000000000000
03FFFFF800000000000000000000
03FFFFF000000000000000000000
07FFFFE000000000000000000000
07FFFFC000000000000000000000
0FFFFF8000000000000000000000
0FFFFF0000000000000000000000
0FFFFE0000000000000000000000
1FFFFE0000000000000000000000
1FFFFC0000000000000000000000
1FFFF80000000000000000000000
3FFFF80000000000000000000000
3FFFF00000000000000000000000
3FFFF00000000000000000000000
7FFFE00000000000000000000000
7FFFE00000000000000000000000
7FFFC00000000000000000000000
7FFFC00000000000000000000000
7FFFC00000000000000000000000
7FFFC00000000000000000000000
FFFFC00000000000000000000000
FFFFFFFFFFFFFFFFFFFFFFF00000
FFFFFFFFFFFFFFFFFFFFFFE00000
FFFFFFFFFFFFFFFFFFFFFFC00000
FFFFFFFFFFFFFFFFFFFFFF800000
FFFFFFFFFFFFFFFFFFFFFF000000
FFFFFFFFFFFFFFFFFFFFFE000000
FFFFFFFFFFFFFFFFFFFFFC000000
FFFFFFFFFFFFFFFFFFFFFC000000
FFFFFFFFFFFFFFFFFFFFF8000000
FFFFFFFFFFFFFFFFFFFFF0000000
FFFFFFFFFFFFFFFFFFFFE0000000
FFFFFFFFFFFFFFFFFFFFC0000000
FFFFFFFFFFFFFFFFFFFF80000000
FFFFFFFFFFFFFFFFFFFF00000000
FFFFFFFFFFFFFFFFFFFE00000000
7FFFFFFFFFFFFFFFFFFC00000000
7FFFFFFFFFFFFFFFFFF800000000
7FFFFFFFFFFFFFFFFFF000000000
7FFF800000000000000000000000
7FFF800000000000000000000000
3FFF800000000000000000000000
3FFFC00000000000000000000000
3FFFC00000000000000000000000
3FFFC00000000000000000000000
1FFFE00000000000000000000000
1FFFE00000000000000000000000
1FFFF00000000000000000000000
0FFFF80000000000000000000000
0FFFF80000000000000000000000
0FFFFC0000000000000000000000
07FFFE0000000000000000000000
07FFFF0000000000000000000000
03FFFF0000000000000000000000
03FFFF8000000000000000000000
03FFFFC000000000000000000000
01FFFFE000000000000000000000
01FFFFF000000000000000000000
00FFFFFC00000000000000000000
00FFFFFE00000000000000000000
007FFFFF00000000000000000000
003FFFFFC0000000000000000180
003FFFFFF8000000000000003F00
001FFFFFFFFFFFFFFFFFFFFFFE00
001FFFFFFFFFFFFFFFFFFFFFFC00
000FFFFFFFFFFFFFFFFFFFFFFC00
0007FFFFFFFFFFFFFFFFFFFFF800
0003FFFFFFFFFFFFFFFFFFFFF000
0003FFFFFFFFFFFFFFFFFFFFE000
0001FFFFFFFFFFFFFFFFFFFFC000
0000FFFFFFFFFFFFFFFFFFFF8000
00007FFFFFFFFFFFFFFFFFFF0000
00003FFFFFFFFFFFFFFFFFFE0000
00000FFFFFFFFFFFFFFFFFFC0000
000007FFFFFFFFFFFFFFFFF80000
000003FFFFFFFFFFFFFFFFF00000
000000FFFFFFFFFFFFFFFFE00000
0000001FFFFFFFFFFFFFFFC00000
00000003FFFFFFFFFFFFFF800000
ENDCHAR
ENDFONT
